{"glyphs":{"0":{"ha":781,"x_min":131,"x_max":776,"o":"m 513 915 q 717 819 657 915 q 776 585 776 724 q 726 269 776 404 q 588 60 675 133 q 394 -14 500 -14 q 197 77 264 -14 q 131 335 131 168 q 226 755 131 594 q 513 915 322 915 m 504 851 q 308 715 381 851 q 236 308 236 579 q 279 116 236 182 q 403 50 322 50 q 534 113 472 50 q 633 300 596 176 q 671 596 671 424 q 633 781 671 710 q 504 851 594 851 z "},"1":{"ha":513,"x_min":181,"x_max":486,"o":"m 486 903 l 360 0 l 260 0 l 374 822 l 196 729 l 181 783 l 404 903 l 486 903 z "},"2":{"ha":660,"x_min":60,"x_max":668,"o":"m 60 0 l 71 83 q 230 201 107 96 q 454 442 353 306 q 556 703 556 579 q 517 811 556 775 q 399 847 479 847 q 308 831 353 847 q 229 793 263 814 q 196 771 196 772 l 194 836 q 230 859 194 838 q 316 898 265 881 q 422 915 367 915 q 606 860 544 915 q 668 710 668 804 q 516 383 668 547 q 182 94 364 219 l 608 94 l 596 0 l 60 0 z "},"3":{"ha":660,"x_min":69,"x_max":683,"o":"m 572 807 l 208 807 l 228 903 l 683 903 l 674 838 l 378 511 q 417 515 394 515 q 574 456 515 515 q 632 299 632 397 q 590 133 632 204 q 474 24 547 63 q 307 -14 400 -14 q 176 9 229 -14 q 97 59 124 32 q 69 90 69 86 l 111 144 q 136 117 111 142 q 204 73 161 93 q 304 53 247 53 q 472 122 415 53 q 528 308 528 190 q 491 416 528 376 q 385 456 454 456 q 344 449 363 456 q 313 435 325 442 q 299 425 301 428 l 268 467 l 572 807 z "},"4":{"ha":683,"x_min":79,"x_max":679,"o":"m 490 903 q 338 585 426 744 q 160 290 250 426 l 478 290 l 568 771 l 647 771 l 581 290 l 679 290 l 671 235 l 572 228 l 540 0 l 438 0 l 469 228 l 79 228 l 81 281 q 242 571 154 394 q 396 915 331 747 l 490 903 z "},"5":{"ha":646,"x_min":47,"x_max":669,"o":"m 332 806 l 268 535 q 371 553 319 553 q 558 492 489 553 q 628 324 628 431 q 580 145 628 222 q 452 27 532 68 q 276 -14 372 -14 q 152 9 203 -14 q 74 58 101 32 q 47 89 47 85 l 90 140 q 113 114 90 136 q 177 72 136 92 q 276 53 218 53 q 454 128 388 53 q 521 321 521 203 q 476 447 521 400 q 354 494 432 494 q 276 481 311 494 q 231 456 242 468 l 228 451 l 188 457 l 292 903 l 669 903 l 650 806 l 332 806 z "},"6":{"ha":718,"x_min":119,"x_max":696,"o":"m 658 807 q 632 822 653 811 q 578 842 611 832 q 510 851 546 851 q 239 481 304 851 q 458 569 342 569 q 633 508 571 569 q 696 339 696 446 q 693 289 696 306 q 639 135 681 204 q 528 26 597 67 q 369 -14 460 -14 q 183 60 247 -14 q 119 274 119 135 q 139 449 119 358 q 283 799 186 683 q 510 915 379 915 q 591 905 553 915 q 653 883 629 894 q 682 868 676 872 l 658 807 m 439 513 q 324 481 374 513 q 242 410 274 449 q 232 359 238 396 q 225 282 226 322 q 224 246 224 269 q 263 98 224 149 q 379 47 301 47 q 519 113 469 47 q 586 286 569 179 q 590 340 590 315 q 553 466 590 419 q 439 513 515 513 z "},"7":{"ha":585,"x_min":151,"x_max":685,"o":"m 674 819 q 442 418 558 646 q 261 0 325 190 l 151 0 q 330 383 215 179 q 585 803 444 586 l 169 803 l 183 903 l 685 903 l 674 819 z "},"8":{"ha":697,"x_min":96,"x_max":713,"o":"m 713 717 q 652 548 713 608 q 507 461 592 488 q 619 397 572 442 q 667 267 667 351 q 581 56 667 126 q 347 -14 496 -14 q 163 37 229 -14 q 96 193 96 88 q 160 369 96 306 q 317 463 225 433 q 218 526 258 482 q 178 650 178 571 q 260 844 178 772 q 476 915 342 915 q 649 863 585 915 q 713 717 713 811 m 283 642 q 319 531 283 567 q 403 485 356 496 q 536 542 467 492 q 606 721 606 592 q 571 824 606 789 q 468 858 536 858 q 332 800 381 858 q 283 642 283 742 m 556 272 q 514 388 556 350 q 419 436 472 425 q 281 376 354 428 q 207 193 207 325 q 246 81 207 118 q 356 43 285 43 q 501 103 447 43 q 556 272 556 163 z "},"9":{"ha":718,"x_min":147,"x_max":725,"o":"m 190 114 q 210 94 190 111 q 265 64 231 78 q 346 50 300 50 q 508 142 440 50 q 606 411 575 233 q 516 344 569 372 q 389 315 463 315 q 212 380 276 315 q 147 553 147 444 q 187 729 147 646 q 302 864 226 813 q 478 915 378 915 q 661 842 597 915 q 725 632 725 768 q 720 530 725 582 q 711 458 715 478 q 574 105 667 224 q 349 -14 482 -14 q 247 2 289 -14 q 182 37 204 18 q 160 58 160 56 l 190 114 m 403 372 q 533 412 478 372 q 607 493 588 451 q 621 639 618 557 l 621 661 q 585 806 621 758 q 472 854 549 854 q 354 811 404 854 q 278 699 304 768 q 251 550 251 629 q 290 423 251 474 q 403 372 328 372 z "},"\u0000":{"ha":0,"x_min":0,"x_max":0,"o":""},"\r":{"ha":324,"x_min":0,"x_max":0,"o":""}," ":{"ha":324,"x_min":0,"x_max":0,"o":""},"A":{"ha":789,"x_min":32,"x_max":758,"o":"m 586 903 l 758 0 l 649 0 l 593 278 l 239 278 l 106 0 l 32 0 l 463 903 l 586 903 m 265 335 l 582 335 l 494 822 l 265 335 z "},"Á":{"ha":789,"x_min":32,"x_max":758,"o":"m 699 1168 l 532 981 l 481 988 l 614 1189 l 699 1168 m 586 903 l 758 0 l 649 0 l 593 278 l 239 278 l 106 0 l 32 0 l 463 903 l 586 903 m 265 335 l 582 335 l 494 822 l 265 335 z "},"Ă":{"ha":789,"x_min":32,"x_max":758,"o":"m 533 1049 q 615 1067 583 1049 q 660 1106 646 1085 q 675 1131 675 1126 l 675 1133 l 738 1125 q 717 1083 738 1117 q 650 1018 697 1049 q 525 988 603 988 q 384 1038 415 988 q 353 1125 353 1089 l 417 1133 l 417 1131 q 424 1104 417 1124 q 458 1067 432 1085 q 533 1049 483 1049 m 586 903 l 758 0 l 649 0 l 593 278 l 239 278 l 106 0 l 32 0 l 463 903 l 586 903 m 265 335 l 582 335 l 494 822 l 265 335 z "},"Ắ":{"ha":789,"x_min":32,"x_max":758,"o":"m 586 903 l 758 0 l 649 0 l 593 278 l 239 278 l 106 0 l 32 0 l 463 903 l 586 903 m 265 335 l 582 335 l 494 822 l 265 335 m 529 1069 q 610 1088 579 1069 q 656 1126 642 1106 q 671 1151 671 1147 l 671 1154 l 733 1146 q 713 1103 733 1138 q 646 1039 693 1069 q 521 1008 599 1008 q 380 1059 411 1008 q 349 1146 349 1110 l 413 1154 l 413 1151 q 420 1125 413 1144 q 453 1088 428 1106 q 529 1069 479 1069 m 703 1357 l 536 1169 l 485 1176 l 618 1378 l 703 1357 z "},"Ặ":{"ha":789,"x_min":32,"x_max":758,"o":"m 586 903 l 758 0 l 649 0 l 593 278 l 239 278 l 106 0 l 32 0 l 463 903 l 586 903 m 265 335 l 582 335 l 494 822 l 265 335 m 278 -125 q 319 -110 294 -110 q 358 -125 344 -110 q 369 -158 369 -136 q 347 -210 369 -189 q 304 -225 328 -225 q 267 -210 278 -225 q 254 -176 254 -197 q 278 -125 254 -146 m 529 1069 q 610 1088 579 1069 q 656 1126 642 1106 q 671 1151 671 1147 l 671 1154 l 733 1146 q 713 1103 733 1138 q 646 1039 693 1069 q 521 1008 599 1008 q 380 1059 411 1008 q 349 1146 349 1110 l 413 1154 l 413 1151 q 420 1125 413 1144 q 453 1088 428 1106 q 529 1069 479 1069 z "},"Ằ":{"ha":789,"x_min":32,"x_max":758,"o":"m 586 903 l 758 0 l 649 0 l 593 278 l 239 278 l 106 0 l 32 0 l 463 903 l 586 903 m 265 335 l 582 335 l 494 822 l 265 335 m 529 1069 q 610 1088 579 1069 q 656 1126 642 1106 q 671 1151 671 1147 l 671 1154 l 733 1146 q 713 1103 733 1138 q 646 1039 693 1069 q 521 1008 599 1008 q 380 1059 411 1008 q 349 1146 349 1110 l 413 1154 l 413 1151 q 420 1125 413 1144 q 453 1088 428 1106 q 529 1069 479 1069 m 488 1361 l 575 1163 l 517 1151 l 399 1339 l 488 1361 z "},"Ẳ":{"ha":789,"x_min":32,"x_max":758,"o":"m 586 903 l 758 0 l 649 0 l 593 278 l 239 278 l 106 0 l 32 0 l 463 903 l 586 903 m 265 335 l 582 335 l 494 822 l 265 335 m 529 1069 q 610 1088 579 1069 q 656 1126 642 1106 q 671 1151 671 1147 l 671 1154 l 733 1146 q 713 1103 733 1138 q 646 1039 693 1069 q 521 1008 599 1008 q 380 1059 411 1008 q 349 1146 349 1110 l 413 1154 l 413 1151 q 420 1125 413 1144 q 453 1088 428 1106 q 529 1069 479 1069 m 533 1165 q 538 1194 533 1169 q 564 1221 539 1203 q 595 1247 583 1235 q 611 1276 607 1260 q 613 1294 613 1283 q 602 1323 613 1314 q 568 1332 592 1332 q 537 1326 551 1332 q 513 1315 522 1321 q 503 1308 504 1310 l 483 1368 q 503 1377 488 1371 q 542 1390 519 1383 q 586 1396 565 1396 q 657 1375 629 1396 q 685 1311 685 1354 q 682 1282 685 1293 q 663 1241 678 1256 q 622 1210 649 1226 q 599 1194 607 1200 q 590 1178 592 1188 l 588 1167 l 533 1165 z "},"Ẵ":{"ha":789,"x_min":32,"x_max":789,"o":"m 586 903 l 758 0 l 649 0 l 593 278 l 239 278 l 106 0 l 32 0 l 463 903 l 586 903 m 265 335 l 582 335 l 494 822 l 265 335 m 529 1069 q 610 1088 579 1069 q 656 1126 642 1106 q 671 1151 671 1147 l 671 1154 l 733 1146 q 713 1103 733 1138 q 646 1039 693 1069 q 521 1008 599 1008 q 380 1059 411 1008 q 349 1146 349 1110 l 413 1154 l 413 1151 q 420 1125 413 1144 q 453 1088 428 1106 q 529 1069 479 1069 m 789 1274 q 772 1253 789 1271 q 727 1219 756 1235 q 661 1203 699 1203 q 609 1211 633 1203 q 554 1236 585 1219 q 500 1259 521 1251 q 456 1267 479 1267 q 412 1255 432 1267 q 380 1230 392 1243 q 365 1213 368 1217 l 338 1247 q 358 1273 338 1250 q 410 1315 378 1296 q 483 1335 443 1335 q 539 1326 514 1335 q 596 1300 564 1317 q 644 1278 624 1286 q 686 1271 664 1271 q 725 1279 708 1271 q 751 1297 742 1288 q 763 1308 761 1306 l 789 1274 z "},"Â":{"ha":789,"x_min":32,"x_max":758,"o":"m 707 1061 l 675 1017 l 542 1151 l 371 1017 l 350 1061 l 524 1219 l 579 1219 l 707 1061 m 586 903 l 758 0 l 649 0 l 593 278 l 239 278 l 106 0 l 32 0 l 463 903 l 586 903 m 265 335 l 582 335 l 494 822 l 265 335 z "},"Ấ":{"ha":789,"x_min":32,"x_max":919,"o":"m 586 903 l 758 0 l 649 0 l 593 278 l 239 278 l 106 0 l 32 0 l 463 903 l 586 903 m 265 335 l 582 335 l 494 822 l 265 335 m 717 1039 l 685 994 l 551 1129 l 381 994 l 360 1039 l 533 1197 l 589 1197 l 717 1039 m 919 1331 l 753 1143 l 701 1150 l 835 1351 l 919 1331 z "},"Ậ":{"ha":789,"x_min":32,"x_max":758,"o":"m 586 903 l 758 0 l 649 0 l 593 278 l 239 278 l 106 0 l 32 0 l 463 903 l 586 903 m 265 335 l 582 335 l 494 822 l 265 335 m 278 -125 q 319 -110 294 -110 q 358 -125 344 -110 q 369 -158 369 -136 q 347 -210 369 -189 q 304 -225 328 -225 q 267 -210 278 -225 q 254 -176 254 -197 q 278 -125 254 -146 m 717 1039 l 685 994 l 551 1129 l 381 994 l 360 1039 l 533 1197 l 589 1197 l 717 1039 z "},"Ầ":{"ha":789,"x_min":32,"x_max":810,"o":"m 586 903 l 758 0 l 649 0 l 593 278 l 239 278 l 106 0 l 32 0 l 463 903 l 586 903 m 265 335 l 582 335 l 494 822 l 265 335 m 717 1039 l 685 994 l 551 1129 l 381 994 l 360 1039 l 533 1197 l 589 1197 l 717 1039 m 722 1372 l 810 1174 l 751 1163 l 633 1350 l 722 1372 z "},"Ẩ":{"ha":789,"x_min":32,"x_max":869,"o":"m 586 903 l 758 0 l 649 0 l 593 278 l 239 278 l 106 0 l 32 0 l 463 903 l 586 903 m 265 335 l 582 335 l 494 822 l 265 335 m 717 1039 l 685 994 l 551 1129 l 381 994 l 360 1039 l 533 1197 l 589 1197 l 717 1039 m 718 1153 q 722 1182 718 1157 q 749 1208 724 1190 q 780 1235 768 1222 q 796 1264 792 1247 q 797 1282 797 1271 q 787 1310 797 1301 q 753 1319 776 1319 q 722 1314 736 1319 q 698 1303 707 1308 q 688 1296 689 1297 l 668 1356 q 688 1365 672 1358 q 727 1377 704 1371 q 771 1383 750 1383 q 842 1363 814 1383 q 869 1299 869 1342 q 867 1269 869 1281 q 848 1228 863 1243 q 807 1197 833 1214 q 784 1181 792 1188 q 775 1165 776 1175 l 772 1154 l 718 1153 z "},"Ẫ":{"ha":789,"x_min":32,"x_max":808,"o":"m 586 903 l 758 0 l 649 0 l 593 278 l 239 278 l 106 0 l 32 0 l 463 903 l 586 903 m 265 335 l 582 335 l 494 822 l 265 335 m 717 1039 l 685 994 l 551 1129 l 381 994 l 360 1039 l 533 1197 l 589 1197 l 717 1039 m 808 1292 q 792 1271 808 1289 q 747 1237 775 1253 q 681 1221 718 1221 q 628 1229 653 1221 q 574 1254 604 1238 q 519 1277 540 1269 q 475 1285 499 1285 q 431 1273 451 1285 q 399 1248 411 1261 q 385 1231 388 1235 l 357 1265 q 377 1291 357 1268 q 430 1333 397 1314 q 503 1353 463 1353 q 558 1344 533 1353 q 615 1318 583 1335 q 663 1297 643 1304 q 706 1289 683 1289 q 744 1297 728 1289 q 771 1315 761 1306 q 782 1326 781 1324 l 808 1292 z "},"Ä":{"ha":789,"x_min":32,"x_max":758,"o":"m 399 1124 q 436 1138 417 1138 q 471 1124 457 1138 q 482 1092 482 1113 q 460 1042 482 1064 q 422 1028 442 1028 q 388 1042 401 1028 q 376 1074 376 1056 q 399 1124 376 1101 m 613 1124 q 650 1138 631 1138 q 685 1124 671 1138 q 696 1092 696 1110 q 674 1042 696 1064 q 635 1028 656 1028 q 601 1042 615 1028 q 590 1074 590 1056 q 613 1124 590 1101 m 586 903 l 758 0 l 649 0 l 593 278 l 239 278 l 106 0 l 32 0 l 463 903 l 586 903 m 265 335 l 582 335 l 494 822 l 265 335 z "},"Ạ":{"ha":789,"x_min":32,"x_max":758,"o":"m 586 903 l 758 0 l 649 0 l 593 278 l 239 278 l 106 0 l 32 0 l 463 903 l 586 903 m 265 335 l 582 335 l 494 822 l 265 335 m 278 -125 q 319 -110 294 -110 q 358 -125 344 -110 q 369 -158 369 -136 q 347 -210 369 -189 q 304 -225 328 -225 q 267 -210 278 -225 q 254 -176 254 -197 q 278 -125 254 -146 z "},"À":{"ha":789,"x_min":32,"x_max":758,"o":"m 485 1193 l 572 994 l 514 983 l 396 1171 l 485 1193 m 586 903 l 758 0 l 649 0 l 593 278 l 239 278 l 106 0 l 32 0 l 463 903 l 586 903 m 265 335 l 582 335 l 494 822 l 265 335 z "},"Ả":{"ha":789,"x_min":32,"x_max":758,"o":"m 586 903 l 758 0 l 649 0 l 593 278 l 239 278 l 106 0 l 32 0 l 463 903 l 586 903 m 265 335 l 582 335 l 494 822 l 265 335 m 497 967 q 501 996 497 971 q 528 1022 503 1004 q 559 1049 547 1036 q 575 1078 571 1061 q 576 1096 576 1085 q 566 1124 576 1115 q 532 1133 556 1133 q 501 1128 515 1133 q 477 1117 486 1122 q 467 1110 468 1111 l 447 1169 q 467 1178 451 1172 q 506 1191 483 1185 q 550 1197 529 1197 q 621 1176 593 1197 q 649 1113 649 1156 q 646 1083 649 1094 q 627 1042 642 1057 q 586 1011 613 1028 q 563 995 571 1001 q 554 979 556 989 l 551 968 l 497 967 z "},"Ā":{"ha":789,"x_min":32,"x_max":758,"o":"m 664 1071 l 407 1071 l 414 1121 l 671 1121 l 664 1071 m 586 903 l 758 0 l 649 0 l 593 278 l 239 278 l 106 0 l 32 0 l 463 903 l 586 903 m 265 335 l 582 335 l 494 822 l 265 335 z "},"Ą":{"ha":789,"x_min":32,"x_max":758,"o":"m 758 0 l 706 0 q 613 -78 660 -25 q 565 -211 565 -132 q 602 -283 565 -264 q 699 -303 639 -303 l 692 -347 q 551 -319 606 -347 q 496 -217 496 -292 q 542 -92 496 -147 q 649 0 588 -37 l 593 278 l 239 278 l 106 0 l 32 0 l 463 903 l 586 903 l 758 0 m 265 335 l 582 335 l 494 822 l 265 335 z "},"Å":{"ha":789,"x_min":32,"x_max":758,"o":"m 657 1101 q 617 992 657 1032 q 515 953 576 953 q 436 981 465 953 q 407 1061 407 1008 q 448 1172 407 1132 q 550 1213 489 1213 q 627 1183 597 1213 q 657 1101 657 1154 m 618 1099 q 598 1156 618 1136 q 546 1175 578 1175 q 475 1147 503 1175 q 447 1065 447 1119 q 467 1008 447 1028 q 521 989 488 989 q 591 1017 564 989 q 618 1099 618 1044 m 586 903 l 758 0 l 649 0 l 593 278 l 239 278 l 106 0 l 32 0 l 463 903 l 586 903 m 265 335 l 582 335 l 494 822 l 265 335 z "},"Ã":{"ha":789,"x_min":32,"x_max":765,"o":"m 765 1085 q 749 1064 765 1082 q 703 1030 732 1046 q 638 1014 675 1014 q 585 1022 610 1014 q 531 1047 561 1031 q 476 1070 497 1063 q 432 1078 456 1078 q 388 1066 408 1078 q 356 1041 368 1054 q 342 1024 344 1028 l 314 1058 q 334 1084 314 1061 q 387 1126 354 1107 q 460 1146 419 1146 q 515 1137 490 1146 q 572 1111 540 1128 q 620 1090 600 1097 q 663 1082 640 1082 q 701 1090 685 1082 q 728 1108 718 1099 q 739 1119 738 1117 l 765 1085 m 586 903 l 758 0 l 649 0 l 593 278 l 239 278 l 106 0 l 32 0 l 463 903 l 586 903 m 265 335 l 582 335 l 494 822 l 265 335 z "},"Æ":{"ha":1096,"x_min":-17,"x_max":1143,"o":"m 1143 903 l 1135 836 l 751 836 l 703 489 l 1053 489 l 1043 425 l 694 425 l 644 67 l 1056 67 l 1046 0 l 529 0 l 568 285 l 263 285 l 63 0 l -17 0 l 625 903 l 1143 903 m 576 342 l 646 836 l 640 836 l 303 342 l 576 342 z "},"B":{"ha":753,"x_min":131,"x_max":740,"o":"m 485 903 q 675 850 610 903 q 740 708 740 797 q 694 564 740 622 q 579 474 647 506 q 686 407 647 454 q 725 289 725 360 q 633 78 725 156 q 360 0 542 0 l 131 0 l 257 903 l 485 903 m 469 494 q 541 516 501 494 q 610 583 581 538 q 639 700 639 629 q 594 806 639 771 q 474 842 550 842 l 353 842 l 304 494 l 469 494 m 243 61 l 365 61 q 556 122 492 61 q 621 293 621 182 q 579 401 621 364 q 467 438 538 438 l 296 438 l 243 61 z "},"C":{"ha":792,"x_min":121,"x_max":836,"o":"m 817 771 q 779 792 817 772 q 690 829 742 813 q 585 846 639 846 q 406 790 486 846 q 279 623 326 733 q 232 356 232 513 q 303 133 232 211 q 496 56 375 56 q 627 85 569 56 q 719 151 685 115 q 753 190 753 186 l 785 146 q 746 98 785 139 q 638 22 707 57 q 474 -14 568 -14 q 215 85 310 -14 q 121 358 121 185 q 180 647 121 521 q 344 844 239 774 q 583 915 450 915 q 703 898 647 915 q 798 860 760 881 q 836 836 836 839 l 817 771 z "},"Ć":{"ha":792,"x_min":121,"x_max":836,"o":"m 754 1168 l 588 981 l 536 988 l 669 1189 l 754 1168 m 817 771 q 779 792 817 772 q 690 829 742 813 q 585 846 639 846 q 406 790 486 846 q 279 623 326 733 q 232 356 232 513 q 303 133 232 211 q 496 56 375 56 q 627 85 569 56 q 719 151 685 115 q 753 190 753 186 l 785 146 q 746 98 785 139 q 638 22 707 57 q 474 -14 568 -14 q 215 85 310 -14 q 121 358 121 185 q 180 647 121 521 q 344 844 239 774 q 583 915 450 915 q 703 898 647 915 q 798 860 760 881 q 836 836 836 839 l 817 771 z "},"Č":{"ha":792,"x_min":121,"x_max":836,"o":"m 413 1154 l 456 1188 l 589 1047 l 761 1188 l 796 1151 l 607 983 l 551 983 l 413 1154 m 817 771 q 779 792 817 772 q 690 829 742 813 q 585 846 639 846 q 406 790 486 846 q 279 623 326 733 q 232 356 232 513 q 303 133 232 211 q 496 56 375 56 q 627 85 569 56 q 719 151 685 115 q 753 190 753 186 l 785 146 q 746 98 785 139 q 638 22 707 57 q 474 -14 568 -14 q 215 85 310 -14 q 121 358 121 185 q 180 647 121 521 q 344 844 239 774 q 583 915 450 915 q 703 898 647 915 q 798 860 760 881 q 836 836 836 839 l 817 771 z "},"Ç":{"ha":792,"x_min":121,"x_max":836,"o":"m 817 771 q 779 792 817 772 q 690 829 742 813 q 585 846 639 846 q 406 790 486 846 q 279 623 326 733 q 232 356 232 513 q 303 133 232 211 q 496 56 375 56 q 627 85 569 56 q 719 151 685 115 q 753 190 753 186 l 785 146 q 746 98 785 139 q 638 22 707 57 q 474 -14 568 -14 l 467 -14 l 446 -96 q 478 -106 446 -97 q 537 -137 510 -114 q 564 -201 564 -160 q 522 -308 564 -267 q 400 -349 479 -349 q 332 -335 358 -349 q 293 -308 306 -322 q 281 -290 281 -293 l 308 -262 q 319 -276 310 -265 q 348 -297 329 -287 q 394 -307 367 -307 q 474 -280 447 -307 q 501 -203 501 -253 q 475 -153 501 -167 q 422 -134 449 -139 q 396 -128 396 -129 l 426 -11 q 202 100 283 3 q 121 358 121 197 q 180 647 121 521 q 344 844 239 774 q 583 915 450 915 q 703 898 647 915 q 798 860 760 881 q 836 836 836 839 l 817 771 z "},"D":{"ha":881,"x_min":131,"x_max":885,"o":"m 532 903 q 793 808 701 903 q 885 535 885 714 q 828 248 885 368 q 663 64 771 128 q 406 0 556 0 l 131 0 l 257 903 l 532 903 m 244 67 l 417 67 q 678 187 582 67 q 774 546 774 307 q 710 763 774 689 q 524 836 646 836 l 353 836 l 244 67 z "},"Ð":{"ha":886,"x_min":93,"x_max":885,"o":"m 93 419 l 103 478 l 197 478 l 257 903 l 532 903 q 793 808 701 903 q 885 535 885 714 q 828 248 885 368 q 663 64 771 128 q 406 0 556 0 l 131 0 l 189 419 l 93 419 m 303 478 l 565 478 l 557 419 l 294 419 l 244 67 l 417 67 q 678 187 582 67 q 774 546 774 307 q 710 763 774 689 q 524 836 646 836 l 353 836 l 303 478 z "},"Ď":{"ha":886,"x_min":131,"x_max":885,"o":"m 353 1154 l 396 1188 l 529 1047 l 701 1188 l 736 1151 l 547 983 l 492 983 l 353 1154 m 532 903 q 793 808 701 903 q 885 535 885 714 q 828 248 885 368 q 663 64 771 128 q 406 0 556 0 l 131 0 l 257 903 l 532 903 m 244 67 l 417 67 q 678 187 582 67 q 774 546 774 307 q 710 763 774 689 q 524 836 646 836 l 353 836 l 244 67 z "},"Đ":{"ha":886,"x_min":93,"x_max":885,"o":"m 93 419 l 103 478 l 197 478 l 257 903 l 532 903 q 793 808 701 903 q 885 535 885 714 q 828 248 885 368 q 663 64 771 128 q 406 0 556 0 l 131 0 l 189 419 l 93 419 m 303 478 l 565 478 l 557 419 l 294 419 l 244 67 l 417 67 q 678 187 582 67 q 774 546 774 307 q 710 763 774 689 q 524 836 646 836 l 353 836 l 303 478 z "},"E":{"ha":704,"x_min":131,"x_max":743,"o":"m 647 0 l 131 0 l 257 903 l 743 903 l 735 836 l 353 836 l 304 489 l 654 489 l 644 425 l 296 425 l 246 67 l 657 67 l 647 0 z "},"É":{"ha":704,"x_min":131,"x_max":743,"o":"m 689 1168 l 522 981 l 471 988 l 604 1189 l 689 1168 m 647 0 l 131 0 l 257 903 l 743 903 l 735 836 l 353 836 l 304 489 l 654 489 l 644 425 l 296 425 l 246 67 l 657 67 l 647 0 z "},"Ě":{"ha":704,"x_min":131,"x_max":743,"o":"m 344 1154 l 388 1188 l 521 1047 l 693 1188 l 728 1151 l 539 983 l 483 983 l 344 1154 m 647 0 l 131 0 l 257 903 l 743 903 l 735 836 l 353 836 l 304 489 l 654 489 l 644 425 l 296 425 l 246 67 l 657 67 l 647 0 z "},"Ê":{"ha":704,"x_min":131,"x_max":743,"o":"m 701 1061 l 669 1017 l 536 1151 l 365 1017 l 344 1061 l 518 1219 l 574 1219 l 701 1061 m 647 0 l 131 0 l 257 903 l 743 903 l 735 836 l 353 836 l 304 489 l 654 489 l 644 425 l 296 425 l 246 67 l 657 67 l 647 0 z "},"Ế":{"ha":704,"x_min":131,"x_max":849,"o":"m 647 0 l 131 0 l 257 903 l 743 903 l 735 836 l 353 836 l 304 489 l 654 489 l 644 425 l 296 425 l 246 67 l 657 67 l 647 0 m 646 1039 l 614 994 l 481 1129 l 310 994 l 289 1039 l 463 1197 l 518 1197 l 646 1039 m 849 1331 l 682 1143 l 631 1150 l 764 1351 l 849 1331 z "},"Ệ":{"ha":704,"x_min":131,"x_max":743,"o":"m 647 0 l 131 0 l 257 903 l 743 903 l 735 836 l 353 836 l 304 489 l 654 489 l 644 425 l 296 425 l 246 67 l 657 67 l 647 0 m 236 -125 q 278 -110 253 -110 q 317 -125 303 -110 q 328 -158 328 -136 q 306 -210 328 -189 q 263 -225 286 -225 q 225 -210 236 -225 q 213 -176 213 -197 q 236 -125 213 -146 m 646 1039 l 614 994 l 481 1129 l 310 994 l 289 1039 l 463 1197 l 518 1197 l 646 1039 z "},"Ề":{"ha":704,"x_min":131,"x_max":743,"o":"m 647 0 l 131 0 l 257 903 l 743 903 l 735 836 l 353 836 l 304 489 l 654 489 l 644 425 l 296 425 l 246 67 l 657 67 l 647 0 m 646 1039 l 614 994 l 481 1129 l 310 994 l 289 1039 l 463 1197 l 518 1197 l 646 1039 m 651 1372 l 739 1174 l 681 1163 l 563 1350 l 651 1372 z "},"Ể":{"ha":704,"x_min":131,"x_max":799,"o":"m 647 0 l 131 0 l 257 903 l 743 903 l 735 836 l 353 836 l 304 489 l 654 489 l 644 425 l 296 425 l 246 67 l 657 67 l 647 0 m 646 1039 l 614 994 l 481 1129 l 310 994 l 289 1039 l 463 1197 l 518 1197 l 646 1039 m 647 1153 q 651 1182 647 1157 q 678 1208 653 1190 q 709 1235 697 1222 q 725 1264 721 1247 q 726 1282 726 1271 q 716 1310 726 1301 q 682 1319 706 1319 q 651 1314 665 1319 q 627 1303 636 1308 q 617 1296 618 1297 l 597 1356 q 617 1365 601 1358 q 656 1377 633 1371 q 700 1383 679 1383 q 771 1363 743 1383 q 799 1299 799 1342 q 796 1269 799 1281 q 777 1228 792 1243 q 736 1197 763 1214 q 713 1181 721 1188 q 704 1165 706 1175 l 701 1154 l 647 1153 z "},"Ễ":{"ha":704,"x_min":131,"x_max":743,"o":"m 647 0 l 131 0 l 257 903 l 743 903 l 735 836 l 353 836 l 304 489 l 654 489 l 644 425 l 296 425 l 246 67 l 657 67 l 647 0 m 646 1039 l 614 994 l 481 1129 l 310 994 l 289 1039 l 463 1197 l 518 1197 l 646 1039 m 738 1292 q 721 1271 738 1289 q 676 1237 704 1253 q 610 1221 647 1221 q 558 1229 582 1221 q 503 1254 533 1238 q 449 1277 469 1269 q 404 1285 428 1285 q 360 1273 381 1285 q 328 1248 340 1261 q 314 1231 317 1235 l 286 1265 q 306 1291 286 1268 q 359 1333 326 1314 q 432 1353 392 1353 q 488 1344 463 1353 q 544 1318 513 1335 q 592 1297 572 1304 q 635 1289 613 1289 q 674 1297 657 1289 q 700 1315 690 1306 q 711 1326 710 1324 l 738 1292 z "},"Ë":{"ha":704,"x_min":131,"x_max":743,"o":"m 374 1124 q 411 1138 392 1138 q 446 1124 432 1138 q 457 1092 457 1113 q 435 1042 457 1064 q 397 1028 417 1028 q 363 1042 376 1028 q 351 1074 351 1056 q 374 1124 351 1101 m 588 1124 q 625 1138 606 1138 q 660 1124 646 1138 q 671 1092 671 1110 q 649 1042 671 1064 q 610 1028 631 1028 q 576 1042 590 1028 q 565 1074 565 1056 q 588 1124 565 1101 m 647 0 l 131 0 l 257 903 l 743 903 l 735 836 l 353 836 l 304 489 l 654 489 l 644 425 l 296 425 l 246 67 l 657 67 l 647 0 z "},"Ė":{"ha":704,"x_min":131,"x_max":743,"o":"m 489 1126 q 532 1142 506 1142 q 571 1128 557 1142 q 582 1092 582 1115 q 558 1038 582 1061 q 514 1022 536 1022 q 476 1038 489 1022 q 464 1074 464 1053 q 470 1103 464 1089 q 489 1126 476 1117 m 647 0 l 131 0 l 257 903 l 743 903 l 735 836 l 353 836 l 304 489 l 654 489 l 644 425 l 296 425 l 246 67 l 657 67 l 647 0 z "},"Ẹ":{"ha":704,"x_min":131,"x_max":743,"o":"m 647 0 l 131 0 l 257 903 l 743 903 l 735 836 l 353 836 l 304 489 l 654 489 l 644 425 l 296 425 l 246 67 l 657 67 l 647 0 m 236 -125 q 278 -110 253 -110 q 317 -125 303 -110 q 328 -158 328 -136 q 306 -210 328 -189 q 263 -225 286 -225 q 225 -210 236 -225 q 213 -176 213 -197 q 236 -125 213 -146 z "},"È":{"ha":704,"x_min":131,"x_max":743,"o":"m 475 1193 l 563 994 l 504 983 l 386 1171 l 475 1193 m 647 0 l 131 0 l 257 903 l 743 903 l 735 836 l 353 836 l 304 489 l 654 489 l 644 425 l 296 425 l 246 67 l 657 67 l 647 0 z "},"Ẻ":{"ha":704,"x_min":131,"x_max":743,"o":"m 647 0 l 131 0 l 257 903 l 743 903 l 735 836 l 353 836 l 304 489 l 654 489 l 644 425 l 296 425 l 246 67 l 657 67 l 647 0 m 426 967 q 431 996 426 971 q 457 1022 432 1004 q 488 1049 476 1036 q 504 1078 500 1061 q 506 1096 506 1085 q 495 1124 506 1115 q 461 1133 485 1133 q 430 1128 444 1133 q 406 1117 415 1122 q 396 1110 397 1111 l 376 1169 q 397 1178 381 1172 q 435 1191 413 1185 q 479 1197 458 1197 q 550 1176 522 1197 q 578 1113 578 1156 q 575 1083 578 1094 q 556 1042 571 1057 q 515 1011 542 1028 q 492 995 500 1001 q 483 979 485 989 l 481 968 l 426 967 z "},"Ē":{"ha":704,"x_min":131,"x_max":743,"o":"m 657 1071 l 400 1071 l 407 1121 l 664 1121 l 657 1071 m 647 0 l 131 0 l 257 903 l 743 903 l 735 836 l 353 836 l 304 489 l 654 489 l 644 425 l 296 425 l 246 67 l 657 67 l 647 0 z "},"Ę":{"ha":704,"x_min":131,"x_max":743,"o":"m 635 0 q 542 -78 589 -25 q 494 -211 494 -132 q 531 -283 494 -264 q 628 -303 568 -303 l 621 -347 q 480 -319 535 -347 q 425 -217 425 -292 q 469 -93 425 -147 q 575 0 514 -39 l 131 0 l 257 903 l 743 903 l 735 836 l 353 836 l 304 489 l 654 489 l 644 425 l 296 425 l 246 67 l 657 67 l 647 0 l 635 0 z "},"Ẽ":{"ha":704,"x_min":131,"x_max":743,"o":"m 647 0 l 131 0 l 257 903 l 743 903 l 735 836 l 353 836 l 304 489 l 654 489 l 644 425 l 296 425 l 246 67 l 657 67 l 647 0 m 699 1106 q 682 1085 699 1103 q 637 1051 665 1067 q 571 1035 608 1035 q 519 1043 543 1035 q 464 1068 494 1051 q 410 1091 431 1083 q 365 1099 389 1099 q 322 1087 342 1099 q 290 1062 301 1075 q 275 1044 278 1049 l 247 1079 q 267 1105 247 1082 q 320 1147 288 1128 q 393 1167 353 1167 q 449 1158 424 1167 q 506 1132 474 1149 q 553 1110 533 1118 q 596 1103 574 1103 q 635 1111 618 1103 q 661 1128 651 1119 q 672 1140 671 1138 l 699 1106 z "},"F":{"ha":644,"x_min":131,"x_max":753,"o":"m 629 413 l 294 413 l 236 0 l 131 0 l 257 903 l 753 903 l 744 836 l 354 836 l 303 476 l 639 476 l 629 413 z "},"G":{"ha":861,"x_min":121,"x_max":854,"o":"m 703 0 l 690 99 q 435 -14 594 -14 q 202 83 283 -14 q 121 354 121 179 q 178 651 121 524 q 344 847 236 778 q 599 915 451 915 q 719 898 663 915 q 815 860 776 881 q 854 836 854 839 l 832 771 q 794 792 832 772 q 706 829 757 813 q 600 846 654 846 q 328 719 424 846 q 232 354 232 592 q 292 132 232 208 q 460 56 351 56 q 620 107 565 56 q 693 206 675 158 l 722 410 l 538 410 l 547 469 l 819 469 l 754 0 l 703 0 z "},"Ğ":{"ha":861,"x_min":121,"x_max":854,"o":"m 604 1049 q 685 1067 654 1049 q 731 1106 717 1085 q 746 1131 746 1126 l 746 1133 l 808 1125 q 788 1083 808 1117 q 721 1018 768 1049 q 596 988 674 988 q 455 1038 486 988 q 424 1125 424 1089 l 488 1133 l 488 1131 q 495 1104 488 1124 q 528 1067 503 1085 q 604 1049 554 1049 m 703 0 l 690 99 q 435 -14 594 -14 q 202 83 283 -14 q 121 354 121 179 q 178 651 121 524 q 344 847 236 778 q 599 915 451 915 q 719 898 663 915 q 815 860 776 881 q 854 836 854 839 l 832 771 q 794 792 832 772 q 706 829 757 813 q 600 846 654 846 q 328 719 424 846 q 232 354 232 592 q 292 132 232 208 q 460 56 351 56 q 620 107 565 56 q 693 206 675 158 l 722 410 l 538 410 l 547 469 l 819 469 l 754 0 l 703 0 z "},"Ģ":{"ha":861,"x_min":121,"x_max":854,"o":"m 703 0 l 690 99 q 435 -14 594 -14 q 202 83 283 -14 q 121 354 121 179 q 178 651 121 524 q 344 847 236 778 q 599 915 451 915 q 719 898 663 915 q 815 860 776 881 q 854 836 854 839 l 832 771 q 794 792 832 772 q 706 829 757 813 q 600 846 654 846 q 328 719 424 846 q 232 354 232 592 q 292 132 232 208 q 460 56 351 56 q 620 107 565 56 q 693 206 675 158 l 722 410 l 538 410 l 547 469 l 819 469 l 754 0 l 703 0 m 421 -75 q 457 -62 438 -62 q 489 -75 476 -62 l 494 -83 q 506 -129 506 -103 q 461 -272 506 -190 q 354 -400 417 -353 l 332 -374 q 415 -272 383 -332 q 444 -162 446 -211 q 410 -150 422 -162 q 400 -121 400 -139 q 421 -75 400 -92 z "},"H":{"ha":886,"x_min":131,"x_max":881,"o":"m 754 0 l 649 0 l 708 433 l 296 433 l 236 0 l 131 0 l 257 903 l 363 903 l 306 497 l 718 497 l 775 903 l 881 903 l 754 0 z "},"I":{"ha":368,"x_min":131,"x_max":363,"o":"m 236 0 l 131 0 l 257 903 l 363 903 l 236 0 z "},"Í":{"ha":368,"x_min":131,"x_max":482,"o":"m 482 1168 l 315 981 l 264 988 l 397 1189 l 482 1168 m 236 0 l 131 0 l 257 903 l 363 903 l 236 0 z "},"Î":{"ha":368,"x_min":131,"x_max":494,"o":"m 494 1061 l 463 1017 l 329 1151 l 158 1017 l 138 1061 l 311 1219 l 367 1219 l 494 1061 m 236 0 l 131 0 l 257 903 l 363 903 l 236 0 z "},"Ï":{"ha":368,"x_min":131,"x_max":479,"o":"m 182 1124 q 219 1138 200 1138 q 254 1124 240 1138 q 265 1092 265 1113 q 243 1042 265 1064 q 206 1028 225 1028 q 171 1042 185 1028 q 160 1074 160 1056 q 182 1124 160 1101 m 396 1124 q 433 1138 414 1138 q 468 1124 454 1138 q 479 1092 479 1110 q 457 1042 479 1064 q 418 1028 439 1028 q 385 1042 399 1028 q 374 1074 374 1056 q 396 1124 374 1101 m 236 0 l 131 0 l 257 903 l 363 903 l 236 0 z "},"İ":{"ha":368,"x_min":131,"x_max":381,"o":"m 288 1126 q 331 1142 304 1142 q 369 1128 356 1142 q 381 1092 381 1115 q 357 1038 381 1061 q 313 1022 335 1022 q 275 1038 288 1022 q 263 1074 263 1053 q 269 1103 263 1089 q 288 1126 275 1117 m 236 0 l 131 0 l 257 903 l 363 903 l 236 0 z "},"Ị":{"ha":368,"x_min":90,"x_max":363,"o":"m 236 0 l 131 0 l 257 903 l 363 903 l 236 0 m 114 -125 q 156 -110 131 -110 q 194 -125 181 -110 q 206 -158 206 -136 q 183 -210 206 -189 q 140 -225 164 -225 q 103 -210 114 -225 q 90 -176 90 -197 q 114 -125 90 -146 z "},"Ì":{"ha":368,"x_min":131,"x_max":363,"o":"m 267 1193 l 354 994 l 296 983 l 178 1171 l 267 1193 m 236 0 l 131 0 l 257 903 l 363 903 l 236 0 z "},"Ỉ":{"ha":368,"x_min":131,"x_max":446,"o":"m 236 0 l 131 0 l 257 903 l 363 903 l 236 0 m 294 967 q 299 996 294 971 q 325 1022 300 1004 q 356 1049 344 1036 q 372 1078 368 1061 q 374 1096 374 1085 q 363 1124 374 1115 q 329 1133 353 1133 q 298 1128 313 1133 q 274 1117 283 1122 q 264 1110 265 1111 l 244 1169 q 265 1178 249 1172 q 303 1191 281 1185 q 347 1197 326 1197 q 418 1176 390 1197 q 446 1113 446 1156 q 443 1083 446 1094 q 424 1042 439 1057 q 383 1011 410 1028 q 360 995 368 1001 q 351 979 353 989 l 349 968 l 294 967 z "},"Ī":{"ha":368,"x_min":131,"x_max":458,"o":"m 451 1071 l 194 1071 l 201 1121 l 458 1121 l 451 1071 m 236 0 l 131 0 l 257 903 l 363 903 l 236 0 z "},"Į":{"ha":368,"x_min":-25,"x_max":363,"o":"m 185 0 q 92 -78 139 -25 q 44 -211 44 -132 q 81 -283 44 -264 q 178 -303 118 -303 l 171 -347 q 30 -319 85 -347 q -25 -217 -25 -292 q 22 -90 -25 -146 q 131 3 68 -35 l 257 903 l 363 903 l 236 0 l 185 0 z "},"Ĩ":{"ha":368,"x_min":115,"x_max":567,"o":"m 236 0 l 131 0 l 257 903 l 363 903 l 236 0 m 567 1106 q 550 1085 567 1103 q 505 1051 533 1067 q 439 1035 476 1035 q 387 1043 411 1035 q 332 1068 363 1051 q 278 1091 299 1083 q 233 1099 257 1099 q 190 1087 210 1099 q 158 1062 169 1075 q 143 1044 146 1049 l 115 1079 q 135 1105 115 1082 q 188 1147 156 1128 q 261 1167 221 1167 q 317 1158 292 1167 q 374 1132 342 1149 q 422 1110 401 1118 q 464 1103 442 1103 q 503 1111 486 1103 q 529 1128 519 1119 q 540 1140 539 1138 l 567 1106 z "},"J":{"ha":503,"x_min":21,"x_max":510,"o":"m 43 99 q 56 85 43 97 q 94 63 69 74 q 153 53 118 53 q 254 98 211 53 q 315 265 297 143 l 404 903 l 510 903 l 419 265 q 333 48 397 110 q 175 -14 269 -14 q 89 -1 124 -14 q 38 28 54 13 q 21 46 21 43 l 43 99 z "},"K":{"ha":806,"x_min":131,"x_max":861,"o":"m 257 903 l 363 903 l 293 411 l 417 508 l 776 903 l 861 903 l 489 500 l 778 0 l 646 0 l 400 419 l 282 333 l 236 0 l 131 0 l 257 903 z "},"Ķ":{"ha":833,"x_min":131,"x_max":861,"o":"m 257 903 l 363 903 l 293 411 l 417 508 l 776 903 l 861 903 l 489 500 l 778 0 l 646 0 l 400 419 l 282 333 l 236 0 l 131 0 l 257 903 m 379 -75 q 415 -62 396 -62 q 447 -75 435 -62 l 453 -83 q 464 -129 464 -103 q 419 -272 464 -190 q 313 -400 375 -353 l 290 -374 q 373 -272 342 -332 q 403 -162 404 -211 q 368 -150 381 -162 q 358 -121 358 -139 q 379 -75 358 -92 z "},"L":{"ha":654,"x_min":131,"x_max":647,"o":"m 638 0 l 131 0 l 257 903 l 363 903 l 244 67 l 647 67 l 638 0 z "},"Ĺ":{"ha":660,"x_min":131,"x_max":647,"o":"m 493 1168 l 326 981 l 275 988 l 408 1189 l 493 1168 m 638 0 l 131 0 l 257 903 l 363 903 l 244 67 l 647 67 l 638 0 z "},"Ľ":{"ha":660,"x_min":131,"x_max":647,"o":"m 153 1154 l 196 1188 l 329 1047 l 501 1188 l 536 1151 l 347 983 l 292 983 l 153 1154 m 638 0 l 131 0 l 257 903 l 363 903 l 244 67 l 647 67 l 638 0 z "},"Ļ":{"ha":660,"x_min":131,"x_max":647,"o":"m 638 0 l 131 0 l 257 903 l 363 903 l 244 67 l 647 67 l 638 0 m 333 -75 q 369 -62 350 -62 q 401 -75 389 -62 l 407 -83 q 418 -129 418 -103 q 374 -272 418 -190 q 267 -400 329 -353 l 244 -374 q 327 -272 296 -332 q 357 -162 358 -211 q 322 -150 335 -162 q 313 -121 313 -139 q 333 -75 313 -92 z "},"Ł":{"ha":689,"x_min":93,"x_max":683,"o":"m 674 0 l 167 0 l 217 357 l 115 290 l 93 328 l 225 415 l 293 903 l 399 903 l 340 492 l 528 617 l 551 579 l 332 433 l 281 67 l 683 67 l 674 0 z "},"M":{"ha":1160,"x_min":131,"x_max":1151,"o":"m 1029 0 l 926 0 l 1031 774 l 608 0 l 524 0 l 318 774 l 207 0 l 131 0 l 261 903 l 392 903 l 601 129 l 603 129 l 1029 903 l 1151 903 l 1029 0 z "},"N":{"ha":904,"x_min":131,"x_max":900,"o":"m 774 0 l 682 0 l 310 769 l 308 769 l 310 726 l 207 0 l 131 0 l 257 903 l 367 903 l 724 158 l 724 192 l 824 903 l 900 903 l 774 0 z "},"Ń":{"ha":904,"x_min":131,"x_max":900,"o":"m 779 1168 l 613 981 l 561 988 l 694 1189 l 779 1168 m 774 0 l 682 0 l 310 769 l 308 769 l 310 726 l 207 0 l 131 0 l 257 903 l 367 903 l 724 158 l 724 192 l 824 903 l 900 903 l 774 0 z "},"Ň":{"ha":904,"x_min":131,"x_max":900,"o":"m 454 1154 l 497 1188 l 631 1047 l 803 1188 l 838 1151 l 649 983 l 593 983 l 454 1154 m 774 0 l 682 0 l 310 769 l 308 769 l 310 726 l 207 0 l 131 0 l 257 903 l 367 903 l 724 158 l 724 192 l 824 903 l 900 903 l 774 0 z "},"Ņ":{"ha":904,"x_min":131,"x_max":900,"o":"m 774 0 l 682 0 l 310 769 l 308 769 l 310 726 l 207 0 l 131 0 l 257 903 l 367 903 l 724 158 l 724 192 l 824 903 l 900 903 l 774 0 m 415 -75 q 451 -62 432 -62 q 483 -75 471 -62 l 489 -83 q 500 -129 500 -103 q 456 -272 500 -190 q 349 -400 411 -353 l 326 -374 q 409 -272 378 -332 q 439 -162 440 -211 q 404 -150 417 -162 q 394 -121 394 -139 q 415 -75 394 -92 z "},"Ñ":{"ha":904,"x_min":131,"x_max":900,"o":"m 826 1085 q 810 1064 826 1082 q 765 1030 793 1046 q 699 1014 736 1014 q 647 1022 671 1014 q 592 1047 622 1031 q 538 1070 558 1063 q 493 1078 517 1078 q 449 1066 469 1078 q 417 1041 429 1054 q 403 1024 406 1028 l 375 1058 q 395 1084 375 1061 q 448 1126 415 1107 q 521 1146 481 1146 q 576 1137 551 1146 q 633 1111 601 1128 q 681 1090 661 1097 q 724 1082 701 1082 q 763 1090 746 1082 q 789 1108 779 1099 q 800 1119 799 1117 l 826 1085 m 774 0 l 682 0 l 310 769 l 308 769 l 310 726 l 207 0 l 131 0 l 257 903 l 367 903 l 724 158 l 724 192 l 824 903 l 900 903 l 774 0 z "},"O":{"ha":908,"x_min":122,"x_max":913,"o":"m 913 549 q 851 250 913 378 q 685 54 789 122 q 458 -14 582 -14 q 211 86 300 -14 q 122 361 122 186 q 177 651 122 525 q 335 846 232 776 q 575 915 438 915 q 828 813 744 915 q 913 549 913 710 m 801 560 q 744 768 801 688 q 569 849 686 849 q 392 791 468 849 q 274 620 315 733 q 232 346 232 507 q 293 131 232 208 q 464 53 354 53 q 633 109 556 53 q 756 280 710 165 q 801 560 801 394 z "},"Ó":{"ha":908,"x_min":122,"x_max":913,"o":"m 751 1168 l 585 981 l 533 988 l 667 1189 l 751 1168 m 913 549 q 851 250 913 378 q 685 54 789 122 q 458 -14 582 -14 q 211 86 300 -14 q 122 361 122 186 q 177 651 122 525 q 335 846 232 776 q 575 915 438 915 q 828 813 744 915 q 913 549 913 710 m 801 560 q 744 768 801 688 q 569 849 686 849 q 392 791 468 849 q 274 620 315 733 q 232 346 232 507 q 293 131 232 208 q 464 53 354 53 q 633 109 556 53 q 756 280 710 165 q 801 560 801 394 z "},"Ô":{"ha":908,"x_min":122,"x_max":913,"o":"m 765 1061 l 733 1017 l 600 1151 l 429 1017 l 408 1061 l 582 1219 l 638 1219 l 765 1061 m 913 549 q 851 250 913 378 q 685 54 789 122 q 458 -14 582 -14 q 211 86 300 -14 q 122 361 122 186 q 177 651 122 525 q 335 846 232 776 q 575 915 438 915 q 828 813 744 915 q 913 549 913 710 m 801 560 q 744 768 801 688 q 569 849 686 849 q 392 791 468 849 q 274 620 315 733 q 232 346 232 507 q 293 131 232 208 q 464 53 354 53 q 633 109 556 53 q 756 280 710 165 q 801 560 801 394 z "},"Ố":{"ha":908,"x_min":122,"x_max":976,"o":"m 913 549 q 851 250 913 378 q 685 54 789 122 q 458 -14 582 -14 q 211 86 300 -14 q 122 361 122 186 q 177 651 122 525 q 335 846 232 776 q 575 915 438 915 q 828 813 744 915 q 913 549 913 710 m 801 560 q 744 768 801 688 q 569 849 686 849 q 392 791 468 849 q 274 620 315 733 q 232 346 232 507 q 293 131 232 208 q 464 53 354 53 q 633 109 556 53 q 756 280 710 165 q 801 560 801 394 m 774 1039 l 742 994 l 608 1129 l 438 994 l 417 1039 l 590 1197 l 646 1197 l 774 1039 m 976 1331 l 810 1143 l 758 1150 l 892 1351 l 976 1331 z "},"Ộ":{"ha":908,"x_min":122,"x_max":913,"o":"m 913 549 q 851 250 913 378 q 685 54 789 122 q 458 -14 582 -14 q 211 86 300 -14 q 122 361 122 186 q 177 651 122 525 q 335 846 232 776 q 575 915 438 915 q 828 813 744 915 q 913 549 913 710 m 801 560 q 744 768 801 688 q 569 849 686 849 q 392 791 468 849 q 274 620 315 733 q 232 346 232 507 q 293 131 232 208 q 464 53 354 53 q 633 109 556 53 q 756 280 710 165 q 801 560 801 394 m 401 -125 q 443 -110 418 -110 q 482 -125 468 -110 q 493 -158 493 -136 q 471 -210 493 -189 q 428 -225 451 -225 q 390 -210 401 -225 q 378 -176 378 -197 q 401 -125 378 -146 m 774 1039 l 742 994 l 608 1129 l 438 994 l 417 1039 l 590 1197 l 646 1197 l 774 1039 z "},"Ồ":{"ha":908,"x_min":122,"x_max":913,"o":"m 913 549 q 851 250 913 378 q 685 54 789 122 q 458 -14 582 -14 q 211 86 300 -14 q 122 361 122 186 q 177 651 122 525 q 335 846 232 776 q 575 915 438 915 q 828 813 744 915 q 913 549 913 710 m 801 560 q 744 768 801 688 q 569 849 686 849 q 392 791 468 849 q 274 620 315 733 q 232 346 232 507 q 293 131 232 208 q 464 53 354 53 q 633 109 556 53 q 756 280 710 165 q 801 560 801 394 m 774 1039 l 742 994 l 608 1129 l 438 994 l 417 1039 l 590 1197 l 646 1197 l 774 1039 m 779 1372 l 867 1174 l 808 1163 l 690 1350 l 779 1372 z "},"Ổ":{"ha":908,"x_min":122,"x_max":926,"o":"m 913 549 q 851 250 913 378 q 685 54 789 122 q 458 -14 582 -14 q 211 86 300 -14 q 122 361 122 186 q 177 651 122 525 q 335 846 232 776 q 575 915 438 915 q 828 813 744 915 q 913 549 913 710 m 801 560 q 744 768 801 688 q 569 849 686 849 q 392 791 468 849 q 274 620 315 733 q 232 346 232 507 q 293 131 232 208 q 464 53 354 53 q 633 109 556 53 q 756 280 710 165 q 801 560 801 394 m 774 1039 l 742 994 l 608 1129 l 438 994 l 417 1039 l 590 1197 l 646 1197 l 774 1039 m 775 1153 q 779 1182 775 1157 q 806 1208 781 1190 q 837 1235 825 1222 q 853 1264 849 1247 q 854 1282 854 1271 q 844 1310 854 1301 q 810 1319 833 1319 q 778 1314 793 1319 q 755 1303 764 1308 q 744 1296 746 1297 l 725 1356 q 745 1365 729 1358 q 784 1377 761 1371 q 828 1383 807 1383 q 899 1363 871 1383 q 926 1299 926 1342 q 924 1269 926 1281 q 905 1228 919 1243 q 864 1197 890 1214 q 841 1181 849 1188 q 832 1165 833 1175 l 829 1154 l 775 1153 z "},"Ỗ":{"ha":908,"x_min":122,"x_max":913,"o":"m 913 549 q 851 250 913 378 q 685 54 789 122 q 458 -14 582 -14 q 211 86 300 -14 q 122 361 122 186 q 177 651 122 525 q 335 846 232 776 q 575 915 438 915 q 828 813 744 915 q 913 549 913 710 m 801 560 q 744 768 801 688 q 569 849 686 849 q 392 791 468 849 q 274 620 315 733 q 232 346 232 507 q 293 131 232 208 q 464 53 354 53 q 633 109 556 53 q 756 280 710 165 q 801 560 801 394 m 774 1039 l 742 994 l 608 1129 l 438 994 l 417 1039 l 590 1197 l 646 1197 l 774 1039 m 865 1292 q 849 1271 865 1289 q 803 1237 832 1253 q 738 1221 775 1221 q 685 1229 710 1221 q 631 1254 661 1238 q 576 1277 597 1269 q 532 1285 556 1285 q 488 1273 508 1285 q 456 1248 468 1261 q 442 1231 444 1235 l 414 1265 q 434 1291 414 1268 q 487 1333 454 1314 q 560 1353 519 1353 q 615 1344 590 1353 q 672 1318 640 1335 q 720 1297 700 1304 q 763 1289 740 1289 q 801 1297 785 1289 q 828 1315 818 1306 q 839 1326 838 1324 l 865 1292 z "},"Ö":{"ha":908,"x_min":122,"x_max":913,"o":"m 453 1124 q 492 1138 471 1138 q 525 1124 511 1138 q 536 1092 536 1113 q 514 1042 536 1064 q 476 1028 496 1028 q 442 1042 456 1028 q 431 1074 431 1056 q 453 1124 431 1101 m 667 1124 q 704 1138 685 1138 q 739 1124 725 1138 q 750 1092 750 1110 q 728 1042 750 1064 q 689 1028 710 1028 q 656 1042 669 1028 q 644 1074 644 1056 q 667 1124 644 1101 m 913 549 q 851 250 913 378 q 685 54 789 122 q 458 -14 582 -14 q 211 86 300 -14 q 122 361 122 186 q 177 651 122 525 q 335 846 232 776 q 575 915 438 915 q 828 813 744 915 q 913 549 913 710 m 801 560 q 744 768 801 688 q 569 849 686 849 q 392 791 468 849 q 274 620 315 733 q 232 346 232 507 q 293 131 232 208 q 464 53 354 53 q 633 109 556 53 q 756 280 710 165 q 801 560 801 394 z "},"Ọ":{"ha":908,"x_min":122,"x_max":913,"o":"m 913 549 q 851 250 913 378 q 685 54 789 122 q 458 -14 582 -14 q 211 86 300 -14 q 122 361 122 186 q 177 651 122 525 q 335 846 232 776 q 575 915 438 915 q 828 813 744 915 q 913 549 913 710 m 801 560 q 744 768 801 688 q 569 849 686 849 q 392 791 468 849 q 274 620 315 733 q 232 346 232 507 q 293 131 232 208 q 464 53 354 53 q 633 109 556 53 q 756 280 710 165 q 801 560 801 394 m 401 -125 q 443 -110 418 -110 q 482 -125 468 -110 q 493 -158 493 -136 q 471 -210 493 -189 q 428 -225 451 -225 q 390 -210 401 -225 q 378 -176 378 -197 q 401 -125 378 -146 z "},"Ò":{"ha":908,"x_min":122,"x_max":913,"o":"m 538 1193 l 625 994 l 567 983 l 449 1171 l 538 1193 m 913 549 q 851 250 913 378 q 685 54 789 122 q 458 -14 582 -14 q 211 86 300 -14 q 122 361 122 186 q 177 651 122 525 q 335 846 232 776 q 575 915 438 915 q 828 813 744 915 q 913 549 913 710 m 801 560 q 744 768 801 688 q 569 849 686 849 q 392 791 468 849 q 274 620 315 733 q 232 346 232 507 q 293 131 232 208 q 464 53 354 53 q 633 109 556 53 q 756 280 710 165 q 801 560 801 394 z "},"Ỏ":{"ha":908,"x_min":122,"x_max":913,"o":"m 913 549 q 851 250 913 378 q 685 54 789 122 q 458 -14 582 -14 q 211 86 300 -14 q 122 361 122 186 q 177 651 122 525 q 335 846 232 776 q 575 915 438 915 q 828 813 744 915 q 913 549 913 710 m 801 560 q 744 768 801 688 q 569 849 686 849 q 392 791 468 849 q 274 620 315 733 q 232 346 232 507 q 293 131 232 208 q 464 53 354 53 q 633 109 556 53 q 756 280 710 165 q 801 560 801 394 m 554 967 q 558 996 554 971 q 585 1022 560 1004 q 616 1049 604 1036 q 632 1078 628 1061 q 633 1096 633 1085 q 623 1124 633 1115 q 589 1133 613 1133 q 558 1128 572 1133 q 534 1117 543 1122 q 524 1110 525 1111 l 504 1169 q 524 1178 508 1172 q 563 1191 540 1185 q 607 1197 586 1197 q 678 1176 650 1197 q 706 1113 706 1156 q 703 1083 706 1094 q 684 1042 699 1057 q 643 1011 669 1028 q 620 995 628 1001 q 611 979 613 989 l 608 968 l 554 967 z "},"Ơ":{"ha":908,"x_min":122,"x_max":913,"o":"m 760 869 q 875 740 838 825 q 913 549 913 656 q 851 250 913 378 q 685 54 789 122 q 458 -14 582 -14 q 211 86 300 -14 q 122 361 122 186 q 177 651 122 525 q 335 846 232 776 q 575 915 438 915 q 679 903 632 915 q 751 935 722 906 q 793 1026 781 964 l 879 1026 q 837 931 868 971 q 760 869 806 892 m 464 53 q 633 109 556 53 q 756 280 710 165 q 801 560 801 394 q 744 768 801 688 q 569 849 686 849 q 392 791 468 849 q 274 620 315 733 q 232 346 232 507 q 293 131 232 208 q 464 53 354 53 z "},"Ớ":{"ha":908,"x_min":122,"x_max":913,"o":"m 760 869 q 875 740 838 825 q 913 549 913 656 q 851 250 913 378 q 685 54 789 122 q 458 -14 582 -14 q 211 86 300 -14 q 122 361 122 186 q 177 651 122 525 q 335 846 232 776 q 575 915 438 915 q 679 903 632 915 q 751 935 722 906 q 793 1026 781 964 l 879 1026 q 837 931 868 971 q 760 869 806 892 m 464 53 q 633 109 556 53 q 756 280 710 165 q 801 560 801 394 q 744 768 801 688 q 569 849 686 849 q 392 791 468 849 q 274 620 315 733 q 232 346 232 507 q 293 131 232 208 q 464 53 354 53 m 711 1189 l 544 1001 l 493 1008 l 626 1210 l 711 1189 z "},"Ợ":{"ha":908,"x_min":122,"x_max":913,"o":"m 760 869 q 875 740 838 825 q 913 549 913 656 q 851 250 913 378 q 685 54 789 122 q 458 -14 582 -14 q 211 86 300 -14 q 122 361 122 186 q 177 651 122 525 q 335 846 232 776 q 575 915 438 915 q 679 903 632 915 q 751 935 722 906 q 793 1026 781 964 l 879 1026 q 837 931 868 971 q 760 869 806 892 m 464 53 q 633 109 556 53 q 756 280 710 165 q 801 560 801 394 q 744 768 801 688 q 569 849 686 849 q 392 791 468 849 q 274 620 315 733 q 232 346 232 507 q 293 131 232 208 q 464 53 354 53 m 401 -125 q 443 -110 418 -110 q 482 -125 468 -110 q 493 -158 493 -136 q 471 -210 493 -189 q 428 -225 451 -225 q 390 -210 401 -225 q 378 -176 378 -197 q 401 -125 378 -146 z "},"Ờ":{"ha":908,"x_min":122,"x_max":913,"o":"m 760 869 q 875 740 838 825 q 913 549 913 656 q 851 250 913 378 q 685 54 789 122 q 458 -14 582 -14 q 211 86 300 -14 q 122 361 122 186 q 177 651 122 525 q 335 846 232 776 q 575 915 438 915 q 679 903 632 915 q 751 935 722 906 q 793 1026 781 964 l 879 1026 q 837 931 868 971 q 760 869 806 892 m 464 53 q 633 109 556 53 q 756 280 710 165 q 801 560 801 394 q 744 768 801 688 q 569 849 686 849 q 392 791 468 849 q 274 620 315 733 q 232 346 232 507 q 293 131 232 208 q 464 53 354 53 m 603 1214 l 690 1015 l 632 1004 l 514 1192 l 603 1214 z "},"Ở":{"ha":908,"x_min":122,"x_max":913,"o":"m 760 869 q 875 740 838 825 q 913 549 913 656 q 851 250 913 378 q 685 54 789 122 q 458 -14 582 -14 q 211 86 300 -14 q 122 361 122 186 q 177 651 122 525 q 335 846 232 776 q 575 915 438 915 q 679 903 632 915 q 751 935 722 906 q 793 1026 781 964 l 879 1026 q 837 931 868 971 q 760 869 806 892 m 464 53 q 633 109 556 53 q 756 280 710 165 q 801 560 801 394 q 744 768 801 688 q 569 849 686 849 q 392 791 468 849 q 274 620 315 733 q 232 346 232 507 q 293 131 232 208 q 464 53 354 53 m 554 967 q 558 996 554 971 q 585 1022 560 1004 q 616 1049 604 1036 q 632 1078 628 1061 q 633 1096 633 1085 q 623 1124 633 1115 q 589 1133 613 1133 q 558 1128 572 1133 q 534 1117 543 1122 q 524 1110 525 1111 l 504 1169 q 524 1178 508 1172 q 563 1191 540 1185 q 607 1197 586 1197 q 678 1176 650 1197 q 706 1113 706 1156 q 703 1083 706 1094 q 684 1042 699 1057 q 643 1011 669 1028 q 620 995 628 1001 q 611 979 613 989 l 608 968 l 554 967 z "},"Ỡ":{"ha":908,"x_min":122,"x_max":913,"o":"m 760 869 q 875 740 838 825 q 913 549 913 656 q 851 250 913 378 q 685 54 789 122 q 458 -14 582 -14 q 211 86 300 -14 q 122 361 122 186 q 177 651 122 525 q 335 846 232 776 q 575 915 438 915 q 679 903 632 915 q 751 935 722 906 q 793 1026 781 964 l 879 1026 q 837 931 868 971 q 760 869 806 892 m 464 53 q 633 109 556 53 q 756 280 710 165 q 801 560 801 394 q 744 768 801 688 q 569 849 686 849 q 392 791 468 849 q 274 620 315 733 q 232 346 232 507 q 293 131 232 208 q 464 53 354 53 m 826 1106 q 810 1085 826 1103 q 765 1051 793 1067 q 699 1035 736 1035 q 647 1043 671 1035 q 592 1068 622 1051 q 538 1091 558 1083 q 493 1099 517 1099 q 449 1087 469 1099 q 417 1062 429 1075 q 403 1044 406 1049 l 375 1079 q 395 1105 375 1082 q 448 1147 415 1128 q 521 1167 481 1167 q 576 1158 551 1167 q 633 1132 601 1149 q 681 1110 661 1118 q 724 1103 701 1103 q 763 1111 746 1103 q 789 1128 779 1119 q 800 1140 799 1138 l 826 1106 z "},"Ő":{"ha":908,"x_min":122,"x_max":913,"o":"m 538 1185 l 607 1167 l 493 988 l 450 1007 l 538 1185 m 717 1185 l 786 1167 l 672 988 l 629 1007 l 717 1185 m 913 549 q 851 250 913 378 q 685 54 789 122 q 458 -14 582 -14 q 211 86 300 -14 q 122 361 122 186 q 177 651 122 525 q 335 846 232 776 q 575 915 438 915 q 828 813 744 915 q 913 549 913 710 m 801 560 q 744 768 801 688 q 569 849 686 849 q 392 791 468 849 q 274 620 315 733 q 232 346 232 507 q 293 131 232 208 q 464 53 354 53 q 633 109 556 53 q 756 280 710 165 q 801 560 801 394 z "},"Ō":{"ha":908,"x_min":122,"x_max":913,"o":"m 719 1071 l 463 1071 l 469 1121 l 726 1121 l 719 1071 m 913 549 q 851 250 913 378 q 685 54 789 122 q 458 -14 582 -14 q 211 86 300 -14 q 122 361 122 186 q 177 651 122 525 q 335 846 232 776 q 575 915 438 915 q 828 813 744 915 q 913 549 913 710 m 801 560 q 744 768 801 688 q 569 849 686 849 q 392 791 468 849 q 274 620 315 733 q 232 346 232 507 q 293 131 232 208 q 464 53 354 53 q 633 109 556 53 q 756 280 710 165 q 801 560 801 394 z "},"Ø":{"ha":908,"x_min":122,"x_max":913,"o":"m 913 549 q 851 250 913 378 q 685 54 789 122 q 458 -14 582 -14 q 318 11 379 -14 l 236 -140 l 200 -132 l 285 26 q 165 156 207 69 q 122 361 122 242 q 177 651 122 525 q 335 846 232 776 q 575 915 438 915 q 746 878 671 915 l 818 1011 l 854 1003 l 776 860 q 878 731 844 813 q 913 549 913 650 m 232 346 q 256 198 232 261 q 324 99 279 135 l 707 806 q 569 849 650 849 q 392 791 468 849 q 274 620 315 733 q 232 346 232 507 m 801 560 q 733 781 801 703 l 354 78 q 464 53 400 53 q 633 109 556 53 q 756 280 710 165 q 801 560 801 394 z "},"Õ":{"ha":908,"x_min":122,"x_max":913,"o":"m 819 1085 q 803 1064 819 1082 q 758 1030 786 1046 q 692 1014 729 1014 q 640 1022 664 1014 q 585 1047 615 1031 q 531 1070 551 1063 q 486 1078 510 1078 q 442 1066 463 1078 q 410 1041 422 1054 q 396 1024 399 1028 l 368 1058 q 388 1084 368 1061 q 441 1126 408 1107 q 514 1146 474 1146 q 569 1137 544 1146 q 626 1111 594 1128 q 674 1090 654 1097 q 717 1082 694 1082 q 756 1090 739 1082 q 782 1108 772 1099 q 793 1119 792 1117 l 819 1085 m 913 549 q 851 250 913 378 q 685 54 789 122 q 458 -14 582 -14 q 211 86 300 -14 q 122 361 122 186 q 177 651 122 525 q 335 846 232 776 q 575 915 438 915 q 828 813 744 915 q 913 549 913 710 m 801 560 q 744 768 801 688 q 569 849 686 849 q 392 791 468 849 q 274 620 315 733 q 232 346 232 507 q 293 131 232 208 q 464 53 354 53 q 633 109 556 53 q 756 280 710 165 q 801 560 801 394 z "},"Œ":{"ha":1306,"x_min":122,"x_max":1346,"o":"m 732 0 l 746 103 q 613 16 686 46 q 458 -14 539 -14 q 211 86 300 -14 q 122 361 122 186 q 177 651 122 525 q 335 846 232 776 q 575 915 438 915 q 843 793 754 915 l 858 903 l 1346 903 l 1338 836 l 954 836 l 913 536 q 910 489 913 519 l 1256 489 l 1246 425 l 903 425 q 886 344 896 381 l 847 67 l 1260 67 l 1250 0 l 732 0 m 801 560 q 744 768 801 688 q 569 849 686 849 q 392 791 468 849 q 274 620 315 733 q 232 346 232 507 q 293 131 232 208 q 464 53 354 53 q 668 141 579 53 q 788 396 757 229 l 796 457 l 796 464 q 801 560 801 525 z "},"P":{"ha":689,"x_min":131,"x_max":732,"o":"m 474 903 q 665 844 597 903 q 732 668 732 785 q 683 466 732 544 q 556 352 633 388 q 394 317 479 317 l 281 317 l 236 0 l 131 0 l 257 903 l 474 903 m 289 375 l 388 375 q 555 445 489 375 q 621 669 621 515 q 578 799 621 756 q 454 842 535 842 l 353 842 l 289 375 z "},"Þ":{"ha":714,"x_min":147,"x_max":729,"o":"m 474 751 q 663 692 596 751 q 729 514 729 632 q 679 306 729 388 q 552 188 629 225 q 390 151 475 151 l 272 151 l 251 0 l 147 0 l 274 903 l 378 903 l 357 751 l 474 751 m 282 214 l 390 214 q 558 284 492 214 q 624 513 624 354 q 581 644 624 601 q 458 688 539 688 l 347 688 l 282 214 z "},"Q":{"ha":908,"x_min":122,"x_max":913,"o":"m 913 549 q 861 273 913 393 q 722 81 810 153 q 524 -8 633 8 q 607 -119 560 -76 q 708 -161 654 -161 q 758 -151 733 -161 l 757 -207 q 681 -221 721 -221 q 526 -163 597 -221 q 419 -12 456 -106 q 200 98 278 0 q 122 361 122 196 q 177 651 122 525 q 335 846 232 776 q 575 915 438 915 q 828 813 744 915 q 913 549 913 710 m 801 560 q 744 768 801 688 q 569 849 686 849 q 392 791 468 849 q 274 620 315 733 q 232 346 232 507 q 293 131 232 208 q 464 53 354 53 q 633 109 556 53 q 756 280 710 165 q 801 560 801 394 z "},"R":{"ha":749,"x_min":131,"x_max":735,"o":"m 475 903 q 667 844 599 903 q 735 674 735 785 q 676 467 735 547 q 525 354 617 386 l 701 0 l 581 0 l 419 335 l 283 335 l 236 0 l 131 0 l 257 903 l 475 903 m 292 397 l 404 397 q 622 675 622 397 q 579 799 622 757 q 454 842 536 842 l 354 842 l 292 397 z "},"Ŕ":{"ha":749,"x_min":131,"x_max":735,"o":"m 653 1168 l 486 981 l 435 988 l 568 1189 l 653 1168 m 475 903 q 667 844 599 903 q 735 674 735 785 q 676 467 735 547 q 525 354 617 386 l 701 0 l 581 0 l 419 335 l 283 335 l 236 0 l 131 0 l 257 903 l 475 903 m 292 397 l 404 397 q 622 675 622 397 q 579 799 622 757 q 454 842 536 842 l 354 842 l 292 397 z "},"Ř":{"ha":749,"x_min":131,"x_max":735,"o":"m 319 1154 l 363 1188 l 496 1047 l 668 1188 l 703 1151 l 514 983 l 458 983 l 319 1154 m 475 903 q 667 844 599 903 q 735 674 735 785 q 676 467 735 547 q 525 354 617 386 l 701 0 l 581 0 l 419 335 l 283 335 l 236 0 l 131 0 l 257 903 l 475 903 m 292 397 l 404 397 q 622 675 622 397 q 579 799 622 757 q 454 842 536 842 l 354 842 l 292 397 z "},"Ŗ":{"ha":749,"x_min":131,"x_max":735,"o":"m 475 903 q 667 844 599 903 q 735 674 735 785 q 676 467 735 547 q 525 354 617 386 l 701 0 l 581 0 l 419 335 l 283 335 l 236 0 l 131 0 l 257 903 l 475 903 m 292 397 l 404 397 q 622 675 622 397 q 579 799 622 757 q 454 842 536 842 l 354 842 l 292 397 m 344 -75 q 381 -62 361 -62 q 413 -75 400 -62 l 418 -83 q 429 -129 429 -103 q 385 -272 429 -190 q 278 -400 340 -353 l 256 -374 q 338 -272 307 -332 q 368 -162 369 -211 q 333 -150 346 -162 q 324 -121 324 -139 q 344 -75 324 -92 z "},"S":{"ha":681,"x_min":79,"x_max":697,"o":"m 676 776 q 651 799 676 779 q 586 835 626 818 q 493 851 546 851 q 353 806 406 851 q 301 679 301 760 q 323 605 301 636 q 376 552 344 574 q 463 503 407 531 q 563 443 525 469 q 628 374 601 417 q 654 271 654 332 q 613 123 654 188 q 500 22 572 58 q 336 -14 428 -14 q 190 14 247 -14 q 106 74 132 42 q 79 113 79 106 l 121 167 q 143 133 121 161 q 213 79 165 104 q 332 54 260 54 q 488 108 432 54 q 544 243 544 163 q 523 317 544 286 q 470 370 501 349 q 383 419 439 392 q 285 477 322 451 q 221 544 247 503 q 194 646 194 586 q 278 843 194 771 q 496 915 361 915 q 601 898 557 915 q 672 860 646 881 q 697 838 697 840 l 676 776 z "},"Ś":{"ha":681,"x_min":79,"x_max":697,"o":"m 669 1168 l 503 981 l 451 988 l 585 1189 l 669 1168 m 676 776 q 651 799 676 779 q 586 835 626 818 q 493 851 546 851 q 353 806 406 851 q 301 679 301 760 q 323 605 301 636 q 376 552 344 574 q 463 503 407 531 q 563 443 525 469 q 628 374 601 417 q 654 271 654 332 q 613 123 654 188 q 500 22 572 58 q 336 -14 428 -14 q 190 14 247 -14 q 106 74 132 42 q 79 113 79 106 l 121 167 q 143 133 121 161 q 213 79 165 104 q 332 54 260 54 q 488 108 432 54 q 544 243 544 163 q 523 317 544 286 q 470 370 501 349 q 383 419 439 392 q 285 477 322 451 q 221 544 247 503 q 194 646 194 586 q 278 843 194 771 q 496 915 361 915 q 601 898 557 915 q 672 860 646 881 q 697 838 697 840 l 676 776 z "},"Š":{"ha":681,"x_min":79,"x_max":714,"o":"m 331 1154 l 374 1188 l 507 1047 l 679 1188 l 714 1151 l 525 983 l 469 983 l 331 1154 m 676 776 q 651 799 676 779 q 586 835 626 818 q 493 851 546 851 q 353 806 406 851 q 301 679 301 760 q 323 605 301 636 q 376 552 344 574 q 463 503 407 531 q 563 443 525 469 q 628 374 601 417 q 654 271 654 332 q 613 123 654 188 q 500 22 572 58 q 336 -14 428 -14 q 190 14 247 -14 q 106 74 132 42 q 79 113 79 106 l 121 167 q 143 133 121 161 q 213 79 165 104 q 332 54 260 54 q 488 108 432 54 q 544 243 544 163 q 523 317 544 286 q 470 370 501 349 q 383 419 439 392 q 285 477 322 451 q 221 544 247 503 q 194 646 194 586 q 278 843 194 771 q 496 915 361 915 q 601 898 557 915 q 672 860 646 881 q 697 838 697 840 l 676 776 z "},"Ş":{"ha":681,"x_min":79,"x_max":697,"o":"m 676 776 q 651 799 676 779 q 586 835 626 818 q 493 851 546 851 q 353 806 406 851 q 301 679 301 760 q 323 605 301 636 q 376 552 344 574 q 463 503 407 531 q 563 443 525 469 q 628 374 601 417 q 654 271 654 332 q 616 127 654 190 q 510 27 578 64 q 356 -14 443 -10 l 335 -96 q 367 -106 335 -97 q 426 -137 399 -114 q 453 -201 453 -160 q 410 -308 453 -267 q 289 -349 368 -349 q 221 -335 247 -349 q 182 -308 194 -322 q 169 -290 169 -293 l 197 -262 q 208 -276 199 -265 q 237 -297 218 -287 q 283 -307 256 -307 q 363 -280 336 -307 q 390 -203 390 -253 q 364 -153 390 -167 q 311 -134 338 -139 q 285 -128 285 -129 l 315 -14 q 181 18 233 -10 q 103 76 128 46 q 79 113 79 107 l 121 167 q 143 133 121 161 q 213 79 165 104 q 332 54 260 54 q 488 108 432 54 q 544 243 544 163 q 523 317 544 286 q 470 370 501 349 q 383 419 439 392 q 285 477 322 451 q 221 544 247 503 q 194 646 194 586 q 278 843 194 771 q 496 915 361 915 q 601 898 557 915 q 672 860 646 881 q 697 838 697 840 l 676 776 z "},"ẞ":{"ha":881,"x_min":126,"x_max":856,"o":"m 717 835 l 567 835 q 314 589 349 835 l 232 0 l 126 0 l 211 608 q 322 825 232 747 q 564 903 411 903 l 821 903 l 815 858 l 594 508 q 653 518 624 518 q 802 463 749 518 q 856 313 856 408 q 813 140 856 214 q 696 26 771 65 q 528 -14 621 -14 q 423 -2 464 -14 q 363 24 382 10 q 343 40 343 38 l 376 101 q 392 88 376 99 q 440 66 408 76 q 521 56 472 56 q 689 126 626 56 q 751 318 751 197 q 720 422 751 385 q 625 460 689 460 q 584 452 603 460 q 555 437 565 444 q 542 426 544 429 l 497 474 l 717 835 z "},"T":{"ha":640,"x_min":128,"x_max":758,"o":"m 749 836 l 490 836 l 372 0 l 267 0 l 385 836 l 128 836 l 138 903 l 758 903 l 749 836 z "},"Ť":{"ha":640,"x_min":128,"x_max":758,"o":"m 288 1154 l 331 1188 l 464 1047 l 636 1188 l 671 1151 l 482 983 l 426 983 l 288 1154 m 749 836 l 490 836 l 372 0 l 267 0 l 385 836 l 128 836 l 138 903 l 758 903 l 749 836 z "},"Ț":{"ha":640,"x_min":128,"x_max":758,"o":"m 749 836 l 490 836 l 372 0 l 267 0 l 385 836 l 128 836 l 138 903 l 758 903 l 749 836 m 286 -75 q 322 -62 303 -62 q 354 -75 342 -62 l 360 -83 q 371 -129 371 -103 q 326 -272 371 -190 q 219 -400 282 -353 l 197 -374 q 280 -272 249 -332 q 310 -162 311 -211 q 275 -150 288 -162 q 265 -121 265 -139 q 286 -75 265 -92 z "},"U":{"ha":861,"x_min":156,"x_max":868,"o":"m 428 -14 q 224 52 293 -14 q 156 235 156 118 q 160 294 156 264 l 246 903 l 350 903 l 268 318 q 264 256 264 285 q 311 108 264 158 q 450 57 358 57 q 626 126 560 57 q 710 318 693 194 l 792 903 l 868 903 l 782 294 q 674 69 763 153 q 428 -14 585 -14 z "},"Ú":{"ha":861,"x_min":156,"x_max":868,"o":"m 725 1168 l 558 981 l 507 988 l 640 1189 l 725 1168 m 428 -14 q 224 52 293 -14 q 156 235 156 118 q 160 294 156 264 l 246 903 l 350 903 l 268 318 q 264 256 264 285 q 311 108 264 158 q 450 57 358 57 q 626 126 560 57 q 710 318 693 194 l 792 903 l 868 903 l 782 294 q 674 69 763 153 q 428 -14 585 -14 z "},"Û":{"ha":861,"x_min":156,"x_max":868,"o":"m 756 1061 l 724 1017 l 590 1151 l 419 1017 l 399 1061 l 572 1219 l 628 1219 l 756 1061 m 428 -14 q 224 52 293 -14 q 156 235 156 118 q 160 294 156 264 l 246 903 l 350 903 l 268 318 q 264 256 264 285 q 311 108 264 158 q 450 57 358 57 q 626 126 560 57 q 710 318 693 194 l 792 903 l 868 903 l 782 294 q 674 69 763 153 q 428 -14 585 -14 z "},"Ü":{"ha":861,"x_min":156,"x_max":868,"o":"m 446 1124 q 483 1138 464 1138 q 518 1124 504 1138 q 529 1092 529 1113 q 507 1042 529 1064 q 469 1028 489 1028 q 435 1042 449 1028 q 424 1074 424 1056 q 446 1124 424 1101 m 660 1124 q 697 1138 678 1138 q 732 1124 718 1138 q 743 1092 743 1110 q 721 1042 743 1064 q 682 1028 703 1028 q 649 1042 663 1028 q 638 1074 638 1056 q 660 1124 638 1101 m 428 -14 q 224 52 293 -14 q 156 235 156 118 q 160 294 156 264 l 246 903 l 350 903 l 268 318 q 264 256 264 285 q 311 108 264 158 q 450 57 358 57 q 626 126 560 57 q 710 318 693 194 l 792 903 l 868 903 l 782 294 q 674 69 763 153 q 428 -14 585 -14 z "},"Ụ":{"ha":861,"x_min":156,"x_max":868,"o":"m 428 -14 q 224 52 293 -14 q 156 235 156 118 q 160 294 156 264 l 246 903 l 350 903 l 268 318 q 264 256 264 285 q 311 108 264 158 q 450 57 358 57 q 626 126 560 57 q 710 318 693 194 l 792 903 l 868 903 l 782 294 q 674 69 763 153 q 428 -14 585 -14 m 374 -125 q 415 -110 390 -110 q 454 -125 440 -110 q 465 -158 465 -136 q 443 -210 465 -189 q 400 -225 424 -225 q 363 -210 374 -225 q 350 -176 350 -197 q 374 -125 350 -146 z "},"Ù":{"ha":861,"x_min":156,"x_max":868,"o":"m 538 1193 l 625 994 l 567 983 l 449 1171 l 538 1193 m 428 -14 q 224 52 293 -14 q 156 235 156 118 q 160 294 156 264 l 246 903 l 350 903 l 268 318 q 264 256 264 285 q 311 108 264 158 q 450 57 358 57 q 626 126 560 57 q 710 318 693 194 l 792 903 l 868 903 l 782 294 q 674 69 763 153 q 428 -14 585 -14 z "},"Ủ":{"ha":861,"x_min":156,"x_max":868,"o":"m 428 -14 q 224 52 293 -14 q 156 235 156 118 q 160 294 156 264 l 246 903 l 350 903 l 268 318 q 264 256 264 285 q 311 108 264 158 q 450 57 358 57 q 626 126 560 57 q 710 318 693 194 l 792 903 l 868 903 l 782 294 q 674 69 763 153 q 428 -14 585 -14 m 557 967 q 561 996 557 971 q 588 1022 563 1004 q 619 1049 607 1036 q 635 1078 631 1061 q 636 1096 636 1085 q 626 1124 636 1115 q 592 1133 615 1133 q 560 1128 575 1133 q 537 1117 546 1122 q 526 1110 528 1111 l 507 1169 q 527 1178 511 1172 q 566 1191 543 1185 q 610 1197 589 1197 q 681 1176 653 1197 q 708 1113 708 1156 q 706 1083 708 1094 q 687 1042 701 1057 q 646 1011 672 1028 q 623 995 631 1001 q 614 979 615 989 l 611 968 l 557 967 z "},"Ư":{"ha":861,"x_min":156,"x_max":1040,"o":"m 1040 1026 q 976 907 1025 951 q 861 850 928 863 l 782 294 q 674 69 763 153 q 428 -14 585 -14 q 224 52 293 -14 q 156 235 156 118 q 160 294 156 264 l 246 903 l 350 903 l 268 318 q 264 256 264 285 q 311 108 264 158 q 450 57 358 57 q 626 126 560 57 q 710 318 693 194 l 792 903 l 831 903 q 909 932 878 903 q 954 1026 940 961 l 1040 1026 z "},"Ứ":{"ha":861,"x_min":156,"x_max":1040,"o":"m 1040 1026 q 976 907 1025 951 q 861 850 928 863 l 782 294 q 674 69 763 153 q 428 -14 585 -14 q 224 52 293 -14 q 156 235 156 118 q 160 294 156 264 l 246 903 l 350 903 l 268 318 q 264 256 264 285 q 311 108 264 158 q 450 57 358 57 q 626 126 560 57 q 710 318 693 194 l 792 903 l 831 903 q 909 932 878 903 q 954 1026 940 961 l 1040 1026 m 714 1189 l 547 1001 l 496 1008 l 629 1210 l 714 1189 z "},"Ự":{"ha":861,"x_min":156,"x_max":1040,"o":"m 1040 1026 q 976 907 1025 951 q 861 850 928 863 l 782 294 q 674 69 763 153 q 428 -14 585 -14 q 224 52 293 -14 q 156 235 156 118 q 160 294 156 264 l 246 903 l 350 903 l 268 318 q 264 256 264 285 q 311 108 264 158 q 450 57 358 57 q 626 126 560 57 q 710 318 693 194 l 792 903 l 831 903 q 909 932 878 903 q 954 1026 940 961 l 1040 1026 m 374 -125 q 415 -110 390 -110 q 454 -125 440 -110 q 465 -158 465 -136 q 443 -210 465 -189 q 400 -225 424 -225 q 363 -210 374 -225 q 350 -176 350 -197 q 374 -125 350 -146 z "},"Ừ":{"ha":861,"x_min":156,"x_max":1040,"o":"m 1040 1026 q 976 907 1025 951 q 861 850 928 863 l 782 294 q 674 69 763 153 q 428 -14 585 -14 q 224 52 293 -14 q 156 235 156 118 q 160 294 156 264 l 246 903 l 350 903 l 268 318 q 264 256 264 285 q 311 108 264 158 q 450 57 358 57 q 626 126 560 57 q 710 318 693 194 l 792 903 l 831 903 q 909 932 878 903 q 954 1026 940 961 l 1040 1026 m 606 1214 l 693 1015 l 635 1004 l 517 1192 l 606 1214 z "},"Ử":{"ha":861,"x_min":156,"x_max":1040,"o":"m 1040 1026 q 976 907 1025 951 q 861 850 928 863 l 782 294 q 674 69 763 153 q 428 -14 585 -14 q 224 52 293 -14 q 156 235 156 118 q 160 294 156 264 l 246 903 l 350 903 l 268 318 q 264 256 264 285 q 311 108 264 158 q 450 57 358 57 q 626 126 560 57 q 710 318 693 194 l 792 903 l 831 903 q 909 932 878 903 q 954 1026 940 961 l 1040 1026 m 557 967 q 561 996 557 971 q 588 1022 563 1004 q 619 1049 607 1036 q 635 1078 631 1061 q 636 1096 636 1085 q 626 1124 636 1115 q 592 1133 615 1133 q 560 1128 575 1133 q 537 1117 546 1122 q 526 1110 528 1111 l 507 1169 q 527 1178 511 1172 q 566 1191 543 1185 q 610 1197 589 1197 q 681 1176 653 1197 q 708 1113 708 1156 q 706 1083 708 1094 q 687 1042 701 1057 q 646 1011 672 1028 q 623 995 631 1001 q 614 979 615 989 l 611 968 l 557 967 z "},"Ữ":{"ha":861,"x_min":156,"x_max":1040,"o":"m 1040 1026 q 976 907 1025 951 q 861 850 928 863 l 782 294 q 674 69 763 153 q 428 -14 585 -14 q 224 52 293 -14 q 156 235 156 118 q 160 294 156 264 l 246 903 l 350 903 l 268 318 q 264 256 264 285 q 311 108 264 158 q 450 57 358 57 q 626 126 560 57 q 710 318 693 194 l 792 903 l 831 903 q 909 932 878 903 q 954 1026 940 961 l 1040 1026 m 829 1106 q 813 1085 829 1103 q 767 1051 796 1067 q 701 1035 739 1035 q 649 1043 674 1035 q 594 1068 625 1051 q 540 1091 561 1083 q 496 1099 519 1099 q 452 1087 472 1099 q 420 1062 432 1075 q 406 1044 408 1049 l 378 1079 q 398 1105 378 1082 q 451 1147 418 1128 q 524 1167 483 1167 q 579 1158 554 1167 q 636 1132 604 1149 q 684 1110 664 1118 q 726 1103 704 1103 q 765 1111 749 1103 q 792 1128 782 1119 q 803 1140 801 1138 l 829 1106 z "},"Ű":{"ha":861,"x_min":156,"x_max":868,"o":"m 517 1185 l 586 1167 l 472 988 l 429 1007 l 517 1185 m 696 1185 l 765 1167 l 651 988 l 608 1007 l 696 1185 m 428 -14 q 224 52 293 -14 q 156 235 156 118 q 160 294 156 264 l 246 903 l 350 903 l 268 318 q 264 256 264 285 q 311 108 264 158 q 450 57 358 57 q 626 126 560 57 q 710 318 693 194 l 792 903 l 868 903 l 782 294 q 674 69 763 153 q 428 -14 585 -14 z "},"Ū":{"ha":861,"x_min":156,"x_max":868,"o":"m 708 1071 l 451 1071 l 458 1121 l 715 1121 l 708 1071 m 428 -14 q 224 52 293 -14 q 156 235 156 118 q 160 294 156 264 l 246 903 l 350 903 l 268 318 q 264 256 264 285 q 311 108 264 158 q 450 57 358 57 q 626 126 560 57 q 710 318 693 194 l 792 903 l 868 903 l 782 294 q 674 69 763 153 q 428 -14 585 -14 z "},"Ų":{"ha":861,"x_min":156,"x_max":868,"o":"m 428 -14 q 224 52 293 -14 q 156 235 156 118 q 160 294 156 264 l 246 903 l 350 903 l 268 318 q 264 256 264 285 q 311 108 264 158 q 450 57 358 57 q 626 126 560 57 q 710 318 693 194 l 792 903 l 868 903 l 782 294 q 702 99 765 178 q 529 -3 639 21 q 438 -83 481 -32 q 394 -211 394 -135 q 431 -283 394 -264 q 528 -303 468 -303 l 521 -347 q 380 -319 435 -347 q 325 -217 325 -292 q 456 -12 325 -106 q 428 -14 447 -14 z "},"Ů":{"ha":861,"x_min":156,"x_max":868,"o":"m 701 1101 q 661 992 701 1032 q 560 953 621 953 q 481 981 510 953 q 451 1061 451 1008 q 492 1172 451 1132 q 594 1213 533 1213 q 672 1183 642 1213 q 701 1101 701 1154 m 663 1099 q 642 1156 663 1136 q 590 1175 622 1175 q 519 1147 547 1175 q 492 1065 492 1119 q 512 1008 492 1028 q 565 989 532 989 q 635 1017 608 989 q 663 1099 663 1044 m 428 -14 q 224 52 293 -14 q 156 235 156 118 q 160 294 156 264 l 246 903 l 350 903 l 268 318 q 264 256 264 285 q 311 108 264 158 q 450 57 358 57 q 626 126 560 57 q 710 318 693 194 l 792 903 l 868 903 l 782 294 q 674 69 763 153 q 428 -14 585 -14 z "},"Ũ":{"ha":861,"x_min":156,"x_max":868,"o":"m 428 -14 q 224 52 293 -14 q 156 235 156 118 q 160 294 156 264 l 246 903 l 350 903 l 268 318 q 264 256 264 285 q 311 108 264 158 q 450 57 358 57 q 626 126 560 57 q 710 318 693 194 l 792 903 l 868 903 l 782 294 q 674 69 763 153 q 428 -14 585 -14 m 829 1106 q 813 1085 829 1103 q 767 1051 796 1067 q 701 1035 739 1035 q 649 1043 674 1035 q 594 1068 625 1051 q 540 1091 561 1083 q 496 1099 519 1099 q 452 1087 472 1099 q 420 1062 432 1075 q 406 1044 408 1049 l 378 1079 q 398 1105 378 1082 q 451 1147 418 1128 q 524 1167 483 1167 q 579 1158 554 1167 q 636 1132 604 1149 q 684 1110 664 1118 q 726 1103 704 1103 q 765 1111 749 1103 q 792 1128 782 1119 q 803 1140 801 1138 l 829 1106 z "},"V":{"ha":761,"x_min":147,"x_max":864,"o":"m 315 0 l 147 903 l 257 903 l 404 78 l 786 903 l 864 903 l 438 0 l 315 0 z "},"W":{"ha":1178,"x_min":147,"x_max":1281,"o":"m 1281 903 l 911 0 l 814 0 l 697 772 l 367 0 l 269 0 l 147 903 l 258 903 l 354 121 l 685 903 l 778 903 l 893 125 l 1203 903 l 1281 903 z "},"X":{"ha":751,"x_min":25,"x_max":835,"o":"m 376 447 l 163 903 l 290 903 l 460 525 l 461 525 l 747 903 l 835 903 l 497 465 l 726 0 l 597 0 l 415 388 l 414 388 l 118 0 l 25 0 l 376 447 z "},"Y":{"ha":704,"x_min":129,"x_max":828,"o":"m 247 903 l 433 458 l 743 903 l 828 903 l 458 379 l 407 0 l 301 0 l 353 374 l 129 903 l 247 903 z "},"Ý":{"ha":704,"x_min":129,"x_max":828,"o":"m 674 1168 l 507 981 l 456 988 l 589 1189 l 674 1168 m 247 903 l 433 458 l 743 903 l 828 903 l 458 379 l 407 0 l 301 0 l 353 374 l 129 903 l 247 903 z "},"Ÿ":{"ha":704,"x_min":129,"x_max":828,"o":"m 368 1124 q 406 1138 386 1138 q 440 1124 426 1138 q 451 1092 451 1113 q 429 1042 451 1064 q 392 1028 411 1028 q 357 1042 371 1028 q 346 1074 346 1056 q 368 1124 346 1101 m 582 1124 q 619 1138 600 1138 q 654 1124 640 1138 q 665 1092 665 1110 q 643 1042 665 1064 q 604 1028 625 1028 q 571 1042 585 1028 q 560 1074 560 1056 q 582 1124 560 1101 m 247 903 l 433 458 l 743 903 l 828 903 l 458 379 l 407 0 l 301 0 l 353 374 l 129 903 l 247 903 z "},"Ỵ":{"ha":704,"x_min":129,"x_max":828,"o":"m 247 903 l 433 458 l 743 903 l 828 903 l 458 379 l 407 0 l 301 0 l 353 374 l 129 903 l 247 903 m 292 -125 q 333 -110 308 -110 q 372 -125 358 -110 q 383 -158 383 -136 q 361 -210 383 -189 q 318 -225 342 -225 q 281 -210 292 -225 q 268 -176 268 -197 q 292 -125 268 -146 z "},"Ỳ":{"ha":704,"x_min":129,"x_max":828,"o":"m 247 903 l 433 458 l 743 903 l 828 903 l 458 379 l 407 0 l 301 0 l 353 374 l 129 903 l 247 903 m 519 1214 l 607 1015 l 549 1004 l 431 1192 l 519 1214 z "},"Ỷ":{"ha":704,"x_min":129,"x_max":828,"o":"m 247 903 l 433 458 l 743 903 l 828 903 l 458 379 l 407 0 l 301 0 l 353 374 l 129 903 l 247 903 m 471 967 q 475 996 471 971 q 501 1022 476 1004 q 533 1049 521 1036 q 549 1078 544 1061 q 550 1096 550 1085 q 540 1124 550 1115 q 506 1133 529 1133 q 474 1128 489 1133 q 451 1117 460 1122 q 440 1110 442 1111 l 421 1169 q 441 1178 425 1172 q 480 1191 457 1185 q 524 1197 503 1197 q 594 1176 567 1197 q 622 1113 622 1156 q 619 1083 622 1094 q 601 1042 615 1057 q 560 1011 586 1028 q 537 995 544 1001 q 528 979 529 989 l 525 968 l 471 967 z "},"Ỹ":{"ha":704,"x_min":129,"x_max":828,"o":"m 247 903 l 433 458 l 743 903 l 828 903 l 458 379 l 407 0 l 301 0 l 353 374 l 129 903 l 247 903 m 743 1106 q 726 1085 743 1103 q 681 1051 710 1067 q 615 1035 653 1035 q 563 1043 588 1035 q 508 1068 539 1051 q 454 1091 475 1083 q 410 1099 433 1099 q 366 1087 386 1099 q 334 1062 346 1075 q 319 1044 322 1049 l 292 1079 q 312 1105 292 1082 q 365 1147 332 1128 q 438 1167 397 1167 q 493 1158 468 1167 q 550 1132 518 1149 q 598 1110 578 1118 q 640 1103 618 1103 q 679 1111 663 1103 q 706 1128 696 1119 q 717 1140 715 1138 l 743 1106 z "},"Z":{"ha":732,"x_min":56,"x_max":800,"o":"m 792 846 l 193 67 l 683 67 l 674 0 l 56 0 l 64 56 l 661 836 l 186 836 l 194 903 l 800 903 l 792 846 z "},"Ź":{"ha":732,"x_min":56,"x_max":800,"o":"m 683 1168 l 517 981 l 465 988 l 599 1189 l 683 1168 m 792 846 l 193 67 l 683 67 l 674 0 l 56 0 l 64 56 l 661 836 l 186 836 l 194 903 l 800 903 l 792 846 z "},"Ž":{"ha":732,"x_min":56,"x_max":800,"o":"m 346 1154 l 389 1188 l 522 1047 l 694 1188 l 729 1151 l 540 983 l 485 983 l 346 1154 m 792 846 l 193 67 l 683 67 l 674 0 l 56 0 l 64 56 l 661 836 l 186 836 l 194 903 l 800 903 l 792 846 z "},"Ż":{"ha":732,"x_min":56,"x_max":800,"o":"m 481 1126 q 524 1142 497 1142 q 563 1128 549 1142 q 574 1092 574 1115 q 550 1038 574 1061 q 506 1022 528 1022 q 468 1038 481 1022 q 456 1074 456 1053 q 462 1103 456 1089 q 481 1126 468 1117 m 792 846 l 193 67 l 683 67 l 674 0 l 56 0 l 64 56 l 661 836 l 186 836 l 194 903 l 800 903 l 792 846 z "},"a":{"ha":715,"x_min":92,"x_max":710,"o":"m 532 0 l 526 81 q 458 17 506 49 q 328 -14 410 -14 q 156 60 219 -14 q 92 265 92 133 q 133 490 92 389 q 254 649 175 590 q 443 708 333 708 q 557 682 519 708 q 606 635 594 656 l 629 694 l 710 694 l 613 0 l 532 0 m 361 54 q 469 86 426 54 q 531 147 511 118 l 592 568 q 575 593 589 576 q 531 626 561 610 q 456 642 501 642 q 263 538 329 642 q 197 258 197 435 q 240 106 197 157 q 361 54 283 54 z "},"á":{"ha":715,"x_min":92,"x_max":710,"o":"m 665 981 l 499 793 l 447 800 l 581 1001 l 665 981 m 532 0 l 526 81 q 458 17 506 49 q 328 -14 410 -14 q 156 60 219 -14 q 92 265 92 133 q 133 490 92 389 q 254 649 175 590 q 443 708 333 708 q 557 682 519 708 q 606 635 594 656 l 629 694 l 710 694 l 613 0 l 532 0 m 361 54 q 469 86 426 54 q 531 147 511 118 l 592 568 q 575 593 589 576 q 531 626 561 610 q 456 642 501 642 q 263 538 329 642 q 197 258 197 435 q 240 106 197 157 q 361 54 283 54 z "},"ă":{"ha":715,"x_min":92,"x_max":710,"o":"m 500 861 q 581 879 550 861 q 627 918 613 897 q 642 943 642 939 l 642 946 l 704 938 q 684 895 704 929 q 617 831 664 861 q 492 800 569 800 q 351 851 382 800 q 319 938 319 901 l 383 946 l 383 943 q 391 917 383 936 q 424 879 399 897 q 500 861 450 861 m 532 0 l 526 81 q 458 17 506 49 q 328 -14 410 -14 q 156 60 219 -14 q 92 265 92 133 q 133 490 92 389 q 254 649 175 590 q 443 708 333 708 q 557 682 519 708 q 606 635 594 656 l 629 694 l 710 694 l 613 0 l 532 0 m 361 54 q 469 86 426 54 q 531 147 511 118 l 592 568 q 575 593 589 576 q 531 626 561 610 q 456 642 501 642 q 263 538 329 642 q 197 258 197 435 q 240 106 197 157 q 361 54 283 54 z "},"ắ":{"ha":715,"x_min":92,"x_max":710,"o":"m 532 0 l 526 81 q 458 17 506 49 q 328 -14 410 -14 q 156 60 219 -14 q 92 265 92 133 q 133 490 92 389 q 254 649 175 590 q 443 708 333 708 q 557 682 519 708 q 606 635 594 656 l 629 694 l 710 694 l 613 0 l 532 0 m 361 54 q 469 86 426 54 q 531 147 511 118 l 592 568 q 575 593 589 576 q 531 626 561 610 q 456 642 501 642 q 263 538 329 642 q 197 258 197 435 q 240 106 197 157 q 361 54 283 54 m 481 861 q 562 879 531 861 q 608 918 593 897 q 622 943 622 939 l 622 946 l 685 938 q 665 895 685 929 q 597 831 644 861 q 472 800 550 800 q 331 851 363 800 q 300 938 300 901 l 364 946 l 364 943 q 372 917 364 936 q 405 879 379 897 q 481 861 431 861 m 654 1149 l 488 961 l 436 968 l 569 1169 l 654 1149 z "},"ặ":{"ha":715,"x_min":92,"x_max":710,"o":"m 532 0 l 526 81 q 458 17 506 49 q 328 -14 410 -14 q 156 60 219 -14 q 92 265 92 133 q 133 490 92 389 q 254 649 175 590 q 443 708 333 708 q 557 682 519 708 q 606 635 594 656 l 629 694 l 710 694 l 613 0 l 532 0 m 361 54 q 469 86 426 54 q 531 147 511 118 l 592 568 q 575 593 589 576 q 531 626 561 610 q 456 642 501 642 q 263 538 329 642 q 197 258 197 435 q 240 106 197 157 q 361 54 283 54 m 300 -125 q 342 -110 317 -110 q 381 -125 367 -110 q 392 -158 392 -136 q 369 -210 392 -189 q 326 -225 350 -225 q 289 -210 300 -225 q 276 -176 276 -197 q 300 -125 276 -146 m 481 861 q 562 879 531 861 q 608 918 593 897 q 622 943 622 939 l 622 946 l 685 938 q 665 895 685 929 q 597 831 644 861 q 472 800 550 800 q 331 851 363 800 q 300 938 300 901 l 364 946 l 364 943 q 372 917 364 936 q 405 879 379 897 q 481 861 431 861 z "},"ằ":{"ha":715,"x_min":92,"x_max":710,"o":"m 532 0 l 526 81 q 458 17 506 49 q 328 -14 410 -14 q 156 60 219 -14 q 92 265 92 133 q 133 490 92 389 q 254 649 175 590 q 443 708 333 708 q 557 682 519 708 q 606 635 594 656 l 629 694 l 710 694 l 613 0 l 532 0 m 361 54 q 469 86 426 54 q 531 147 511 118 l 592 568 q 575 593 589 576 q 531 626 561 610 q 456 642 501 642 q 263 538 329 642 q 197 258 197 435 q 240 106 197 157 q 361 54 283 54 m 481 861 q 562 879 531 861 q 608 918 593 897 q 622 943 622 939 l 622 946 l 685 938 q 665 895 685 929 q 597 831 644 861 q 472 800 550 800 q 331 851 363 800 q 300 938 300 901 l 364 946 l 364 943 q 372 917 364 936 q 405 879 379 897 q 481 861 431 861 m 439 1153 l 526 954 l 468 943 l 350 1131 l 439 1153 z "},"ẳ":{"ha":715,"x_min":92,"x_max":710,"o":"m 532 0 l 526 81 q 458 17 506 49 q 328 -14 410 -14 q 156 60 219 -14 q 92 265 92 133 q 133 490 92 389 q 254 649 175 590 q 443 708 333 708 q 557 682 519 708 q 606 635 594 656 l 629 694 l 710 694 l 613 0 l 532 0 m 361 54 q 469 86 426 54 q 531 147 511 118 l 592 568 q 575 593 589 576 q 531 626 561 610 q 456 642 501 642 q 263 538 329 642 q 197 258 197 435 q 240 106 197 157 q 361 54 283 54 m 481 861 q 562 879 531 861 q 608 918 593 897 q 622 943 622 939 l 622 946 l 685 938 q 665 895 685 929 q 597 831 644 861 q 472 800 550 800 q 331 851 363 800 q 300 938 300 901 l 364 946 l 364 943 q 372 917 364 936 q 405 879 379 897 q 481 861 431 861 m 485 957 q 489 986 485 961 q 515 1013 490 994 q 547 1039 535 1026 q 563 1068 558 1051 q 564 1086 564 1075 q 553 1115 564 1106 q 519 1124 543 1124 q 488 1118 503 1124 q 465 1107 474 1113 q 454 1100 456 1101 l 435 1160 q 455 1169 439 1163 q 494 1181 471 1175 q 538 1188 517 1188 q 608 1167 581 1188 q 636 1103 636 1146 q 633 1074 636 1085 q 615 1033 629 1047 q 574 1001 600 1018 q 551 985 558 992 q 542 969 543 979 l 539 958 l 485 957 z "},"ẵ":{"ha":715,"x_min":92,"x_max":740,"o":"m 532 0 l 526 81 q 458 17 506 49 q 328 -14 410 -14 q 156 60 219 -14 q 92 265 92 133 q 133 490 92 389 q 254 649 175 590 q 443 708 333 708 q 557 682 519 708 q 606 635 594 656 l 629 694 l 710 694 l 613 0 l 532 0 m 361 54 q 469 86 426 54 q 531 147 511 118 l 592 568 q 575 593 589 576 q 531 626 561 610 q 456 642 501 642 q 263 538 329 642 q 197 258 197 435 q 240 106 197 157 q 361 54 283 54 m 481 861 q 562 879 531 861 q 608 918 593 897 q 622 943 622 939 l 622 946 l 685 938 q 665 895 685 929 q 597 831 644 861 q 472 800 550 800 q 331 851 363 800 q 300 938 300 901 l 364 946 l 364 943 q 372 917 364 936 q 405 879 379 897 q 481 861 431 861 m 740 1065 q 724 1044 740 1063 q 678 1010 707 1026 q 613 994 650 994 q 560 1003 585 994 q 506 1028 536 1011 q 451 1051 472 1043 q 407 1058 431 1058 q 363 1047 383 1058 q 331 1022 343 1035 q 317 1004 319 1008 l 289 1039 q 309 1065 289 1042 q 362 1107 329 1088 q 435 1126 394 1126 q 490 1117 465 1126 q 547 1092 515 1108 q 595 1070 575 1078 q 638 1063 615 1063 q 676 1071 660 1063 q 703 1088 693 1079 q 714 1100 713 1097 l 740 1065 z "},"â":{"ha":715,"x_min":92,"x_max":710,"o":"m 679 874 l 647 829 l 514 964 l 343 829 l 322 874 l 496 1032 l 551 1032 l 679 874 m 532 0 l 526 81 q 458 17 506 49 q 328 -14 410 -14 q 156 60 219 -14 q 92 265 92 133 q 133 490 92 389 q 254 649 175 590 q 443 708 333 708 q 557 682 519 708 q 606 635 594 656 l 629 694 l 710 694 l 613 0 l 532 0 m 361 54 q 469 86 426 54 q 531 147 511 118 l 592 568 q 575 593 589 576 q 531 626 561 610 q 456 642 501 642 q 263 538 329 642 q 197 258 197 435 q 240 106 197 157 q 361 54 283 54 z "},"ấ":{"ha":715,"x_min":92,"x_max":871,"o":"m 532 0 l 526 81 q 458 17 506 49 q 328 -14 410 -14 q 156 60 219 -14 q 92 265 92 133 q 133 490 92 389 q 254 649 175 590 q 443 708 333 708 q 557 682 519 708 q 606 635 594 656 l 629 694 l 710 694 l 613 0 l 532 0 m 361 54 q 469 86 426 54 q 531 147 511 118 l 592 568 q 575 593 589 576 q 531 626 561 610 q 456 642 501 642 q 263 538 329 642 q 197 258 197 435 q 240 106 197 157 q 361 54 283 54 m 668 831 l 636 786 l 503 921 l 332 786 l 311 831 l 485 989 l 540 989 l 668 831 m 871 1122 l 704 935 l 653 942 l 786 1143 l 871 1122 z "},"ậ":{"ha":715,"x_min":92,"x_max":710,"o":"m 532 0 l 526 81 q 458 17 506 49 q 328 -14 410 -14 q 156 60 219 -14 q 92 265 92 133 q 133 490 92 389 q 254 649 175 590 q 443 708 333 708 q 557 682 519 708 q 606 635 594 656 l 629 694 l 710 694 l 613 0 l 532 0 m 361 54 q 469 86 426 54 q 531 147 511 118 l 592 568 q 575 593 589 576 q 531 626 561 610 q 456 642 501 642 q 263 538 329 642 q 197 258 197 435 q 240 106 197 157 q 361 54 283 54 m 300 -125 q 342 -110 317 -110 q 381 -125 367 -110 q 392 -158 392 -136 q 369 -210 392 -189 q 326 -225 350 -225 q 289 -210 300 -225 q 276 -176 276 -197 q 300 -125 276 -146 m 668 831 l 636 786 l 503 921 l 332 786 l 311 831 l 485 989 l 540 989 l 668 831 z "},"ầ":{"ha":715,"x_min":92,"x_max":761,"o":"m 532 0 l 526 81 q 458 17 506 49 q 328 -14 410 -14 q 156 60 219 -14 q 92 265 92 133 q 133 490 92 389 q 254 649 175 590 q 443 708 333 708 q 557 682 519 708 q 606 635 594 656 l 629 694 l 710 694 l 613 0 l 532 0 m 361 54 q 469 86 426 54 q 531 147 511 118 l 592 568 q 575 593 589 576 q 531 626 561 610 q 456 642 501 642 q 263 538 329 642 q 197 258 197 435 q 240 106 197 157 q 361 54 283 54 m 668 831 l 636 786 l 503 921 l 332 786 l 311 831 l 485 989 l 540 989 l 668 831 m 674 1164 l 761 965 l 703 954 l 585 1142 l 674 1164 z "},"ẩ":{"ha":715,"x_min":92,"x_max":821,"o":"m 532 0 l 526 81 q 458 17 506 49 q 328 -14 410 -14 q 156 60 219 -14 q 92 265 92 133 q 133 490 92 389 q 254 649 175 590 q 443 708 333 708 q 557 682 519 708 q 606 635 594 656 l 629 694 l 710 694 l 613 0 l 532 0 m 361 54 q 469 86 426 54 q 531 147 511 118 l 592 568 q 575 593 589 576 q 531 626 561 610 q 456 642 501 642 q 263 538 329 642 q 197 258 197 435 q 240 106 197 157 q 361 54 283 54 m 668 831 l 636 786 l 503 921 l 332 786 l 311 831 l 485 989 l 540 989 l 668 831 m 669 944 q 674 974 669 949 q 700 1000 675 982 q 731 1026 719 1014 q 747 1056 743 1039 q 749 1074 749 1063 q 738 1102 749 1093 q 704 1111 728 1111 q 673 1106 688 1111 q 649 1094 658 1100 q 639 1088 640 1089 l 619 1147 q 640 1156 624 1150 q 678 1169 656 1163 q 722 1175 701 1175 q 793 1154 765 1175 q 821 1090 821 1133 q 818 1061 821 1072 q 799 1020 814 1035 q 758 989 785 1006 q 735 973 743 979 q 726 957 728 967 l 724 946 l 669 944 z "},"ẫ":{"ha":715,"x_min":92,"x_max":760,"o":"m 532 0 l 526 81 q 458 17 506 49 q 328 -14 410 -14 q 156 60 219 -14 q 92 265 92 133 q 133 490 92 389 q 254 649 175 590 q 443 708 333 708 q 557 682 519 708 q 606 635 594 656 l 629 694 l 710 694 l 613 0 l 532 0 m 361 54 q 469 86 426 54 q 531 147 511 118 l 592 568 q 575 593 589 576 q 531 626 561 610 q 456 642 501 642 q 263 538 329 642 q 197 258 197 435 q 240 106 197 157 q 361 54 283 54 m 668 831 l 636 786 l 503 921 l 332 786 l 311 831 l 485 989 l 540 989 l 668 831 m 760 1083 q 743 1063 760 1081 q 698 1028 726 1044 q 632 1013 669 1013 q 580 1021 604 1013 q 525 1046 556 1029 q 471 1069 492 1061 q 426 1076 450 1076 q 383 1065 403 1076 q 351 1040 363 1053 q 336 1022 339 1026 l 308 1057 q 328 1083 308 1060 q 381 1125 349 1106 q 454 1144 414 1144 q 510 1135 485 1144 q 567 1110 535 1126 q 615 1088 594 1096 q 657 1081 635 1081 q 696 1089 679 1081 q 722 1106 713 1097 q 733 1118 732 1115 l 760 1083 z "},"ä":{"ha":715,"x_min":92,"x_max":710,"o":"m 367 936 q 406 950 385 950 q 439 936 425 950 q 450 904 450 925 q 428 854 450 876 q 390 840 410 840 q 356 854 369 840 q 344 886 344 868 q 367 936 344 914 m 581 936 q 618 950 599 950 q 653 936 639 950 q 664 904 664 922 q 642 854 664 876 q 603 840 624 840 q 569 854 583 840 q 558 886 558 868 q 581 936 558 914 m 532 0 l 526 81 q 458 17 506 49 q 328 -14 410 -14 q 156 60 219 -14 q 92 265 92 133 q 133 490 92 389 q 254 649 175 590 q 443 708 333 708 q 557 682 519 708 q 606 635 594 656 l 629 694 l 710 694 l 613 0 l 532 0 m 361 54 q 469 86 426 54 q 531 147 511 118 l 592 568 q 575 593 589 576 q 531 626 561 610 q 456 642 501 642 q 263 538 329 642 q 197 258 197 435 q 240 106 197 157 q 361 54 283 54 z "},"ạ":{"ha":715,"x_min":92,"x_max":710,"o":"m 532 0 l 526 81 q 458 17 506 49 q 328 -14 410 -14 q 156 60 219 -14 q 92 265 92 133 q 133 490 92 389 q 254 649 175 590 q 443 708 333 708 q 557 682 519 708 q 606 635 594 656 l 629 694 l 710 694 l 613 0 l 532 0 m 361 54 q 469 86 426 54 q 531 147 511 118 l 592 568 q 575 593 589 576 q 531 626 561 610 q 456 642 501 642 q 263 538 329 642 q 197 258 197 435 q 240 106 197 157 q 361 54 283 54 m 300 -125 q 342 -110 317 -110 q 381 -125 367 -110 q 392 -158 392 -136 q 369 -210 392 -189 q 326 -225 350 -225 q 289 -210 300 -225 q 276 -176 276 -197 q 300 -125 276 -146 z "},"à":{"ha":715,"x_min":92,"x_max":710,"o":"m 450 1006 l 538 807 l 479 796 l 361 983 l 450 1006 m 532 0 l 526 81 q 458 17 506 49 q 328 -14 410 -14 q 156 60 219 -14 q 92 265 92 133 q 133 490 92 389 q 254 649 175 590 q 443 708 333 708 q 557 682 519 708 q 606 635 594 656 l 629 694 l 710 694 l 613 0 l 532 0 m 361 54 q 469 86 426 54 q 531 147 511 118 l 592 568 q 575 593 589 576 q 531 626 561 610 q 456 642 501 642 q 263 538 329 642 q 197 258 197 435 q 240 106 197 157 q 361 54 283 54 z "},"ả":{"ha":715,"x_min":92,"x_max":710,"o":"m 532 0 l 526 81 q 458 17 506 49 q 328 -14 410 -14 q 156 60 219 -14 q 92 265 92 133 q 133 490 92 389 q 254 649 175 590 q 443 708 333 708 q 557 682 519 708 q 606 635 594 656 l 629 694 l 710 694 l 613 0 l 532 0 m 361 54 q 469 86 426 54 q 531 147 511 118 l 592 568 q 575 593 589 576 q 531 626 561 610 q 456 642 501 642 q 263 538 329 642 q 197 258 197 435 q 240 106 197 157 q 361 54 283 54 m 449 758 q 453 788 449 763 q 479 814 454 796 q 510 840 499 828 q 526 869 522 853 q 528 888 528 876 q 517 916 528 907 q 483 925 507 925 q 452 919 467 925 q 428 908 438 914 q 418 901 419 903 l 399 961 q 419 970 403 964 q 458 983 435 976 q 501 989 481 989 q 572 968 544 989 q 600 904 600 947 q 597 875 600 886 q 578 834 593 849 q 538 803 564 819 q 515 787 522 793 q 506 771 507 781 l 503 760 l 449 758 z "},"ā":{"ha":715,"x_min":92,"x_max":710,"o":"m 633 883 l 376 883 l 383 933 l 640 933 l 633 883 m 532 0 l 526 81 q 458 17 506 49 q 328 -14 410 -14 q 156 60 219 -14 q 92 265 92 133 q 133 490 92 389 q 254 649 175 590 q 443 708 333 708 q 557 682 519 708 q 606 635 594 656 l 629 694 l 710 694 l 613 0 l 532 0 m 361 54 q 469 86 426 54 q 531 147 511 118 l 592 568 q 575 593 589 576 q 531 626 561 610 q 456 642 501 642 q 263 538 329 642 q 197 258 197 435 q 240 106 197 157 q 361 54 283 54 z "},"ą":{"ha":715,"x_min":92,"x_max":710,"o":"m 590 0 q 497 -78 544 -25 q 450 -211 450 -132 q 487 -283 450 -264 q 583 -303 524 -303 l 576 -347 q 435 -319 490 -347 q 381 -217 381 -292 q 426 -93 381 -147 q 532 0 471 -39 l 526 81 q 458 17 506 49 q 328 -14 410 -14 q 156 60 219 -14 q 92 265 92 133 q 133 490 92 389 q 254 649 175 590 q 443 708 333 708 q 557 682 519 708 q 606 635 594 656 l 629 694 l 710 694 l 613 0 l 590 0 m 361 54 q 469 86 426 54 q 531 147 511 118 l 592 568 q 575 593 589 576 q 531 626 561 610 q 456 642 501 642 q 263 538 329 642 q 197 258 197 435 q 240 106 197 157 q 361 54 283 54 z "},"å":{"ha":715,"x_min":92,"x_max":710,"o":"m 629 914 q 589 805 629 844 q 488 765 549 765 q 408 793 438 765 q 379 874 379 821 q 420 985 379 944 q 522 1025 461 1025 q 599 996 569 1025 q 629 914 629 967 m 590 911 q 570 968 590 949 q 518 988 550 988 q 447 960 475 988 q 419 878 419 932 q 440 821 419 840 q 493 801 460 801 q 563 829 536 801 q 590 911 590 857 m 532 0 l 526 81 q 458 17 506 49 q 328 -14 410 -14 q 156 60 219 -14 q 92 265 92 133 q 133 490 92 389 q 254 649 175 590 q 443 708 333 708 q 557 682 519 708 q 606 635 594 656 l 629 694 l 710 694 l 613 0 l 532 0 m 361 54 q 469 86 426 54 q 531 147 511 118 l 592 568 q 575 593 589 576 q 531 626 561 610 q 456 642 501 642 q 263 538 329 642 q 197 258 197 435 q 240 106 197 157 q 361 54 283 54 z "},"ã":{"ha":715,"x_min":92,"x_max":733,"o":"m 733 897 q 717 876 733 894 q 672 842 700 858 q 606 826 643 826 q 553 835 578 826 q 499 860 529 843 q 444 883 465 875 q 400 890 424 890 q 356 878 376 890 q 324 853 336 867 q 310 836 313 840 l 282 871 q 302 897 282 874 q 355 939 322 919 q 428 958 388 958 q 483 949 458 958 q 540 924 508 940 q 588 902 568 910 q 631 894 608 894 q 669 903 653 894 q 696 920 686 911 q 707 932 706 929 l 733 897 m 532 0 l 526 81 q 458 17 506 49 q 328 -14 410 -14 q 156 60 219 -14 q 92 265 92 133 q 133 490 92 389 q 254 649 175 590 q 443 708 333 708 q 557 682 519 708 q 606 635 594 656 l 629 694 l 710 694 l 613 0 l 532 0 m 361 54 q 469 86 426 54 q 531 147 511 118 l 592 568 q 575 593 589 576 q 531 626 561 610 q 456 642 501 642 q 263 538 329 642 q 197 258 197 435 q 240 106 197 157 q 361 54 283 54 z "},"æ":{"ha":1031,"x_min":92,"x_max":1050,"o":"m 1001 96 q 973 63 1001 92 q 892 10 944 35 q 765 -14 840 -14 q 635 13 693 -14 q 540 90 576 39 q 475 23 522 60 q 339 -14 428 -14 q 157 59 222 -14 q 92 265 92 132 q 134 491 92 390 q 259 650 176 592 q 458 708 342 708 q 576 681 538 708 q 629 629 615 653 q 840 708 717 708 q 994 656 938 708 q 1050 525 1050 603 q 937 355 1050 396 q 661 314 824 314 l 599 314 q 597 254 597 294 q 648 99 597 150 q 783 47 699 47 q 879 65 839 47 q 942 105 919 83 q 965 129 965 126 l 1001 96 m 828 649 q 681 574 739 649 q 604 367 622 500 l 664 367 q 876 399 792 367 q 960 531 960 431 q 925 615 960 582 q 828 649 890 649 m 364 54 q 458 77 419 54 q 519 129 497 100 q 493 267 493 183 q 517 442 493 363 q 585 581 540 522 q 537 623 568 604 q 456 642 506 642 q 263 538 329 642 q 197 258 197 435 q 241 106 197 157 q 364 54 285 54 z "},"b":{"ha":715,"x_min":103,"x_max":722,"o":"m 350 1044 l 289 613 l 292 613 q 315 641 292 617 q 383 687 339 665 q 489 708 426 708 q 659 635 596 708 q 722 431 722 561 q 682 206 722 307 q 563 45 642 104 q 375 -14 485 -14 q 263 8 303 -14 q 203 54 222 31 l 176 0 l 103 0 l 249 1039 l 350 1044 m 219 114 q 264 74 232 94 q 358 53 296 53 q 551 156 485 53 q 617 442 617 258 q 574 590 617 539 q 451 640 531 640 q 362 618 400 640 q 302 571 324 596 q 281 542 281 546 l 279 544 l 219 114 z "},"c":{"ha":588,"x_min":93,"x_max":640,"o":"m 622 586 q 597 603 622 588 q 536 633 572 619 q 460 647 500 647 q 200 257 200 647 q 249 99 200 150 q 381 47 299 47 q 472 65 435 47 q 531 104 510 83 q 551 128 551 125 l 592 99 q 566 65 592 93 q 490 11 540 36 q 364 -14 439 -14 q 165 59 238 -14 q 93 269 93 132 q 185 590 93 472 q 451 708 276 708 q 543 694 501 708 q 613 662 585 679 q 640 643 640 644 l 622 586 z "},"ć":{"ha":588,"x_min":93,"x_max":640,"o":"m 619 981 l 453 793 l 401 800 l 535 1001 l 619 981 m 622 586 q 597 603 622 588 q 536 633 572 619 q 460 647 500 647 q 200 257 200 647 q 249 99 200 150 q 381 47 299 47 q 472 65 435 47 q 531 104 510 83 q 551 128 551 125 l 592 99 q 566 65 592 93 q 490 11 540 36 q 364 -14 439 -14 q 165 59 238 -14 q 93 269 93 132 q 185 590 93 472 q 451 708 276 708 q 543 694 501 708 q 613 662 585 679 q 640 643 640 644 l 622 586 z "},"č":{"ha":588,"x_min":93,"x_max":679,"o":"m 296 967 l 339 1000 l 472 860 l 644 1000 l 679 964 l 490 796 l 435 796 l 296 967 m 622 586 q 597 603 622 588 q 536 633 572 619 q 460 647 500 647 q 200 257 200 647 q 249 99 200 150 q 381 47 299 47 q 472 65 435 47 q 531 104 510 83 q 551 128 551 125 l 592 99 q 566 65 592 93 q 490 11 540 36 q 364 -14 439 -14 q 165 59 238 -14 q 93 269 93 132 q 185 590 93 472 q 451 708 276 708 q 543 694 501 708 q 613 662 585 679 q 640 643 640 644 l 622 586 z "},"ç":{"ha":588,"x_min":93,"x_max":640,"o":"m 622 586 q 597 603 622 588 q 536 633 572 619 q 460 647 500 647 q 200 257 200 647 q 249 99 200 150 q 381 47 299 47 q 472 65 435 47 q 531 104 510 83 q 551 128 551 125 l 592 99 q 566 65 592 93 q 490 11 540 36 q 364 -14 439 -14 l 360 -14 l 339 -96 q 371 -106 339 -97 q 430 -137 403 -114 q 457 -201 457 -160 q 415 -308 457 -267 q 293 -349 372 -349 q 225 -335 251 -349 q 186 -308 199 -322 q 174 -290 174 -293 l 201 -262 q 213 -276 203 -265 q 241 -297 222 -287 q 288 -307 260 -307 q 367 -280 340 -307 q 394 -203 394 -253 q 368 -153 394 -167 q 315 -134 342 -139 q 289 -128 289 -129 l 319 -11 q 153 72 213 0 q 93 269 93 144 q 185 590 93 472 q 451 708 276 708 q 543 694 501 708 q 613 662 585 679 q 640 643 640 644 l 622 586 z "},"d":{"ha":715,"x_min":92,"x_max":760,"o":"m 526 0 l 526 81 q 457 17 504 49 q 329 -14 410 -14 q 156 61 219 -14 q 92 268 92 136 q 132 492 92 392 q 250 650 172 592 q 433 708 328 708 q 528 694 490 708 q 583 662 565 679 q 600 642 600 644 l 601 642 l 657 1039 l 760 1044 l 613 0 l 526 0 m 360 54 q 469 88 426 54 q 532 150 513 121 l 592 579 q 545 620 576 599 q 454 642 514 642 q 260 538 324 642 q 196 257 196 435 q 238 105 196 156 q 360 54 281 54 z "},"ð":{"ha":706,"x_min":94,"x_max":700,"o":"m 94 269 q 137 507 94 408 q 256 657 179 606 q 438 708 333 708 q 597 644 533 708 q 482 906 575 801 l 313 817 l 300 853 l 454 935 q 379 997 419 968 l 436 1028 q 519 968 483 999 l 639 1032 l 651 996 l 549 942 q 661 753 622 867 q 700 474 700 640 q 699 406 700 429 q 596 98 688 210 q 346 -14 504 -14 q 158 63 221 -14 q 94 269 94 140 m 436 649 q 260 547 321 649 q 199 254 199 446 q 238 99 199 153 q 356 46 276 46 q 533 146 471 46 q 594 433 594 246 q 554 590 594 532 q 436 649 514 649 z "},"ď":{"ha":715,"x_min":92,"x_max":956,"o":"m 956 1058 l 842 764 l 799 768 l 888 1068 l 956 1058 m 526 0 l 526 81 q 457 17 504 49 q 329 -14 410 -14 q 156 61 219 -14 q 92 268 92 136 q 132 492 92 392 q 250 650 172 592 q 433 708 328 708 q 528 694 490 708 q 583 662 565 679 q 600 642 600 644 l 601 642 l 657 1039 l 760 1044 l 613 0 l 526 0 m 360 54 q 469 88 426 54 q 532 150 513 121 l 592 579 q 545 620 576 599 q 454 642 514 642 q 260 538 324 642 q 196 257 196 435 q 238 105 196 156 q 360 54 281 54 z "},"đ":{"ha":721,"x_min":86,"x_max":824,"o":"m 824 926 l 817 876 l 732 867 l 729 867 l 607 0 l 518 0 l 519 79 q 445 13 496 46 q 314 -19 394 -19 q 147 56 207 -19 q 86 261 86 131 q 126 489 86 386 q 242 653 165 592 q 424 714 318 714 q 519 698 481 714 q 576 663 557 682 q 596 642 596 644 l 628 867 l 463 867 l 471 926 l 636 926 l 653 1042 l 754 1042 l 738 926 l 824 926 m 354 49 q 464 82 422 49 q 528 150 506 115 l 588 578 q 451 647 544 647 q 256 541 321 647 q 192 251 192 435 q 234 99 192 150 q 354 49 276 49 z "},"e":{"ha":629,"x_min":92,"x_max":649,"o":"m 600 96 q 572 63 600 92 q 491 10 543 35 q 364 -14 439 -14 q 167 58 242 -14 q 92 267 92 131 q 135 498 92 397 q 258 653 179 599 q 439 708 336 708 q 592 656 536 708 q 649 525 649 603 q 535 355 649 396 q 260 314 422 314 l 197 314 q 196 254 196 294 q 247 99 196 150 q 382 47 297 47 q 478 65 438 47 q 541 105 518 83 q 564 129 564 126 l 600 96 m 426 649 q 279 574 338 649 q 203 367 221 500 l 263 367 q 474 399 390 367 q 558 531 558 431 q 524 615 558 582 q 426 649 489 649 z "},"é":{"ha":629,"x_min":92,"x_max":649,"o":"m 624 981 l 457 793 l 406 800 l 539 1001 l 624 981 m 600 96 q 572 63 600 92 q 491 10 543 35 q 364 -14 439 -14 q 167 58 242 -14 q 92 267 92 131 q 135 498 92 397 q 258 653 179 599 q 439 708 336 708 q 592 656 536 708 q 649 525 649 603 q 535 355 649 396 q 260 314 422 314 l 197 314 q 196 254 196 294 q 247 99 196 150 q 382 47 297 47 q 478 65 438 47 q 541 105 518 83 q 564 129 564 126 l 600 96 m 426 649 q 279 574 338 649 q 203 367 221 500 l 263 367 q 474 399 390 367 q 558 531 558 431 q 524 615 558 582 q 426 649 489 649 z "},"ě":{"ha":629,"x_min":92,"x_max":665,"o":"m 282 967 l 325 1000 l 458 860 l 631 1000 l 665 964 l 476 796 l 421 796 l 282 967 m 600 96 q 572 63 600 92 q 491 10 543 35 q 364 -14 439 -14 q 167 58 242 -14 q 92 267 92 131 q 135 498 92 397 q 258 653 179 599 q 439 708 336 708 q 592 656 536 708 q 649 525 649 603 q 535 355 649 396 q 260 314 422 314 l 197 314 q 196 254 196 294 q 247 99 196 150 q 382 47 297 47 q 478 65 438 47 q 541 105 518 83 q 564 129 564 126 l 600 96 m 426 649 q 279 574 338 649 q 203 367 221 500 l 263 367 q 474 399 390 367 q 558 531 558 431 q 524 615 558 582 q 426 649 489 649 z "},"ê":{"ha":629,"x_min":92,"x_max":649,"o":"m 638 874 l 606 829 l 472 964 l 301 829 l 281 874 l 454 1032 l 510 1032 l 638 874 m 600 96 q 572 63 600 92 q 491 10 543 35 q 364 -14 439 -14 q 167 58 242 -14 q 92 267 92 131 q 135 498 92 397 q 258 653 179 599 q 439 708 336 708 q 592 656 536 708 q 649 525 649 603 q 535 355 649 396 q 260 314 422 314 l 197 314 q 196 254 196 294 q 247 99 196 150 q 382 47 297 47 q 478 65 438 47 q 541 105 518 83 q 564 129 564 126 l 600 96 m 426 649 q 279 574 338 649 q 203 367 221 500 l 263 367 q 474 399 390 367 q 558 531 558 431 q 524 615 558 582 q 426 649 489 649 z "},"ế":{"ha":629,"x_min":92,"x_max":846,"o":"m 600 96 q 572 63 600 92 q 491 10 543 35 q 364 -14 439 -14 q 167 58 242 -14 q 92 267 92 131 q 135 498 92 397 q 258 653 179 599 q 439 708 336 708 q 592 656 536 708 q 649 525 649 603 q 535 355 649 396 q 260 314 422 314 l 197 314 q 196 254 196 294 q 247 99 196 150 q 382 47 297 47 q 478 65 438 47 q 541 105 518 83 q 564 129 564 126 l 600 96 m 426 649 q 279 574 338 649 q 203 367 221 500 l 263 367 q 474 399 390 367 q 558 531 558 431 q 524 615 558 582 q 426 649 489 649 m 643 831 l 611 786 l 478 921 l 307 786 l 286 831 l 460 989 l 515 989 l 643 831 m 846 1122 l 679 935 l 628 942 l 761 1143 l 846 1122 z "},"ệ":{"ha":629,"x_min":92,"x_max":649,"o":"m 600 96 q 572 63 600 92 q 491 10 543 35 q 364 -14 439 -14 q 167 58 242 -14 q 92 267 92 131 q 135 498 92 397 q 258 653 179 599 q 439 708 336 708 q 592 656 536 708 q 649 525 649 603 q 535 355 649 396 q 260 314 422 314 l 197 314 q 196 254 196 294 q 247 99 196 150 q 382 47 297 47 q 478 65 438 47 q 541 105 518 83 q 564 129 564 126 l 600 96 m 426 649 q 279 574 338 649 q 203 367 221 500 l 263 367 q 474 399 390 367 q 558 531 558 431 q 524 615 558 582 q 426 649 489 649 m 299 -125 q 340 -110 315 -110 q 379 -125 365 -110 q 390 -158 390 -136 q 368 -210 390 -189 q 325 -225 349 -225 q 288 -210 299 -225 q 275 -176 275 -197 q 299 -125 275 -146 m 643 831 l 611 786 l 478 921 l 307 786 l 286 831 l 460 989 l 515 989 l 643 831 z "},"ề":{"ha":629,"x_min":92,"x_max":736,"o":"m 600 96 q 572 63 600 92 q 491 10 543 35 q 364 -14 439 -14 q 167 58 242 -14 q 92 267 92 131 q 135 498 92 397 q 258 653 179 599 q 439 708 336 708 q 592 656 536 708 q 649 525 649 603 q 535 355 649 396 q 260 314 422 314 l 197 314 q 196 254 196 294 q 247 99 196 150 q 382 47 297 47 q 478 65 438 47 q 541 105 518 83 q 564 129 564 126 l 600 96 m 426 649 q 279 574 338 649 q 203 367 221 500 l 263 367 q 474 399 390 367 q 558 531 558 431 q 524 615 558 582 q 426 649 489 649 m 643 831 l 611 786 l 478 921 l 307 786 l 286 831 l 460 989 l 515 989 l 643 831 m 649 1164 l 736 965 l 678 954 l 560 1142 l 649 1164 z "},"ể":{"ha":629,"x_min":92,"x_max":796,"o":"m 600 96 q 572 63 600 92 q 491 10 543 35 q 364 -14 439 -14 q 167 58 242 -14 q 92 267 92 131 q 135 498 92 397 q 258 653 179 599 q 439 708 336 708 q 592 656 536 708 q 649 525 649 603 q 535 355 649 396 q 260 314 422 314 l 197 314 q 196 254 196 294 q 247 99 196 150 q 382 47 297 47 q 478 65 438 47 q 541 105 518 83 q 564 129 564 126 l 600 96 m 426 649 q 279 574 338 649 q 203 367 221 500 l 263 367 q 474 399 390 367 q 558 531 558 431 q 524 615 558 582 q 426 649 489 649 m 643 831 l 611 786 l 478 921 l 307 786 l 286 831 l 460 989 l 515 989 l 643 831 m 644 944 q 649 974 644 949 q 675 1000 650 982 q 706 1026 694 1014 q 722 1056 718 1039 q 724 1074 724 1063 q 713 1102 724 1093 q 679 1111 703 1111 q 648 1106 663 1111 q 624 1094 633 1100 q 614 1088 615 1089 l 594 1147 q 615 1156 599 1150 q 653 1169 631 1163 q 697 1175 676 1175 q 768 1154 740 1175 q 796 1090 796 1133 q 793 1061 796 1072 q 774 1020 789 1035 q 733 989 760 1006 q 710 973 718 979 q 701 957 703 967 l 699 946 l 644 944 z "},"ễ":{"ha":629,"x_min":92,"x_max":735,"o":"m 600 96 q 572 63 600 92 q 491 10 543 35 q 364 -14 439 -14 q 167 58 242 -14 q 92 267 92 131 q 135 498 92 397 q 258 653 179 599 q 439 708 336 708 q 592 656 536 708 q 649 525 649 603 q 535 355 649 396 q 260 314 422 314 l 197 314 q 196 254 196 294 q 247 99 196 150 q 382 47 297 47 q 478 65 438 47 q 541 105 518 83 q 564 129 564 126 l 600 96 m 426 649 q 279 574 338 649 q 203 367 221 500 l 263 367 q 474 399 390 367 q 558 531 558 431 q 524 615 558 582 q 426 649 489 649 m 643 831 l 611 786 l 478 921 l 307 786 l 286 831 l 460 989 l 515 989 l 643 831 m 735 1083 q 718 1063 735 1081 q 673 1028 701 1044 q 607 1013 644 1013 q 555 1021 579 1013 q 500 1046 531 1029 q 446 1069 467 1061 q 401 1076 425 1076 q 358 1065 378 1076 q 326 1040 338 1053 q 311 1022 314 1026 l 283 1057 q 303 1083 283 1060 q 356 1125 324 1106 q 429 1144 389 1144 q 485 1135 460 1144 q 542 1110 510 1126 q 590 1088 569 1096 q 632 1081 610 1081 q 671 1089 654 1081 q 697 1106 688 1097 q 708 1118 707 1115 l 735 1083 z "},"ë":{"ha":629,"x_min":92,"x_max":649,"o":"m 324 936 q 361 950 342 950 q 396 936 382 950 q 407 904 407 925 q 385 854 407 876 q 347 840 367 840 q 313 854 326 840 q 301 886 301 868 q 324 936 301 914 m 538 936 q 575 950 556 950 q 610 936 596 950 q 621 904 621 922 q 599 854 621 876 q 560 840 581 840 q 526 854 540 840 q 515 886 515 868 q 538 936 515 914 m 600 96 q 572 63 600 92 q 491 10 543 35 q 364 -14 439 -14 q 167 58 242 -14 q 92 267 92 131 q 135 498 92 397 q 258 653 179 599 q 439 708 336 708 q 592 656 536 708 q 649 525 649 603 q 535 355 649 396 q 260 314 422 314 l 197 314 q 196 254 196 294 q 247 99 196 150 q 382 47 297 47 q 478 65 438 47 q 541 105 518 83 q 564 129 564 126 l 600 96 m 426 649 q 279 574 338 649 q 203 367 221 500 l 263 367 q 474 399 390 367 q 558 531 558 431 q 524 615 558 582 q 426 649 489 649 z "},"ė":{"ha":629,"x_min":92,"x_max":649,"o":"m 429 939 q 472 954 446 954 q 511 940 497 954 q 522 904 522 928 q 499 850 522 874 q 454 835 476 835 q 417 850 429 835 q 404 886 404 865 q 410 915 404 901 q 429 939 417 929 m 600 96 q 572 63 600 92 q 491 10 543 35 q 364 -14 439 -14 q 167 58 242 -14 q 92 267 92 131 q 135 498 92 397 q 258 653 179 599 q 439 708 336 708 q 592 656 536 708 q 649 525 649 603 q 535 355 649 396 q 260 314 422 314 l 197 314 q 196 254 196 294 q 247 99 196 150 q 382 47 297 47 q 478 65 438 47 q 541 105 518 83 q 564 129 564 126 l 600 96 m 426 649 q 279 574 338 649 q 203 367 221 500 l 263 367 q 474 399 390 367 q 558 531 558 431 q 524 615 558 582 q 426 649 489 649 z "},"ẹ":{"ha":629,"x_min":92,"x_max":649,"o":"m 600 96 q 572 63 600 92 q 491 10 543 35 q 364 -14 439 -14 q 167 58 242 -14 q 92 267 92 131 q 135 498 92 397 q 258 653 179 599 q 439 708 336 708 q 592 656 536 708 q 649 525 649 603 q 535 355 649 396 q 260 314 422 314 l 197 314 q 196 254 196 294 q 247 99 196 150 q 382 47 297 47 q 478 65 438 47 q 541 105 518 83 q 564 129 564 126 l 600 96 m 426 649 q 279 574 338 649 q 203 367 221 500 l 263 367 q 474 399 390 367 q 558 531 558 431 q 524 615 558 582 q 426 649 489 649 m 299 -125 q 340 -110 315 -110 q 379 -125 365 -110 q 390 -158 390 -136 q 368 -210 390 -189 q 325 -225 349 -225 q 288 -210 299 -225 q 275 -176 275 -197 q 299 -125 275 -146 z "},"è":{"ha":629,"x_min":92,"x_max":649,"o":"m 408 1006 l 496 807 l 438 796 l 319 983 l 408 1006 m 600 96 q 572 63 600 92 q 491 10 543 35 q 364 -14 439 -14 q 167 58 242 -14 q 92 267 92 131 q 135 498 92 397 q 258 653 179 599 q 439 708 336 708 q 592 656 536 708 q 649 525 649 603 q 535 355 649 396 q 260 314 422 314 l 197 314 q 196 254 196 294 q 247 99 196 150 q 382 47 297 47 q 478 65 438 47 q 541 105 518 83 q 564 129 564 126 l 600 96 m 426 649 q 279 574 338 649 q 203 367 221 500 l 263 367 q 474 399 390 367 q 558 531 558 431 q 524 615 558 582 q 426 649 489 649 z "},"ẻ":{"ha":629,"x_min":92,"x_max":649,"o":"m 600 96 q 572 63 600 92 q 491 10 543 35 q 364 -14 439 -14 q 167 58 242 -14 q 92 267 92 131 q 135 498 92 397 q 258 653 179 599 q 439 708 336 708 q 592 656 536 708 q 649 525 649 603 q 535 355 649 396 q 260 314 422 314 l 197 314 q 196 254 196 294 q 247 99 196 150 q 382 47 297 47 q 478 65 438 47 q 541 105 518 83 q 564 129 564 126 l 600 96 m 426 649 q 279 574 338 649 q 203 367 221 500 l 263 367 q 474 399 390 367 q 558 531 558 431 q 524 615 558 582 q 426 649 489 649 m 424 758 q 428 788 424 763 q 454 814 429 796 q 485 840 474 828 q 501 869 497 853 q 503 888 503 876 q 492 916 503 907 q 458 925 482 925 q 427 919 442 925 q 403 908 413 914 q 393 901 394 903 l 374 961 q 394 970 378 964 q 433 983 410 976 q 476 989 456 989 q 547 968 519 989 q 575 904 575 947 q 572 875 575 886 q 553 834 568 849 q 513 803 539 819 q 490 787 497 793 q 481 771 482 781 l 478 760 l 424 758 z "},"ē":{"ha":629,"x_min":92,"x_max":649,"o":"m 590 883 l 333 883 l 340 933 l 597 933 l 590 883 m 600 96 q 572 63 600 92 q 491 10 543 35 q 364 -14 439 -14 q 167 58 242 -14 q 92 267 92 131 q 135 498 92 397 q 258 653 179 599 q 439 708 336 708 q 592 656 536 708 q 649 525 649 603 q 535 355 649 396 q 260 314 422 314 l 197 314 q 196 254 196 294 q 247 99 196 150 q 382 47 297 47 q 478 65 438 47 q 541 105 518 83 q 564 129 564 126 l 600 96 m 426 649 q 279 574 338 649 q 203 367 221 500 l 263 367 q 474 399 390 367 q 558 531 558 431 q 524 615 558 582 q 426 649 489 649 z "},"ę":{"ha":629,"x_min":92,"x_max":649,"o":"m 600 96 q 578 70 600 93 q 517 24 556 47 q 422 -8 478 1 q 335 -89 375 -39 q 296 -211 296 -139 q 333 -283 296 -264 q 429 -303 369 -303 l 422 -347 q 281 -319 336 -347 q 226 -217 226 -292 q 356 -14 226 -106 q 164 60 236 -11 q 92 267 92 132 q 135 498 92 397 q 258 653 179 599 q 439 708 336 708 q 592 656 536 708 q 649 525 649 603 q 535 355 649 396 q 260 314 422 314 l 197 314 q 196 254 196 294 q 247 99 196 150 q 382 47 297 47 q 478 65 438 47 q 541 105 518 83 q 564 129 564 126 l 600 96 m 426 649 q 279 574 338 649 q 203 367 221 500 l 263 367 q 474 399 390 367 q 558 531 558 431 q 524 615 558 582 q 426 649 489 649 z "},"ẽ":{"ha":629,"x_min":92,"x_max":696,"o":"m 600 96 q 572 63 600 92 q 491 10 543 35 q 364 -14 439 -14 q 167 58 242 -14 q 92 267 92 131 q 135 498 92 397 q 258 653 179 599 q 439 708 336 708 q 592 656 536 708 q 649 525 649 603 q 535 355 649 396 q 260 314 422 314 l 197 314 q 196 254 196 294 q 247 99 196 150 q 382 47 297 47 q 478 65 438 47 q 541 105 518 83 q 564 129 564 126 l 600 96 m 426 649 q 279 574 338 649 q 203 367 221 500 l 263 367 q 474 399 390 367 q 558 531 558 431 q 524 615 558 582 q 426 649 489 649 m 696 897 q 679 876 696 894 q 634 842 663 858 q 568 826 606 826 q 516 835 540 826 q 461 860 492 843 q 407 883 428 875 q 363 890 386 890 q 319 878 339 890 q 287 853 299 867 q 272 836 275 840 l 244 871 q 265 897 244 874 q 317 939 285 919 q 390 958 350 958 q 446 949 421 958 q 503 924 471 940 q 551 902 531 910 q 593 894 571 894 q 632 903 615 894 q 658 920 649 911 q 669 932 668 929 l 696 897 z "},"f":{"ha":433,"x_min":-114,"x_max":588,"o":"m 146 626 l 154 685 l 228 693 l 242 793 q 312 991 261 928 q 461 1054 363 1054 q 522 1045 494 1054 q 567 1026 550 1036 q 588 1014 583 1017 l 565 960 q 549 970 563 963 q 515 985 536 978 q 469 992 493 992 q 410 974 433 992 q 369 910 386 956 q 342 782 353 864 l 329 694 l 529 694 l 519 626 l 319 626 l 224 -57 q -15 -361 181 -361 q -70 -354 -49 -361 q -102 -340 -92 -347 q -114 -331 -112 -333 l -85 -274 q -76 -281 -83 -275 q -53 -291 -68 -286 q -19 -296 -39 -296 q 69 -240 35 -296 q 122 -57 104 -185 l 218 626 l 146 626 z "},"g":{"ha":626,"x_min":11,"x_max":692,"o":"m 418 708 q 510 694 469 708 l 692 693 l 686 639 l 593 636 q 632 507 632 586 q 556 292 632 368 q 350 215 479 215 q 265 226 306 215 q 210 151 210 197 q 325 89 210 89 q 606 -100 606 89 q 522 -291 606 -221 q 285 -361 439 -361 q 82 -309 153 -361 q 11 -158 11 -257 q 53 -24 11 -75 q 158 50 96 28 q 138 119 138 78 q 215 249 138 199 q 149 318 172 274 q 126 422 126 363 q 209 639 126 569 q 418 708 292 708 m 535 513 q 407 649 535 649 q 274 595 325 649 q 224 417 224 542 q 258 308 224 346 q 354 271 292 271 q 488 332 440 271 q 535 513 535 393 m 310 1 q 208 15 249 1 q 122 -44 156 -3 q 88 -151 88 -85 q 142 -262 88 -226 q 293 -299 196 -299 q 457 -254 400 -299 q 514 -126 514 -210 q 463 -28 514 -58 q 310 1 411 1 z "},"ğ":{"ha":626,"x_min":11,"x_max":692,"o":"m 436 861 q 517 879 486 861 q 563 918 549 897 q 578 943 578 939 l 578 946 l 640 938 q 620 895 640 929 q 553 831 600 861 q 428 800 506 800 q 287 851 318 800 q 256 938 256 901 l 319 946 l 319 943 q 327 917 319 936 q 360 879 335 897 q 436 861 386 861 m 418 708 q 510 694 469 708 l 692 693 l 686 639 l 593 636 q 632 507 632 586 q 556 292 632 368 q 350 215 479 215 q 265 226 306 215 q 210 151 210 197 q 325 89 210 89 q 606 -100 606 89 q 522 -291 606 -221 q 285 -361 439 -361 q 82 -309 153 -361 q 11 -158 11 -257 q 53 -24 11 -75 q 158 50 96 28 q 138 119 138 78 q 215 249 138 199 q 149 318 172 274 q 126 422 126 363 q 209 639 126 569 q 418 708 292 708 m 535 513 q 407 649 535 649 q 274 595 325 649 q 224 417 224 542 q 258 308 224 346 q 354 271 292 271 q 488 332 440 271 q 535 513 535 393 m 310 1 q 208 15 249 1 q 122 -44 156 -3 q 88 -151 88 -85 q 142 -262 88 -226 q 293 -299 196 -299 q 457 -254 400 -299 q 514 -126 514 -210 q 463 -28 514 -58 q 310 1 411 1 z "},"ģ":{"ha":626,"x_min":11,"x_max":692,"o":"m 463 804 q 426 792 446 792 q 394 804 407 792 l 389 813 q 378 858 378 832 q 422 1001 378 919 q 529 1129 467 1082 l 551 1103 q 469 1001 500 1061 q 439 892 438 940 q 474 879 461 892 q 483 850 483 868 q 463 804 483 821 m 418 708 q 510 694 469 708 l 692 693 l 686 639 l 593 636 q 632 507 632 586 q 556 292 632 368 q 350 215 479 215 q 265 226 306 215 q 210 151 210 197 q 325 89 210 89 q 606 -100 606 89 q 522 -291 606 -221 q 285 -361 439 -361 q 82 -309 153 -361 q 11 -158 11 -257 q 53 -24 11 -75 q 158 50 96 28 q 138 119 138 78 q 215 249 138 199 q 149 318 172 274 q 126 422 126 363 q 209 639 126 569 q 418 708 292 708 m 535 513 q 407 649 535 649 q 274 595 325 649 q 224 417 224 542 q 258 308 224 346 q 354 271 292 271 q 488 332 440 271 q 535 513 535 393 m 310 1 q 208 15 249 1 q 122 -44 156 -3 q 88 -151 88 -85 q 142 -262 88 -226 q 293 -299 196 -299 q 457 -254 400 -299 q 514 -126 514 -210 q 463 -28 514 -58 q 310 1 411 1 z "},"h":{"ha":708,"x_min":103,"x_max":686,"o":"m 350 1044 l 292 633 l 294 633 q 321 656 294 636 q 393 692 347 675 q 500 708 439 708 q 638 665 589 708 q 686 536 686 622 q 682 485 686 513 l 615 0 l 514 0 l 579 472 q 582 517 582 488 q 551 606 582 578 q 460 635 521 635 q 346 610 390 635 q 282 565 301 585 l 203 0 l 103 0 l 247 1039 l 350 1044 z "},"i":{"ha":307,"x_min":103,"x_max":338,"o":"m 244 939 q 288 954 261 954 q 326 940 313 954 q 338 904 338 928 q 314 850 338 874 q 269 835 292 835 q 232 850 244 835 q 219 886 219 865 q 226 915 219 901 q 244 939 232 929 m 203 0 l 103 0 l 200 694 l 300 694 l 203 0 z "},"ı":{"ha":307,"x_min":103,"x_max":300,"o":"m 203 0 l 103 0 l 200 694 l 300 694 l 203 0 z "},"í":{"ha":307,"x_min":103,"x_max":438,"o":"m 438 981 l 271 793 l 219 800 l 353 1001 l 438 981 m 203 0 l 103 0 l 200 694 l 300 694 l 203 0 z "},"î":{"ha":307,"x_min":97,"x_max":454,"o":"m 454 874 l 422 829 l 289 964 l 118 829 l 97 874 l 271 1032 l 326 1032 l 454 874 m 203 0 l 103 0 l 200 694 l 300 694 l 203 0 z "},"ï":{"ha":307,"x_min":103,"x_max":438,"o":"m 140 936 q 178 950 158 950 q 213 936 199 950 q 224 904 224 925 q 201 854 224 876 q 164 840 183 840 q 129 854 143 840 q 118 886 118 868 q 140 936 118 914 m 354 936 q 392 950 372 950 q 426 936 413 950 q 438 904 438 922 q 415 854 438 876 q 376 840 397 840 q 343 854 357 840 q 332 886 332 868 q 354 936 332 914 m 203 0 l 103 0 l 200 694 l 300 694 l 203 0 z "},"ị":{"ha":307,"x_min":69,"x_max":338,"o":"m 244 939 q 288 954 261 954 q 326 940 313 954 q 338 904 338 928 q 314 850 338 874 q 269 835 292 835 q 232 850 244 835 q 219 886 219 865 q 226 915 219 901 q 244 939 232 929 m 203 0 l 103 0 l 200 694 l 300 694 l 203 0 m 93 -125 q 135 -110 110 -110 q 174 -125 160 -110 q 185 -158 185 -136 q 163 -210 185 -189 q 119 -225 143 -225 q 82 -210 93 -225 q 69 -176 69 -197 q 93 -125 69 -146 z "},"ì":{"ha":307,"x_min":103,"x_max":310,"o":"m 222 1006 l 310 807 l 251 796 l 133 983 l 222 1006 m 203 0 l 103 0 l 200 694 l 300 694 l 203 0 z "},"ỉ":{"ha":307,"x_min":103,"x_max":388,"o":"m 203 0 l 103 0 l 200 694 l 300 694 l 203 0 m 236 758 q 240 788 236 763 q 267 814 242 796 q 298 840 286 828 q 314 869 310 853 q 315 888 315 876 q 305 916 315 907 q 271 925 294 925 q 240 919 254 925 q 216 908 225 914 q 206 901 207 903 l 186 961 q 206 970 190 964 q 245 983 222 976 q 289 989 268 989 q 360 968 332 989 q 388 904 388 947 q 385 875 388 886 q 366 834 381 849 q 325 803 351 819 q 302 787 310 793 q 293 771 294 781 l 290 760 l 236 758 z "},"ī":{"ha":307,"x_min":103,"x_max":413,"o":"m 406 883 l 149 883 l 156 933 l 413 933 l 406 883 m 203 0 l 103 0 l 200 694 l 300 694 l 203 0 z "},"į":{"ha":307,"x_min":-57,"x_max":336,"o":"m 243 939 q 286 954 260 954 q 325 940 311 954 q 336 904 336 928 q 313 850 336 874 q 268 835 290 835 q 231 850 243 835 q 218 886 218 865 q 224 915 218 901 q 243 939 231 929 m 153 0 q 60 -78 107 -25 q 13 -211 13 -132 q 49 -283 13 -264 q 146 -303 86 -303 l 139 -347 q -2 -319 53 -347 q -57 -217 -57 -292 q -8 -87 -57 -144 q 103 6 40 -31 l 200 694 l 300 694 l 203 0 l 153 0 z "},"ĩ":{"ha":307,"x_min":57,"x_max":508,"o":"m 203 0 l 103 0 l 200 694 l 300 694 l 203 0 m 508 897 q 492 876 508 894 q 447 842 475 858 q 381 826 418 826 q 328 835 353 826 q 274 860 304 843 q 219 883 240 875 q 175 890 199 890 q 131 878 151 890 q 99 853 111 867 q 85 836 88 840 l 57 871 q 77 897 57 874 q 130 939 97 919 q 203 958 163 958 q 258 949 233 958 q 315 924 283 940 q 363 902 343 910 q 406 894 383 894 q 444 903 428 894 q 471 920 461 911 q 482 932 481 929 l 508 897 z "},"j":{"ha":331,"x_min":-117,"x_max":363,"o":"m 269 939 q 313 954 286 954 q 351 940 338 954 q 363 904 363 928 q 339 850 363 874 q 294 835 317 835 q 257 850 269 835 q 244 886 244 865 q 251 915 244 901 q 269 939 257 929 m 326 694 l 221 -57 q -18 -361 178 -361 q -73 -354 -51 -361 q -105 -340 -94 -347 q -117 -331 -115 -333 l -87 -274 q -78 -281 -86 -275 q -56 -291 -71 -286 q -22 -296 -42 -296 q 67 -240 33 -296 q 119 -57 101 -185 l 225 694 l 326 694 z "},"ȷ":{"ha":331,"x_min":-117,"x_max":326,"o":"m 326 694 l 221 -57 q -18 -361 178 -361 q -73 -354 -51 -361 q -105 -340 -94 -347 q -117 -331 -115 -333 l -87 -274 q -78 -281 -86 -275 q -56 -291 -71 -286 q -22 -296 -42 -296 q 67 -240 33 -296 q 119 -57 101 -185 l 225 694 l 326 694 z "},"k":{"ha":632,"x_min":103,"x_max":669,"o":"m 247 1039 l 350 1044 l 256 375 l 350 435 l 593 694 l 669 694 l 400 410 l 601 0 l 485 0 l 314 350 l 246 311 l 203 0 l 103 0 l 247 1039 z "},"ķ":{"ha":632,"x_min":103,"x_max":669,"o":"m 247 1039 l 350 1044 l 256 375 l 350 435 l 593 694 l 669 694 l 400 410 l 601 0 l 485 0 l 314 350 l 246 311 l 203 0 l 103 0 l 247 1039 m 294 -75 q 331 -62 311 -62 q 363 -75 350 -62 l 368 -83 q 379 -129 379 -103 q 335 -272 379 -190 q 228 -400 290 -353 l 206 -374 q 288 -272 257 -332 q 318 -162 319 -211 q 283 -150 296 -162 q 274 -121 274 -139 q 294 -75 274 -92 z "},"l":{"ha":307,"x_min":103,"x_max":350,"o":"m 204 0 l 103 0 l 249 1039 l 350 1044 l 204 0 z "},"ĺ":{"ha":307,"x_min":103,"x_max":501,"o":"m 501 1293 l 335 1106 l 283 1113 l 417 1314 l 501 1293 m 204 0 l 103 0 l 249 1039 l 350 1044 l 204 0 z "},"ľ":{"ha":307,"x_min":103,"x_max":549,"o":"m 549 1058 l 435 764 l 392 768 l 481 1068 l 549 1058 m 204 0 l 103 0 l 249 1039 l 350 1044 l 204 0 z "},"ļ":{"ha":307,"x_min":21,"x_max":350,"o":"m 204 0 l 103 0 l 249 1039 l 350 1044 l 204 0 m 110 -75 q 146 -62 126 -62 q 178 -75 165 -62 l 183 -83 q 194 -129 194 -103 q 150 -272 194 -190 q 43 -400 106 -353 l 21 -374 q 103 -272 72 -332 q 133 -162 135 -211 q 99 -150 111 -162 q 89 -121 89 -139 q 110 -75 89 -92 z "},"ł":{"ha":360,"x_min":65,"x_max":483,"o":"m 313 585 l 461 689 l 483 656 l 304 529 l 231 0 l 129 0 l 192 451 l 88 378 l 65 411 l 200 506 l 275 1039 l 376 1044 l 313 585 z "},"m":{"ha":1006,"x_min":103,"x_max":986,"o":"m 283 694 l 286 622 q 366 679 314 650 q 492 708 418 708 q 583 688 549 708 q 628 622 617 667 q 708 679 656 650 q 840 708 761 708 q 951 676 915 708 q 986 569 986 644 q 982 510 986 543 l 911 0 l 810 0 l 881 499 q 885 546 885 526 q 863 617 885 597 q 794 636 840 636 q 694 608 738 636 q 633 557 651 581 l 629 511 l 557 0 l 457 0 l 526 499 q 531 547 531 526 q 509 617 531 597 q 443 636 488 636 q 342 610 385 636 q 282 561 300 583 l 204 0 l 103 0 l 200 694 l 283 694 z "},"n":{"ha":710,"x_min":103,"x_max":686,"o":"m 283 694 l 289 631 q 501 708 367 708 q 638 665 590 708 q 686 536 686 622 q 682 485 686 513 l 615 0 l 514 0 l 581 472 q 583 514 583 488 q 457 635 583 635 q 346 610 388 635 q 283 565 304 586 l 204 0 l 103 0 l 200 694 l 283 694 z "},"ń":{"ha":710,"x_min":103,"x_max":686,"o":"m 622 981 l 456 793 l 404 800 l 538 1001 l 622 981 m 283 694 l 289 631 q 501 708 367 708 q 638 665 590 708 q 686 536 686 622 q 682 485 686 513 l 615 0 l 514 0 l 581 472 q 583 514 583 488 q 457 635 583 635 q 346 610 388 635 q 283 565 304 586 l 204 0 l 103 0 l 200 694 l 283 694 z "},"ň":{"ha":710,"x_min":103,"x_max":689,"o":"m 306 967 l 349 1000 l 482 860 l 654 1000 l 689 964 l 500 796 l 444 796 l 306 967 m 283 694 l 289 631 q 501 708 367 708 q 638 665 590 708 q 686 536 686 622 q 682 485 686 513 l 615 0 l 514 0 l 581 472 q 583 514 583 488 q 457 635 583 635 q 346 610 388 635 q 283 565 304 586 l 204 0 l 103 0 l 200 694 l 283 694 z "},"ņ":{"ha":710,"x_min":103,"x_max":686,"o":"m 283 694 l 289 631 q 501 708 367 708 q 638 665 590 708 q 686 536 686 622 q 682 485 686 513 l 615 0 l 514 0 l 581 472 q 583 514 583 488 q 457 635 583 635 q 346 610 388 635 q 283 565 304 586 l 204 0 l 103 0 l 200 694 l 283 694 m 319 -75 q 356 -62 336 -62 q 388 -75 375 -62 l 393 -83 q 404 -129 404 -103 q 360 -272 404 -190 q 253 -400 315 -353 l 231 -374 q 313 -272 282 -332 q 343 -162 344 -211 q 308 -150 321 -162 q 299 -121 299 -139 q 319 -75 299 -92 z "},"ñ":{"ha":710,"x_min":103,"x_max":692,"o":"m 692 897 q 675 876 692 894 q 630 842 658 858 q 564 826 601 826 q 512 835 536 826 q 457 860 488 843 q 403 883 424 875 q 358 890 382 890 q 315 878 335 890 q 283 853 294 867 q 268 836 271 840 l 240 871 q 260 897 240 874 q 313 939 281 919 q 386 958 346 958 q 442 949 417 958 q 499 924 467 940 q 547 902 526 910 q 589 894 567 894 q 628 903 611 894 q 654 920 644 911 q 665 932 664 929 l 692 897 m 283 694 l 289 631 q 501 708 367 708 q 638 665 590 708 q 686 536 686 622 q 682 485 686 513 l 615 0 l 514 0 l 581 472 q 583 514 583 488 q 457 635 583 635 q 346 610 388 635 q 283 565 304 586 l 204 0 l 103 0 l 200 694 l 283 694 z "},"o":{"ha":696,"x_min":93,"x_max":699,"o":"m 699 422 q 656 193 699 292 q 534 40 614 94 q 344 -14 454 -14 q 158 61 224 -14 q 93 272 93 136 q 185 590 93 471 q 447 708 278 708 q 633 633 568 708 q 699 422 699 558 m 436 647 q 258 544 319 647 q 197 253 197 442 q 237 101 197 156 q 357 47 276 47 q 533 149 472 47 q 594 440 594 251 q 555 593 594 539 q 436 647 515 647 z "},"ó":{"ha":696,"x_min":93,"x_max":699,"o":"m 626 981 l 460 793 l 408 800 l 542 1001 l 626 981 m 699 422 q 656 193 699 292 q 534 40 614 94 q 344 -14 454 -14 q 158 61 224 -14 q 93 272 93 136 q 185 590 93 471 q 447 708 278 708 q 633 633 568 708 q 699 422 699 558 m 436 647 q 258 544 319 647 q 197 253 197 442 q 237 101 197 156 q 357 47 276 47 q 533 149 472 47 q 594 440 594 251 q 555 593 594 539 q 436 647 515 647 z "},"ô":{"ha":696,"x_min":93,"x_max":699,"o":"m 640 874 l 608 829 l 475 964 l 304 829 l 283 874 l 457 1032 l 513 1032 l 640 874 m 699 422 q 656 193 699 292 q 534 40 614 94 q 344 -14 454 -14 q 158 61 224 -14 q 93 272 93 136 q 185 590 93 471 q 447 708 278 708 q 633 633 568 708 q 699 422 699 558 m 436 647 q 258 544 319 647 q 197 253 197 442 q 237 101 197 156 q 357 47 276 47 q 533 149 472 47 q 594 440 594 251 q 555 593 594 539 q 436 647 515 647 z "},"ố":{"ha":696,"x_min":93,"x_max":853,"o":"m 699 422 q 656 193 699 292 q 534 40 614 94 q 344 -14 454 -14 q 158 61 224 -14 q 93 272 93 136 q 185 590 93 471 q 447 708 278 708 q 633 633 568 708 q 699 422 699 558 m 436 647 q 258 544 319 647 q 197 253 197 442 q 237 101 197 156 q 357 47 276 47 q 533 149 472 47 q 594 440 594 251 q 555 593 594 539 q 436 647 515 647 m 650 831 l 618 786 l 485 921 l 314 786 l 293 831 l 467 989 l 522 989 l 650 831 m 853 1122 l 686 935 l 635 942 l 768 1143 l 853 1122 z "},"ộ":{"ha":696,"x_min":93,"x_max":699,"o":"m 699 422 q 656 193 699 292 q 534 40 614 94 q 344 -14 454 -14 q 158 61 224 -14 q 93 272 93 136 q 185 590 93 471 q 447 708 278 708 q 633 633 568 708 q 699 422 699 558 m 436 647 q 258 544 319 647 q 197 253 197 442 q 237 101 197 156 q 357 47 276 47 q 533 149 472 47 q 594 440 594 251 q 555 593 594 539 q 436 647 515 647 m 293 -125 q 335 -110 310 -110 q 374 -125 360 -110 q 385 -158 385 -136 q 363 -210 385 -189 q 319 -225 343 -225 q 282 -210 293 -225 q 269 -176 269 -197 q 293 -125 269 -146 m 650 831 l 618 786 l 485 921 l 314 786 l 293 831 l 467 989 l 522 989 l 650 831 z "},"ồ":{"ha":696,"x_min":93,"x_max":743,"o":"m 699 422 q 656 193 699 292 q 534 40 614 94 q 344 -14 454 -14 q 158 61 224 -14 q 93 272 93 136 q 185 590 93 471 q 447 708 278 708 q 633 633 568 708 q 699 422 699 558 m 436 647 q 258 544 319 647 q 197 253 197 442 q 237 101 197 156 q 357 47 276 47 q 533 149 472 47 q 594 440 594 251 q 555 593 594 539 q 436 647 515 647 m 650 831 l 618 786 l 485 921 l 314 786 l 293 831 l 467 989 l 522 989 l 650 831 m 656 1164 l 743 965 l 685 954 l 567 1142 l 656 1164 z "},"ổ":{"ha":696,"x_min":93,"x_max":803,"o":"m 699 422 q 656 193 699 292 q 534 40 614 94 q 344 -14 454 -14 q 158 61 224 -14 q 93 272 93 136 q 185 590 93 471 q 447 708 278 708 q 633 633 568 708 q 699 422 699 558 m 436 647 q 258 544 319 647 q 197 253 197 442 q 237 101 197 156 q 357 47 276 47 q 533 149 472 47 q 594 440 594 251 q 555 593 594 539 q 436 647 515 647 m 650 831 l 618 786 l 485 921 l 314 786 l 293 831 l 467 989 l 522 989 l 650 831 m 651 944 q 656 974 651 949 q 682 1000 657 982 q 713 1026 701 1014 q 729 1056 725 1039 q 731 1074 731 1063 q 720 1102 731 1093 q 686 1111 710 1111 q 655 1106 669 1111 q 631 1094 640 1100 q 621 1088 622 1089 l 601 1147 q 622 1156 606 1150 q 660 1169 638 1163 q 704 1175 683 1175 q 775 1154 747 1175 q 803 1090 803 1133 q 800 1061 803 1072 q 781 1020 796 1035 q 740 989 767 1006 q 717 973 725 979 q 708 957 710 967 l 706 946 l 651 944 z "},"ỗ":{"ha":696,"x_min":93,"x_max":742,"o":"m 699 422 q 656 193 699 292 q 534 40 614 94 q 344 -14 454 -14 q 158 61 224 -14 q 93 272 93 136 q 185 590 93 471 q 447 708 278 708 q 633 633 568 708 q 699 422 699 558 m 436 647 q 258 544 319 647 q 197 253 197 442 q 237 101 197 156 q 357 47 276 47 q 533 149 472 47 q 594 440 594 251 q 555 593 594 539 q 436 647 515 647 m 650 831 l 618 786 l 485 921 l 314 786 l 293 831 l 467 989 l 522 989 l 650 831 m 742 1083 q 725 1063 742 1081 q 680 1028 708 1044 q 614 1013 651 1013 q 562 1021 586 1013 q 507 1046 538 1029 q 453 1069 474 1061 q 408 1076 432 1076 q 365 1065 385 1076 q 333 1040 344 1053 q 318 1022 321 1026 l 290 1057 q 310 1083 290 1060 q 363 1125 331 1106 q 436 1144 396 1144 q 492 1135 467 1144 q 549 1110 517 1126 q 597 1088 576 1096 q 639 1081 617 1081 q 678 1089 661 1081 q 704 1106 694 1097 q 715 1118 714 1115 l 742 1083 z "},"ö":{"ha":696,"x_min":93,"x_max":699,"o":"m 326 936 q 364 950 344 950 q 399 936 385 950 q 410 904 410 925 q 388 854 410 876 q 350 840 369 840 q 315 854 329 840 q 304 886 304 868 q 326 936 304 914 m 540 936 q 578 950 558 950 q 613 936 599 950 q 624 904 624 922 q 601 854 624 876 q 563 840 583 840 q 529 854 543 840 q 518 886 518 868 q 540 936 518 914 m 699 422 q 656 193 699 292 q 534 40 614 94 q 344 -14 454 -14 q 158 61 224 -14 q 93 272 93 136 q 185 590 93 471 q 447 708 278 708 q 633 633 568 708 q 699 422 699 558 m 436 647 q 258 544 319 647 q 197 253 197 442 q 237 101 197 156 q 357 47 276 47 q 533 149 472 47 q 594 440 594 251 q 555 593 594 539 q 436 647 515 647 z "},"ọ":{"ha":696,"x_min":93,"x_max":699,"o":"m 699 422 q 656 193 699 292 q 534 40 614 94 q 344 -14 454 -14 q 158 61 224 -14 q 93 272 93 136 q 185 590 93 471 q 447 708 278 708 q 633 633 568 708 q 699 422 699 558 m 436 647 q 258 544 319 647 q 197 253 197 442 q 237 101 197 156 q 357 47 276 47 q 533 149 472 47 q 594 440 594 251 q 555 593 594 539 q 436 647 515 647 m 293 -125 q 335 -110 310 -110 q 374 -125 360 -110 q 385 -158 385 -136 q 363 -210 385 -189 q 319 -225 343 -225 q 282 -210 293 -225 q 269 -176 269 -197 q 293 -125 269 -146 z "},"ò":{"ha":696,"x_min":93,"x_max":699,"o":"m 411 1006 l 499 807 l 440 796 l 322 983 l 411 1006 m 699 422 q 656 193 699 292 q 534 40 614 94 q 344 -14 454 -14 q 158 61 224 -14 q 93 272 93 136 q 185 590 93 471 q 447 708 278 708 q 633 633 568 708 q 699 422 699 558 m 436 647 q 258 544 319 647 q 197 253 197 442 q 237 101 197 156 q 357 47 276 47 q 533 149 472 47 q 594 440 594 251 q 555 593 594 539 q 436 647 515 647 z "},"ỏ":{"ha":696,"x_min":93,"x_max":699,"o":"m 699 422 q 656 193 699 292 q 534 40 614 94 q 344 -14 454 -14 q 158 61 224 -14 q 93 272 93 136 q 185 590 93 471 q 447 708 278 708 q 633 633 568 708 q 699 422 699 558 m 436 647 q 258 544 319 647 q 197 253 197 442 q 237 101 197 156 q 357 47 276 47 q 533 149 472 47 q 594 440 594 251 q 555 593 594 539 q 436 647 515 647 m 431 758 q 435 788 431 763 q 461 814 436 796 q 492 840 481 828 q 508 869 504 853 q 510 888 510 876 q 499 916 510 907 q 465 925 489 925 q 434 919 449 925 q 410 908 419 914 q 400 901 401 903 l 381 961 q 401 970 385 964 q 440 983 417 976 q 483 989 463 989 q 554 968 526 989 q 582 904 582 947 q 579 875 582 886 q 560 834 575 849 q 519 803 546 819 q 497 787 504 793 q 488 771 489 781 l 485 760 l 431 758 z "},"ơ":{"ha":696,"x_min":93,"x_max":742,"o":"m 610 656 q 699 422 699 582 q 656 193 699 292 q 534 40 614 94 q 344 -14 454 -14 q 158 61 224 -14 q 93 272 93 136 q 185 590 93 471 q 447 708 278 708 q 539 694 501 708 q 613 726 583 697 q 656 818 643 756 l 742 818 q 694 717 729 758 q 610 656 660 675 m 357 47 q 533 149 472 47 q 594 440 594 251 q 555 593 594 539 q 436 647 515 647 q 258 544 319 647 q 197 253 197 442 q 237 101 197 156 q 357 47 276 47 z "},"ớ":{"ha":696,"x_min":93,"x_max":742,"o":"m 610 656 q 699 422 699 582 q 656 193 699 292 q 534 40 614 94 q 344 -14 454 -14 q 158 61 224 -14 q 93 272 93 136 q 185 590 93 471 q 447 708 278 708 q 539 694 501 708 q 613 726 583 697 q 656 818 643 756 l 742 818 q 694 717 729 758 q 610 656 660 675 m 357 47 q 533 149 472 47 q 594 440 594 251 q 555 593 594 539 q 436 647 515 647 q 258 544 319 647 q 197 253 197 442 q 237 101 197 156 q 357 47 276 47 m 588 981 l 421 793 l 369 800 l 503 1001 l 588 981 z "},"ợ":{"ha":696,"x_min":93,"x_max":742,"o":"m 610 656 q 699 422 699 582 q 656 193 699 292 q 534 40 614 94 q 344 -14 454 -14 q 158 61 224 -14 q 93 272 93 136 q 185 590 93 471 q 447 708 278 708 q 539 694 501 708 q 613 726 583 697 q 656 818 643 756 l 742 818 q 694 717 729 758 q 610 656 660 675 m 357 47 q 533 149 472 47 q 594 440 594 251 q 555 593 594 539 q 436 647 515 647 q 258 544 319 647 q 197 253 197 442 q 237 101 197 156 q 357 47 276 47 m 293 -125 q 335 -110 310 -110 q 374 -125 360 -110 q 385 -158 385 -136 q 363 -210 385 -189 q 319 -225 343 -225 q 282 -210 293 -225 q 269 -176 269 -197 q 293 -125 269 -146 z "},"ờ":{"ha":696,"x_min":93,"x_max":742,"o":"m 610 656 q 699 422 699 582 q 656 193 699 292 q 534 40 614 94 q 344 -14 454 -14 q 158 61 224 -14 q 93 272 93 136 q 185 590 93 471 q 447 708 278 708 q 539 694 501 708 q 613 726 583 697 q 656 818 643 756 l 742 818 q 694 717 729 758 q 610 656 660 675 m 357 47 q 533 149 472 47 q 594 440 594 251 q 555 593 594 539 q 436 647 515 647 q 258 544 319 647 q 197 253 197 442 q 237 101 197 156 q 357 47 276 47 m 479 1006 l 567 807 l 508 796 l 390 983 l 479 1006 z "},"ở":{"ha":696,"x_min":93,"x_max":742,"o":"m 610 656 q 699 422 699 582 q 656 193 699 292 q 534 40 614 94 q 344 -14 454 -14 q 158 61 224 -14 q 93 272 93 136 q 185 590 93 471 q 447 708 278 708 q 539 694 501 708 q 613 726 583 697 q 656 818 643 756 l 742 818 q 694 717 729 758 q 610 656 660 675 m 357 47 q 533 149 472 47 q 594 440 594 251 q 555 593 594 539 q 436 647 515 647 q 258 544 319 647 q 197 253 197 442 q 237 101 197 156 q 357 47 276 47 m 431 758 q 435 788 431 763 q 461 814 436 796 q 492 840 481 828 q 508 869 504 853 q 510 888 510 876 q 499 916 510 907 q 465 925 489 925 q 434 919 449 925 q 410 908 419 914 q 400 901 401 903 l 381 961 q 401 970 385 964 q 440 983 417 976 q 483 989 463 989 q 554 968 526 989 q 582 904 582 947 q 579 875 582 886 q 560 834 575 849 q 519 803 546 819 q 497 787 504 793 q 488 771 489 781 l 485 760 l 431 758 z "},"ỡ":{"ha":696,"x_min":93,"x_max":742,"o":"m 610 656 q 699 422 699 582 q 656 193 699 292 q 534 40 614 94 q 344 -14 454 -14 q 158 61 224 -14 q 93 272 93 136 q 185 590 93 471 q 447 708 278 708 q 539 694 501 708 q 613 726 583 697 q 656 818 643 756 l 742 818 q 694 717 729 758 q 610 656 660 675 m 357 47 q 533 149 472 47 q 594 440 594 251 q 555 593 594 539 q 436 647 515 647 q 258 544 319 647 q 197 253 197 442 q 237 101 197 156 q 357 47 276 47 m 703 897 q 686 876 703 894 q 641 842 669 858 q 575 826 613 826 q 523 835 547 826 q 468 860 499 843 q 414 883 435 875 q 369 890 393 890 q 326 878 346 890 q 294 853 306 867 q 279 836 282 840 l 251 871 q 272 897 251 874 q 324 939 292 919 q 397 958 357 958 q 453 949 428 958 q 510 924 478 940 q 558 902 538 910 q 600 894 578 894 q 639 903 622 894 q 665 920 656 911 q 676 932 675 929 l 703 897 z "},"ő":{"ha":696,"x_min":93,"x_max":699,"o":"m 413 997 l 482 979 l 368 800 l 325 819 l 413 997 m 592 997 l 661 979 l 547 800 l 504 819 l 592 997 m 699 422 q 656 193 699 292 q 534 40 614 94 q 344 -14 454 -14 q 158 61 224 -14 q 93 272 93 136 q 185 590 93 471 q 447 708 278 708 q 633 633 568 708 q 699 422 699 558 m 436 647 q 258 544 319 647 q 197 253 197 442 q 237 101 197 156 q 357 47 276 47 q 533 149 472 47 q 594 440 594 251 q 555 593 594 539 q 436 647 515 647 z "},"ō":{"ha":696,"x_min":93,"x_max":699,"o":"m 600 883 l 343 883 l 350 933 l 607 933 l 600 883 m 699 422 q 656 193 699 292 q 534 40 614 94 q 344 -14 454 -14 q 158 61 224 -14 q 93 272 93 136 q 185 590 93 471 q 447 708 278 708 q 633 633 568 708 q 699 422 699 558 m 436 647 q 258 544 319 647 q 197 253 197 442 q 237 101 197 156 q 357 47 276 47 q 533 149 472 47 q 594 440 594 251 q 555 593 594 539 q 436 647 515 647 z "},"ø":{"ha":708,"x_min":71,"x_max":724,"o":"m 699 422 q 656 193 699 292 q 534 40 614 94 q 344 -14 454 -14 q 250 0 296 -14 l 119 -249 l 71 -240 l 207 19 q 122 117 151 53 q 93 272 93 182 q 185 590 93 471 q 447 708 278 708 q 558 688 510 708 l 672 903 l 724 894 l 601 663 q 674 566 649 628 q 699 422 699 504 m 436 647 q 258 544 319 647 q 197 253 197 442 q 244 92 197 143 l 524 622 q 436 647 485 647 m 594 440 q 560 585 594 533 l 283 63 q 357 47 317 47 q 533 149 472 47 q 594 440 594 251 z "},"õ":{"ha":696,"x_min":93,"x_max":699,"o":"m 694 897 q 678 876 694 894 q 633 842 661 858 q 567 826 604 826 q 515 835 539 826 q 460 860 490 843 q 406 883 426 875 q 361 890 385 890 q 317 878 338 890 q 285 853 297 867 q 271 836 274 840 l 243 871 q 263 897 243 874 q 316 939 283 919 q 389 958 349 958 q 444 949 419 958 q 501 924 469 940 q 549 902 529 910 q 592 894 569 894 q 631 903 614 894 q 657 920 647 911 q 668 932 667 929 l 694 897 m 699 422 q 656 193 699 292 q 534 40 614 94 q 344 -14 454 -14 q 158 61 224 -14 q 93 272 93 136 q 185 590 93 471 q 447 708 278 708 q 633 633 568 708 q 699 422 699 558 m 436 647 q 258 544 319 647 q 197 253 197 442 q 237 101 197 156 q 357 47 276 47 q 533 149 472 47 q 594 440 594 251 q 555 593 594 539 q 436 647 515 647 z "},"œ":{"ha":1124,"x_min":93,"x_max":1143,"o":"m 1094 96 q 1066 63 1094 92 q 985 10 1038 35 q 858 -14 933 -14 q 713 20 775 -14 q 617 121 650 54 q 501 21 569 56 q 344 -14 432 -14 q 158 61 224 -14 q 93 272 93 136 q 185 590 93 471 q 447 708 278 708 q 585 673 528 708 q 671 572 642 638 q 784 673 717 638 q 933 708 851 708 q 1087 656 1031 708 q 1143 525 1143 603 q 1030 355 1143 396 q 754 314 917 314 l 692 314 q 690 254 690 294 q 741 99 690 150 q 876 47 792 47 q 972 65 932 47 q 1035 105 1013 83 q 1058 129 1058 126 l 1094 96 m 921 649 q 774 574 832 649 q 697 367 715 500 l 757 367 q 969 399 885 367 q 1053 531 1053 431 q 1018 615 1053 582 q 921 649 983 649 m 436 647 q 258 544 319 647 q 197 253 197 442 q 237 101 197 156 q 357 47 276 47 q 533 149 472 47 q 594 440 594 251 q 555 593 594 539 q 436 647 515 647 z "},"p":{"ha":715,"x_min":54,"x_max":722,"o":"m 283 694 l 285 610 q 356 674 306 640 q 492 708 407 708 q 660 635 599 708 q 722 432 722 563 q 682 206 722 307 q 564 45 642 104 q 381 -14 486 -14 q 286 1 324 -14 q 230 33 249 15 q 211 53 211 50 l 210 53 l 154 -347 l 54 -350 l 200 694 l 283 694 m 450 640 q 343 608 385 640 q 281 547 301 576 l 219 114 q 265 74 232 96 q 357 53 297 53 q 549 153 483 53 q 615 436 615 254 q 572 590 615 540 q 450 640 529 640 z "},"þ":{"ha":714,"x_min":51,"x_max":721,"o":"m 349 1044 l 288 613 l 290 613 q 314 641 290 617 q 381 687 338 665 q 488 708 425 708 q 658 635 594 708 q 721 431 721 561 q 681 206 721 307 q 562 45 640 104 q 374 -14 483 -14 q 269 5 310 -14 q 208 46 229 24 l 153 -347 l 51 -350 l 247 1039 l 349 1044 m 218 114 q 263 74 231 94 q 357 53 294 53 q 549 156 483 53 q 615 442 615 258 q 572 590 615 539 q 450 640 529 640 q 360 618 399 640 q 301 571 322 596 q 279 542 279 546 l 278 542 l 218 114 z "},"q":{"ha":715,"x_min":92,"x_max":710,"o":"m 463 -350 l 524 83 l 521 83 q 498 54 521 79 q 432 8 475 29 q 326 -14 389 -14 q 155 60 218 -14 q 92 265 92 135 q 134 490 92 389 q 256 650 176 592 q 440 708 335 708 q 549 687 508 708 q 607 643 589 665 l 638 694 l 710 694 l 564 -347 l 463 -350 m 364 54 q 453 75 415 54 q 511 120 490 96 q 532 149 532 144 l 593 579 q 548 620 581 599 q 458 642 515 642 q 264 542 331 642 q 197 260 197 442 q 364 54 197 54 z "},"r":{"ha":456,"x_min":103,"x_max":539,"o":"m 521 610 q 474 622 510 614 q 411 631 439 631 q 342 604 372 631 q 295 547 313 578 q 274 501 278 517 l 274 500 l 203 0 l 103 0 l 200 694 l 274 694 l 269 551 q 289 599 269 558 q 344 674 308 639 q 429 708 379 708 q 492 699 456 708 q 539 686 528 690 l 521 610 z "},"ŕ":{"ha":456,"x_min":103,"x_max":544,"o":"m 544 981 l 378 793 l 326 800 l 460 1001 l 544 981 m 521 610 q 474 622 510 614 q 411 631 439 631 q 342 604 372 631 q 295 547 313 578 q 274 501 278 517 l 274 500 l 203 0 l 103 0 l 200 694 l 274 694 l 269 551 q 289 599 269 558 q 344 674 308 639 q 429 708 379 708 q 492 699 456 708 q 539 686 528 690 l 521 610 z "},"ř":{"ha":456,"x_min":103,"x_max":585,"o":"m 201 967 l 244 1000 l 378 860 l 550 1000 l 585 964 l 396 796 l 340 796 l 201 967 m 521 610 q 474 622 510 614 q 411 631 439 631 q 342 604 372 631 q 295 547 313 578 q 274 501 278 517 l 274 500 l 203 0 l 103 0 l 200 694 l 274 694 l 269 551 q 289 599 269 558 q 344 674 308 639 q 429 708 379 708 q 492 699 456 708 q 539 686 528 690 l 521 610 z "},"ŗ":{"ha":456,"x_min":18,"x_max":539,"o":"m 521 610 q 474 622 510 614 q 411 631 439 631 q 342 604 372 631 q 295 547 313 578 q 274 501 278 517 l 274 500 l 203 0 l 103 0 l 200 694 l 274 694 l 269 551 q 289 599 269 558 q 344 674 308 639 q 429 708 379 708 q 492 699 456 708 q 539 686 528 690 l 521 610 m 107 -75 q 143 -62 124 -62 q 175 -75 163 -62 l 181 -83 q 192 -129 192 -103 q 147 -272 192 -190 q 40 -400 103 -353 l 18 -374 q 101 -272 69 -332 q 131 -162 132 -211 q 96 -150 108 -162 q 86 -121 86 -139 q 107 -75 86 -92 z "},"s":{"ha":567,"x_min":65,"x_max":582,"o":"m 107 135 q 126 108 107 131 q 180 67 144 86 q 267 47 215 47 q 398 92 353 47 q 443 197 443 136 q 425 255 443 232 q 381 291 407 278 q 310 324 356 304 q 226 363 258 344 q 171 413 193 381 q 149 494 149 444 q 223 651 149 593 q 410 708 297 708 q 493 695 454 708 q 557 666 532 682 q 582 649 582 650 l 564 589 q 537 608 558 593 q 481 636 515 622 q 410 650 447 650 q 293 613 338 650 q 249 521 249 576 q 283 445 249 471 q 386 392 317 419 q 474 350 442 368 q 528 300 506 332 q 551 218 551 268 q 521 103 551 156 q 428 18 490 50 q 275 -14 367 -14 q 155 8 201 -14 q 87 56 108 31 q 65 86 65 81 l 107 135 z "},"ś":{"ha":567,"x_min":65,"x_max":590,"o":"m 590 981 l 424 793 l 372 800 l 506 1001 l 590 981 m 107 135 q 126 108 107 131 q 180 67 144 86 q 267 47 215 47 q 398 92 353 47 q 443 197 443 136 q 425 255 443 232 q 381 291 407 278 q 310 324 356 304 q 226 363 258 344 q 171 413 193 381 q 149 494 149 444 q 223 651 149 593 q 410 708 297 708 q 493 695 454 708 q 557 666 532 682 q 582 649 582 650 l 564 589 q 537 608 558 593 q 481 636 515 622 q 410 650 447 650 q 293 613 338 650 q 249 521 249 576 q 283 445 249 471 q 386 392 317 419 q 474 350 442 368 q 528 300 506 332 q 551 218 551 268 q 521 103 551 156 q 428 18 490 50 q 275 -14 367 -14 q 155 8 201 -14 q 87 56 108 31 q 65 86 65 81 l 107 135 z "},"š":{"ha":567,"x_min":65,"x_max":618,"o":"m 235 967 l 278 1000 l 411 860 l 583 1000 l 618 964 l 429 796 l 374 796 l 235 967 m 107 135 q 126 108 107 131 q 180 67 144 86 q 267 47 215 47 q 398 92 353 47 q 443 197 443 136 q 425 255 443 232 q 381 291 407 278 q 310 324 356 304 q 226 363 258 344 q 171 413 193 381 q 149 494 149 444 q 223 651 149 593 q 410 708 297 708 q 493 695 454 708 q 557 666 532 682 q 582 649 582 650 l 564 589 q 537 608 558 593 q 481 636 515 622 q 410 650 447 650 q 293 613 338 650 q 249 521 249 576 q 283 445 249 471 q 386 392 317 419 q 474 350 442 368 q 528 300 506 332 q 551 218 551 268 q 521 103 551 156 q 428 18 490 50 q 275 -14 367 -14 q 155 8 201 -14 q 87 56 108 31 q 65 86 65 81 l 107 135 z "},"ş":{"ha":567,"x_min":65,"x_max":582,"o":"m 107 135 q 126 108 107 131 q 180 67 144 86 q 267 47 215 47 q 398 92 353 47 q 443 197 443 136 q 425 255 443 232 q 381 291 407 278 q 310 324 356 304 q 226 363 258 344 q 171 413 193 381 q 149 494 149 444 q 223 651 149 593 q 410 708 297 708 q 493 695 454 708 q 557 666 532 682 q 582 649 582 650 l 564 589 q 537 608 558 593 q 481 636 515 622 q 410 650 447 650 q 293 613 338 650 q 249 521 249 576 q 283 445 249 471 q 386 392 317 419 q 474 350 442 368 q 528 300 506 332 q 551 218 551 268 q 487 58 551 124 q 297 -12 422 -7 l 276 -96 q 308 -106 276 -97 q 367 -137 340 -114 q 394 -201 394 -160 q 352 -308 394 -267 q 231 -349 310 -349 q 163 -335 189 -349 q 124 -308 136 -322 q 111 -290 111 -293 l 139 -262 q 150 -276 140 -265 q 178 -297 160 -287 q 225 -307 197 -307 q 305 -280 278 -307 q 332 -203 332 -253 q 306 -153 332 -167 q 253 -134 279 -139 q 226 -128 226 -129 l 257 -14 q 147 11 190 -11 q 85 57 104 33 q 65 86 65 81 l 107 135 z "},"ß":{"ha":760,"x_min":-117,"x_max":763,"o":"m 233 760 q 331 981 254 907 q 528 1054 407 1054 q 679 1010 625 1054 q 733 888 733 965 q 685 751 733 803 q 568 674 638 699 q 763 403 763 628 q 677 92 763 199 q 439 -14 592 -14 q 355 -6 388 -14 q 307 12 322 3 q 292 22 292 21 l 315 81 q 328 71 317 78 q 363 57 339 64 q 422 50 386 50 q 594 142 531 50 q 657 411 657 233 q 603 576 657 525 q 433 628 550 628 l 436 639 l 442 694 q 494 706 442 690 q 590 764 547 722 q 632 881 632 806 q 601 963 632 933 q 514 992 571 992 q 395 935 439 992 q 335 760 351 878 l 221 -57 q -18 -361 178 -361 q -73 -354 -51 -361 q -105 -340 -94 -347 q -117 -331 -115 -333 l -87 -274 q -78 -281 -86 -275 q -56 -291 -71 -286 q -22 -296 -42 -296 q 67 -240 32 -296 q 119 -57 101 -185 l 233 760 z "},"ſ":{"ha":397,"x_min":-117,"x_max":585,"o":"m 239 793 q 309 991 258 928 q 458 1054 360 1054 q 519 1045 492 1054 q 564 1026 547 1036 q 585 1014 581 1017 l 563 960 q 547 970 560 963 q 512 985 533 978 q 465 992 490 992 q 384 947 413 992 q 339 782 356 901 l 219 -57 q -18 -361 176 -361 q -73 -354 -51 -361 q -105 -340 -94 -347 q -117 -331 -115 -333 l -87 -274 q -78 -281 -86 -275 q -56 -291 -71 -286 q -22 -296 -42 -296 q 67 -240 33 -296 q 119 -57 101 -185 l 239 793 z "},"t":{"ha":453,"x_min":143,"x_max":504,"o":"m 317 626 l 258 211 q 253 136 253 172 q 267 72 253 90 q 314 53 282 53 q 378 60 349 53 q 407 68 407 67 l 406 13 q 388 3 403 10 q 343 -8 372 -3 q 274 -14 314 -14 q 179 17 210 -14 q 149 119 149 49 q 154 186 149 153 l 215 626 l 143 626 l 153 685 l 225 693 l 294 914 l 357 914 l 326 694 l 504 694 l 494 626 l 317 626 z "},"ť":{"ha":453,"x_min":143,"x_max":611,"o":"m 611 1058 l 497 764 l 454 768 l 543 1068 l 611 1058 m 317 626 l 258 211 q 253 136 253 172 q 267 72 253 90 q 314 53 282 53 q 378 60 349 53 q 407 68 407 67 l 406 13 q 388 3 403 10 q 343 -8 372 -3 q 274 -14 314 -14 q 179 17 210 -14 q 149 119 149 49 q 154 186 149 153 l 215 626 l 143 626 l 153 685 l 225 693 l 294 914 l 357 914 l 326 694 l 504 694 l 494 626 l 317 626 z "},"ț":{"ha":453,"x_min":101,"x_max":504,"o":"m 317 626 l 258 211 q 253 136 253 172 q 267 72 253 90 q 314 53 282 53 q 378 60 349 53 q 407 68 407 67 l 406 13 q 388 3 403 10 q 343 -8 372 -3 q 274 -14 314 -14 q 179 17 210 -14 q 149 119 149 49 q 154 186 149 153 l 215 626 l 143 626 l 153 685 l 225 693 l 294 914 l 357 914 l 326 694 l 504 694 l 494 626 l 317 626 m 190 -75 q 226 -62 207 -62 q 258 -75 246 -62 l 264 -83 q 275 -129 275 -103 q 231 -272 275 -190 q 124 -400 186 -353 l 101 -374 q 184 -272 153 -332 q 214 -162 215 -211 q 179 -150 192 -162 q 169 -121 169 -139 q 190 -75 169 -92 z "},"u":{"ha":708,"x_min":119,"x_max":704,"o":"m 522 0 l 518 67 q 306 -14 438 -14 q 168 31 217 -14 q 119 161 119 75 q 124 210 119 185 l 192 694 l 292 694 l 228 231 q 224 185 224 206 q 347 60 224 60 q 436 76 397 60 q 499 110 475 92 q 522 131 522 128 l 603 694 l 704 694 l 606 0 l 522 0 z "},"ú":{"ha":708,"x_min":119,"x_max":704,"o":"m 638 981 l 471 793 l 419 800 l 553 1001 l 638 981 m 522 0 l 518 67 q 306 -14 438 -14 q 168 31 217 -14 q 119 161 119 75 q 124 210 119 185 l 192 694 l 292 694 l 228 231 q 224 185 224 206 q 347 60 224 60 q 436 76 397 60 q 499 110 475 92 q 522 131 522 128 l 603 694 l 704 694 l 606 0 l 522 0 z "},"û":{"ha":708,"x_min":119,"x_max":704,"o":"m 651 874 l 619 829 l 486 964 l 315 829 l 294 874 l 468 1032 l 524 1032 l 651 874 m 522 0 l 518 67 q 306 -14 438 -14 q 168 31 217 -14 q 119 161 119 75 q 124 210 119 185 l 192 694 l 292 694 l 228 231 q 224 185 224 206 q 347 60 224 60 q 436 76 397 60 q 499 110 475 92 q 522 131 522 128 l 603 694 l 704 694 l 606 0 l 522 0 z "},"ü":{"ha":708,"x_min":119,"x_max":704,"o":"m 338 936 q 375 950 356 950 q 410 936 396 950 q 421 904 421 925 q 399 854 421 876 q 361 840 381 840 q 326 854 340 840 q 315 886 315 868 q 338 936 315 914 m 551 936 q 589 950 569 950 q 624 936 610 950 q 635 904 635 922 q 613 854 635 876 q 574 840 594 840 q 540 854 554 840 q 529 886 529 868 q 551 936 529 914 m 522 0 l 518 67 q 306 -14 438 -14 q 168 31 217 -14 q 119 161 119 75 q 124 210 119 185 l 192 694 l 292 694 l 228 231 q 224 185 224 206 q 347 60 224 60 q 436 76 397 60 q 499 110 475 92 q 522 131 522 128 l 603 694 l 704 694 l 606 0 l 522 0 z "},"ụ":{"ha":708,"x_min":119,"x_max":704,"o":"m 522 0 l 518 67 q 306 -14 438 -14 q 168 31 217 -14 q 119 161 119 75 q 124 210 119 185 l 192 694 l 292 694 l 228 231 q 224 185 224 206 q 347 60 224 60 q 436 76 397 60 q 499 110 475 92 q 522 131 522 128 l 603 694 l 704 694 l 606 0 l 522 0 m 294 -125 q 336 -110 311 -110 q 375 -125 361 -110 q 386 -158 386 -136 q 364 -210 386 -189 q 321 -225 344 -225 q 283 -210 294 -225 q 271 -176 271 -197 q 294 -125 271 -146 z "},"ù":{"ha":708,"x_min":119,"x_max":704,"o":"m 422 1006 l 510 807 l 451 796 l 333 983 l 422 1006 m 522 0 l 518 67 q 306 -14 438 -14 q 168 31 217 -14 q 119 161 119 75 q 124 210 119 185 l 192 694 l 292 694 l 228 231 q 224 185 224 206 q 347 60 224 60 q 436 76 397 60 q 499 110 475 92 q 522 131 522 128 l 603 694 l 704 694 l 606 0 l 522 0 z "},"ủ":{"ha":708,"x_min":119,"x_max":704,"o":"m 522 0 l 518 67 q 306 -14 438 -14 q 168 31 217 -14 q 119 161 119 75 q 124 210 119 185 l 192 694 l 292 694 l 228 231 q 224 185 224 206 q 347 60 224 60 q 436 76 397 60 q 499 110 475 92 q 522 131 522 128 l 603 694 l 704 694 l 606 0 l 522 0 m 438 758 q 442 788 438 763 q 468 814 443 796 q 499 840 488 828 q 515 869 511 853 q 517 888 517 876 q 506 916 517 907 q 472 925 496 925 q 441 919 456 925 q 417 908 426 914 q 407 901 408 903 l 388 961 q 408 970 392 964 q 447 983 424 976 q 490 989 469 989 q 561 968 533 989 q 589 904 589 947 q 586 875 589 886 q 567 834 582 849 q 526 803 553 819 q 503 787 511 793 q 494 771 496 781 l 492 760 l 438 758 z "},"ư":{"ha":708,"x_min":119,"x_max":854,"o":"m 854 818 q 799 707 842 750 q 697 647 757 664 l 606 0 l 522 0 l 518 67 q 306 -14 438 -14 q 168 31 217 -14 q 119 161 119 75 q 124 210 119 185 l 192 694 l 292 694 l 228 231 q 224 185 224 206 q 347 60 224 60 q 436 76 397 60 q 499 110 475 92 q 522 131 522 128 l 603 694 l 644 694 q 723 724 692 694 q 768 818 754 753 l 854 818 z "},"ứ":{"ha":708,"x_min":119,"x_max":854,"o":"m 854 818 q 799 707 842 750 q 697 647 757 664 l 606 0 l 522 0 l 518 67 q 306 -14 438 -14 q 168 31 217 -14 q 119 161 119 75 q 124 210 119 185 l 192 694 l 292 694 l 228 231 q 224 185 224 206 q 347 60 224 60 q 436 76 397 60 q 499 110 475 92 q 522 131 522 128 l 603 694 l 644 694 q 723 724 692 694 q 768 818 754 753 l 854 818 m 593 981 l 426 793 l 375 800 l 508 1001 l 593 981 z "},"ự":{"ha":708,"x_min":119,"x_max":854,"o":"m 854 818 q 799 707 842 750 q 697 647 757 664 l 606 0 l 522 0 l 518 67 q 306 -14 438 -14 q 168 31 217 -14 q 119 161 119 75 q 124 210 119 185 l 192 694 l 292 694 l 228 231 q 224 185 224 206 q 347 60 224 60 q 436 76 397 60 q 499 110 475 92 q 522 131 522 128 l 603 694 l 644 694 q 723 724 692 694 q 768 818 754 753 l 854 818 m 238 -125 q 279 -110 254 -110 q 318 -125 304 -110 q 329 -158 329 -136 q 307 -210 329 -189 q 264 -225 288 -225 q 226 -210 238 -225 q 214 -176 214 -197 q 238 -125 214 -146 z "},"ừ":{"ha":708,"x_min":119,"x_max":854,"o":"m 854 818 q 799 707 842 750 q 697 647 757 664 l 606 0 l 522 0 l 518 67 q 306 -14 438 -14 q 168 31 217 -14 q 119 161 119 75 q 124 210 119 185 l 192 694 l 292 694 l 228 231 q 224 185 224 206 q 347 60 224 60 q 436 76 397 60 q 499 110 475 92 q 522 131 522 128 l 603 694 l 644 694 q 723 724 692 694 q 768 818 754 753 l 854 818 m 485 1006 l 572 807 l 514 796 l 396 983 l 485 1006 z "},"ử":{"ha":708,"x_min":119,"x_max":854,"o":"m 854 818 q 799 707 842 750 q 697 647 757 664 l 606 0 l 522 0 l 518 67 q 306 -14 438 -14 q 168 31 217 -14 q 119 161 119 75 q 124 210 119 185 l 192 694 l 292 694 l 228 231 q 224 185 224 206 q 347 60 224 60 q 436 76 397 60 q 499 110 475 92 q 522 131 522 128 l 603 694 l 644 694 q 723 724 692 694 q 768 818 754 753 l 854 818 m 436 758 q 440 788 436 763 q 467 814 442 796 q 498 840 486 828 q 514 869 510 853 q 515 888 515 876 q 505 916 515 907 q 471 925 494 925 q 440 919 454 925 q 416 908 425 914 q 406 901 407 903 l 386 961 q 406 970 390 964 q 445 983 422 976 q 489 989 468 989 q 560 968 532 989 q 588 904 588 947 q 585 875 588 886 q 566 834 581 849 q 525 803 551 819 q 502 787 510 793 q 493 771 494 781 l 490 760 l 436 758 z "},"ữ":{"ha":708,"x_min":119,"x_max":854,"o":"m 854 818 q 799 707 842 750 q 697 647 757 664 l 606 0 l 522 0 l 518 67 q 306 -14 438 -14 q 168 31 217 -14 q 119 161 119 75 q 124 210 119 185 l 192 694 l 292 694 l 228 231 q 224 185 224 206 q 347 60 224 60 q 436 76 397 60 q 499 110 475 92 q 522 131 522 128 l 603 694 l 644 694 q 723 724 692 694 q 768 818 754 753 l 854 818 m 708 897 q 692 876 708 894 q 647 842 675 858 q 581 826 618 826 q 528 835 553 826 q 474 860 504 843 q 419 883 440 875 q 375 890 399 890 q 331 878 351 890 q 299 853 311 867 q 285 836 288 840 l 257 871 q 277 897 257 874 q 330 939 297 919 q 403 958 363 958 q 458 949 433 958 q 515 924 483 940 q 563 902 543 910 q 606 894 583 894 q 644 903 628 894 q 671 920 661 911 q 682 932 681 929 l 708 897 z "},"ű":{"ha":708,"x_min":119,"x_max":704,"o":"m 431 997 l 500 979 l 386 800 l 343 819 l 431 997 m 610 997 l 679 979 l 565 800 l 522 819 l 610 997 m 522 0 l 518 67 q 306 -14 438 -14 q 168 31 217 -14 q 119 161 119 75 q 124 210 119 185 l 192 694 l 292 694 l 228 231 q 224 185 224 206 q 347 60 224 60 q 436 76 397 60 q 499 110 475 92 q 522 131 522 128 l 603 694 l 704 694 l 606 0 l 522 0 z "},"ū":{"ha":708,"x_min":119,"x_max":704,"o":"m 608 883 l 351 883 l 358 933 l 615 933 l 608 883 m 522 0 l 518 67 q 306 -14 438 -14 q 168 31 217 -14 q 119 161 119 75 q 124 210 119 185 l 192 694 l 292 694 l 228 231 q 224 185 224 206 q 347 60 224 60 q 436 76 397 60 q 499 110 475 92 q 522 131 522 128 l 603 694 l 704 694 l 606 0 l 522 0 z "},"ų":{"ha":708,"x_min":119,"x_max":704,"o":"m 579 0 q 486 -78 533 -25 q 439 -211 439 -132 q 476 -283 439 -264 q 572 -303 513 -303 l 565 -347 q 424 -319 479 -347 q 369 -217 369 -292 q 416 -92 369 -147 q 522 1 463 -36 l 518 67 q 306 -14 438 -14 q 168 31 217 -14 q 119 161 119 75 q 124 210 119 185 l 192 694 l 292 694 l 228 231 q 224 185 224 206 q 347 60 224 60 q 436 76 397 60 q 499 110 475 92 q 522 131 522 128 l 603 694 l 704 694 l 606 0 l 579 0 z "},"ů":{"ha":708,"x_min":119,"x_max":704,"o":"m 603 914 q 563 805 603 844 q 461 765 522 765 q 382 793 411 765 q 353 874 353 821 q 394 985 353 944 q 496 1025 435 1025 q 573 996 543 1025 q 603 914 603 967 m 564 911 q 544 968 564 949 q 492 988 524 988 q 421 960 449 988 q 393 878 393 932 q 413 821 393 840 q 467 801 433 801 q 537 829 510 801 q 564 911 564 857 m 522 0 l 518 67 q 306 -14 438 -14 q 168 31 217 -14 q 119 161 119 75 q 124 210 119 185 l 192 694 l 292 694 l 228 231 q 224 185 224 206 q 347 60 224 60 q 436 76 397 60 q 499 110 475 92 q 522 131 522 128 l 603 694 l 704 694 l 606 0 l 522 0 z "},"ũ":{"ha":708,"x_min":119,"x_max":710,"o":"m 522 0 l 518 67 q 306 -14 438 -14 q 168 31 217 -14 q 119 161 119 75 q 124 210 119 185 l 192 694 l 292 694 l 228 231 q 224 185 224 206 q 347 60 224 60 q 436 76 397 60 q 499 110 475 92 q 522 131 522 128 l 603 694 l 704 694 l 606 0 l 522 0 m 710 897 q 693 876 710 894 q 648 842 676 858 q 582 826 619 826 q 530 835 554 826 q 475 860 506 843 q 421 883 442 875 q 376 890 400 890 q 333 878 353 890 q 301 853 313 867 q 286 836 289 840 l 258 871 q 278 897 258 874 q 331 939 299 919 q 404 958 364 958 q 460 949 435 958 q 517 924 485 940 q 565 902 544 910 q 607 894 585 894 q 646 903 629 894 q 672 920 663 911 q 683 932 682 929 l 710 897 z "},"v":{"ha":607,"x_min":117,"x_max":686,"o":"m 117 694 l 236 694 l 335 110 l 608 694 l 686 694 l 349 0 l 257 0 l 117 694 z "},"w":{"ha":918,"x_min":118,"x_max":993,"o":"m 993 694 l 710 0 l 621 0 l 538 563 l 294 0 l 204 0 l 118 694 l 231 694 l 282 128 l 283 128 l 528 694 l 607 694 l 700 128 l 915 694 l 993 694 z "},"x":{"ha":615,"x_min":17,"x_max":676,"o":"m 415 363 l 597 0 l 479 0 l 335 300 l 100 0 l 17 0 l 296 346 l 125 694 l 244 694 l 376 404 l 594 694 l 676 694 l 415 363 z "},"y":{"ha":628,"x_min":-24,"x_max":704,"o":"m -4 -279 q 15 -287 0 -282 q 50 -292 31 -292 q 166 -224 114 -292 q 292 -10 218 -156 l 119 694 l 239 694 l 363 115 l 632 694 l 704 694 l 365 -10 q 213 -269 285 -178 q 57 -361 140 -361 q 14 -357 32 -361 q -13 -349 -4 -353 q -24 -343 -22 -344 l -4 -279 z "},"ý":{"ha":628,"x_min":-24,"x_max":704,"o":"m 617 981 l 450 793 l 399 800 l 532 1001 l 617 981 m -4 -279 q 15 -287 0 -282 q 50 -292 31 -292 q 166 -224 114 -292 q 292 -10 218 -156 l 119 694 l 239 694 l 363 115 l 632 694 l 704 694 l 365 -10 q 213 -269 285 -178 q 57 -361 140 -361 q 14 -357 32 -361 q -13 -349 -4 -353 q -24 -343 -22 -344 l -4 -279 z "},"ÿ":{"ha":628,"x_min":-24,"x_max":704,"o":"m 317 936 q 356 950 335 950 q 389 936 375 950 q 400 904 400 925 q 378 854 400 876 q 340 840 360 840 q 306 854 319 840 q 294 886 294 868 q 317 936 294 914 m 531 936 q 568 950 549 950 q 603 936 589 950 q 614 904 614 922 q 592 854 614 876 q 553 840 574 840 q 519 854 533 840 q 508 886 508 868 q 531 936 508 914 m -4 -279 q 15 -287 0 -282 q 50 -292 31 -292 q 166 -224 114 -292 q 292 -10 218 -156 l 119 694 l 239 694 l 363 115 l 632 694 l 704 694 l 365 -10 q 213 -269 285 -178 q 57 -361 140 -361 q 14 -357 32 -361 q -13 -349 -4 -353 q -24 -343 -22 -344 l -4 -279 z "},"ỵ":{"ha":628,"x_min":-24,"x_max":704,"o":"m -4 -279 q 15 -287 0 -282 q 50 -292 31 -292 q 166 -224 114 -292 q 292 -10 218 -156 l 119 694 l 239 694 l 363 115 l 632 694 l 704 694 l 365 -10 q 213 -269 285 -178 q 57 -361 140 -361 q 14 -357 32 -361 q -13 -349 -4 -353 q -24 -343 -22 -344 l -4 -279 m 376 -125 q 418 -110 393 -110 q 457 -125 443 -110 q 468 -158 468 -136 q 446 -210 468 -189 q 403 -225 426 -225 q 365 -210 376 -225 q 353 -176 353 -197 q 376 -125 353 -146 z "},"ỳ":{"ha":628,"x_min":-24,"x_max":704,"o":"m -4 -279 q 15 -287 0 -282 q 50 -292 31 -292 q 166 -224 114 -292 q 292 -10 218 -156 l 119 694 l 239 694 l 363 115 l 632 694 l 704 694 l 365 -10 q 213 -269 285 -178 q 57 -361 140 -361 q 14 -357 32 -361 q -13 -349 -4 -353 q -24 -343 -22 -344 l -4 -279 m 403 1006 l 490 807 l 432 796 l 314 983 l 403 1006 z "},"ỷ":{"ha":628,"x_min":-24,"x_max":704,"o":"m -4 -279 q 15 -287 0 -282 q 50 -292 31 -292 q 166 -224 114 -292 q 292 -10 218 -156 l 119 694 l 239 694 l 363 115 l 632 694 l 704 694 l 365 -10 q 213 -269 285 -178 q 57 -361 140 -361 q 14 -357 32 -361 q -13 -349 -4 -353 q -24 -343 -22 -344 l -4 -279 m 354 758 q 358 788 354 763 q 385 814 360 796 q 416 840 404 828 q 432 869 428 853 q 433 888 433 876 q 423 916 433 907 q 389 925 413 925 q 358 919 372 925 q 334 908 343 914 q 324 901 325 903 l 304 961 q 324 970 308 964 q 363 983 340 976 q 407 989 386 989 q 478 968 450 989 q 506 904 506 947 q 503 875 506 886 q 484 834 499 849 q 443 803 469 819 q 420 787 428 793 q 411 771 413 781 l 408 760 l 354 758 z "},"ỹ":{"ha":628,"x_min":-24,"x_max":704,"o":"m -4 -279 q 15 -287 0 -282 q 50 -292 31 -292 q 166 -224 114 -292 q 292 -10 218 -156 l 119 694 l 239 694 l 363 115 l 632 694 l 704 694 l 365 -10 q 213 -269 285 -178 q 57 -361 140 -361 q 14 -357 32 -361 q -13 -349 -4 -353 q -24 -343 -22 -344 l -4 -279 m 626 897 q 610 876 626 894 q 565 842 593 858 q 499 826 536 826 q 447 835 471 826 q 392 860 422 843 q 338 883 358 875 q 293 890 317 890 q 249 878 269 890 q 217 853 229 867 q 203 836 206 840 l 175 871 q 195 897 175 874 q 248 939 215 919 q 321 958 281 958 q 376 949 351 958 q 433 924 401 940 q 481 902 461 910 q 524 894 501 894 q 563 903 546 894 q 589 920 579 911 q 600 932 599 929 l 626 897 z "},"z":{"ha":576,"x_min":49,"x_max":618,"o":"m 611 639 l 176 63 l 526 63 l 521 0 l 49 0 l 57 56 l 493 632 l 168 632 l 172 694 l 618 694 l 611 639 z "},"ź":{"ha":576,"x_min":49,"x_max":618,"o":"m 594 981 l 428 793 l 376 800 l 510 1001 l 594 981 m 611 639 l 176 63 l 526 63 l 521 0 l 49 0 l 57 56 l 493 632 l 168 632 l 172 694 l 618 694 l 611 639 z "},"ž":{"ha":576,"x_min":49,"x_max":635,"o":"m 251 967 l 294 1000 l 428 860 l 600 1000 l 635 964 l 446 796 l 390 796 l 251 967 m 611 639 l 176 63 l 526 63 l 521 0 l 49 0 l 57 56 l 493 632 l 168 632 l 172 694 l 618 694 l 611 639 z "},"ż":{"ha":576,"x_min":49,"x_max":618,"o":"m 397 939 q 440 954 414 954 q 479 940 465 954 q 490 904 490 928 q 467 850 490 874 q 422 835 444 835 q 385 850 397 835 q 372 886 372 865 q 378 915 372 901 q 397 939 385 929 m 611 639 l 176 63 l 526 63 l 521 0 l 49 0 l 57 56 l 493 632 l 168 632 l 172 694 l 618 694 l 611 639 z "},"ﬁ":{"ha":728,"x_min":-114,"x_max":760,"o":"m 503 1054 q 613 1022 568 1054 q 683 949 657 990 q 710 954 694 954 q 749 940 735 954 q 760 904 760 928 q 736 850 760 874 q 692 835 714 835 q 654 850 667 835 q 642 886 642 865 q 649 918 642 901 q 515 990 597 990 q 426 972 460 990 q 373 908 393 953 q 342 782 353 863 l 329 694 l 531 694 l 521 626 l 319 626 l 224 -57 q -15 -361 181 -361 q -70 -354 -49 -361 q -102 -340 -92 -347 q -114 -331 -112 -333 l -85 -274 q -76 -281 -83 -275 q -53 -291 -68 -286 q -19 -296 -39 -296 q 69 -240 35 -296 q 122 -57 104 -185 l 218 626 l 147 626 l 156 685 l 228 693 l 242 793 q 321 991 261 928 q 503 1054 381 1054 m 624 0 l 524 0 l 621 694 l 721 694 l 624 0 z "},"ﬂ":{"ha":724,"x_min":-114,"x_max":767,"o":"m 519 0 l 650 938 q 478 992 553 992 q 389 946 419 992 q 342 782 358 900 l 329 694 l 529 694 l 519 626 l 319 626 l 224 -57 q -15 -361 181 -361 q -70 -354 -49 -361 q -102 -340 -92 -347 q -114 -331 -112 -333 l -85 -274 q -76 -281 -83 -275 q -53 -291 -68 -286 q -19 -296 -39 -296 q 69 -240 35 -296 q 122 -57 104 -185 l 218 626 l 146 626 l 154 685 l 228 693 l 242 793 q 460 1054 279 1054 q 660 999 551 1054 l 665 1039 l 767 1044 l 621 0 l 519 0 z "},"ª":{"ha":540,"x_min":125,"x_max":560,"o":"m 432 517 q 378 459 418 488 q 269 431 339 431 q 161 461 197 431 q 125 549 125 492 q 228 697 125 654 q 463 750 331 740 l 467 774 q 469 810 469 799 q 446 876 469 856 q 371 897 422 897 q 299 885 332 897 q 247 857 267 872 q 226 840 226 842 l 208 874 q 231 894 208 876 q 294 928 253 913 q 394 944 336 944 q 519 911 478 944 q 560 807 560 878 q 557 767 560 794 l 511 444 l 440 444 l 432 517 m 313 482 q 383 501 356 482 q 424 541 411 519 q 438 567 438 563 l 457 710 q 281 667 347 699 q 214 561 214 636 q 313 482 214 482 z "},"º":{"ha":582,"x_min":143,"x_max":631,"o":"m 631 735 q 558 513 631 596 q 351 431 485 431 q 196 485 249 431 q 143 639 143 540 q 215 862 143 779 q 424 944 288 944 q 578 890 526 944 q 631 735 631 835 m 415 896 q 283 828 329 896 q 236 626 236 760 q 267 515 236 554 q 357 476 297 476 q 491 545 444 476 q 538 749 538 614 q 507 858 538 819 q 415 896 476 896 z "},"Ԯ":{"ha":856,"x_min":29,"x_max":832,"o":"m 707 0 l 600 0 l 718 836 l 454 836 q 299 206 394 422 q 85 -10 203 -10 q 46 -6 60 -10 q 29 -1 32 -3 l 43 74 q 56 70 46 72 q 78 68 65 68 q 392 903 274 68 l 832 903 l 714 67 l 818 67 l 757 -235 l 689 -235 l 707 0 z "},"Ԩ":{"ha":910,"x_min":-150,"x_max":907,"o":"m 6 -299 q -86 -285 -51 -299 q -135 -258 -121 -272 q -150 -240 -150 -243 l -114 -186 q -103 -200 -114 -189 q -68 -222 -92 -211 q -8 -232 -44 -232 q 92 -187 50 -232 q 151 -19 135 -142 l 283 903 l 389 903 l 331 497 l 743 497 l 801 903 l 907 903 l 778 0 l 672 0 l 733 433 l 321 433 l 257 -19 q 169 -237 235 -175 q 6 -299 104 -299 z "},"А":{"ha":789,"x_min":32,"x_max":758,"o":"m 586 903 l 758 0 l 649 0 l 593 278 l 239 278 l 106 0 l 32 0 l 463 903 l 586 903 m 265 335 l 582 335 l 494 822 l 265 335 z "},"Б":{"ha":740,"x_min":131,"x_max":717,"o":"m 354 836 l 311 539 l 415 539 q 638 484 560 539 q 717 318 717 429 q 622 85 717 171 q 347 0 526 0 l 131 0 l 257 903 l 713 903 l 704 836 l 354 836 m 243 61 l 353 61 q 544 127 478 61 q 611 319 611 193 q 408 481 611 481 l 303 481 l 243 61 z "},"В":{"ha":753,"x_min":131,"x_max":740,"o":"m 485 903 q 675 850 610 903 q 740 708 740 797 q 694 564 740 622 q 579 474 647 506 q 686 407 647 454 q 725 289 725 360 q 633 78 725 156 q 360 0 542 0 l 131 0 l 257 903 l 485 903 m 469 494 q 541 516 501 494 q 610 583 581 538 q 639 700 639 629 q 594 806 639 771 q 474 842 550 842 l 353 842 l 304 494 l 469 494 m 243 61 l 365 61 q 556 122 492 61 q 621 293 621 182 q 579 401 621 364 q 467 438 538 438 l 296 438 l 243 61 z "},"Г":{"ha":568,"x_min":131,"x_max":681,"o":"m 351 836 l 236 0 l 131 0 l 258 903 l 681 903 l 675 836 l 351 836 z "},"Ѓ":{"ha":568,"x_min":131,"x_max":681,"o":"m 617 1168 l 450 981 l 399 988 l 532 1189 l 617 1168 m 351 836 l 236 0 l 131 0 l 258 903 l 681 903 l 675 836 l 351 836 z "},"Ґ":{"ha":539,"x_min":131,"x_max":674,"o":"m 674 1042 l 651 835 l 354 835 l 236 0 l 131 0 l 257 903 l 579 903 l 614 1042 l 674 1042 z "},"Д":{"ha":849,"x_min":19,"x_max":824,"o":"m 707 67 l 811 67 l 753 -235 l 685 -235 l 703 0 l 140 0 l 82 -235 l 19 -235 l 56 67 l 131 67 q 261 374 206 185 q 364 903 317 564 l 824 903 l 707 67 m 428 836 q 328 359 382 535 q 204 67 275 183 l 601 67 l 711 836 l 428 836 z "},"Е":{"ha":704,"x_min":131,"x_max":743,"o":"m 647 0 l 131 0 l 257 903 l 743 903 l 735 836 l 353 836 l 304 489 l 654 489 l 644 425 l 296 425 l 246 67 l 657 67 l 647 0 z "},"Ѐ":{"ha":704,"x_min":131,"x_max":743,"o":"m 475 1193 l 563 994 l 504 983 l 386 1171 l 475 1193 m 647 0 l 131 0 l 257 903 l 743 903 l 735 836 l 353 836 l 304 489 l 654 489 l 644 425 l 296 425 l 246 67 l 657 67 l 647 0 z "},"Ё":{"ha":704,"x_min":131,"x_max":743,"o":"m 374 1124 q 411 1138 392 1138 q 446 1124 432 1138 q 457 1092 457 1113 q 435 1042 457 1064 q 397 1028 417 1028 q 363 1042 376 1028 q 351 1074 351 1056 q 374 1124 351 1101 m 588 1124 q 625 1138 606 1138 q 660 1124 646 1138 q 671 1092 671 1110 q 649 1042 671 1064 q 610 1028 631 1028 q 576 1042 590 1028 q 565 1074 565 1056 q 588 1124 565 1101 m 647 0 l 131 0 l 257 903 l 743 903 l 735 836 l 353 836 l 304 489 l 654 489 l 644 425 l 296 425 l 246 67 l 657 67 l 647 0 z "},"Ж":{"ha":1197,"x_min":58,"x_max":1224,"o":"m 704 521 l 835 521 l 1136 903 l 1224 903 l 900 510 l 1139 0 l 1015 0 l 813 454 l 696 454 l 632 0 l 528 0 l 592 454 l 474 454 l 181 0 l 58 0 l 397 492 l 210 903 l 297 903 l 465 519 l 600 519 l 654 903 l 758 903 l 704 521 z "},"З":{"ha":671,"x_min":46,"x_max":675,"o":"m 211 844 q 247 865 211 846 q 333 899 282 883 q 440 915 385 915 q 615 864 554 915 q 675 724 675 813 q 622 567 675 632 q 496 467 569 501 q 605 408 565 451 q 644 289 644 364 q 603 133 644 201 q 484 25 561 64 q 304 -14 407 -14 q 147 17 204 -14 q 67 83 89 49 q 46 128 46 118 l 90 176 q 111 139 90 169 q 178 81 132 108 q 301 54 225 54 q 468 119 407 54 q 529 292 529 185 q 375 432 529 432 l 246 426 l 256 493 l 390 488 q 467 516 426 489 q 537 594 508 543 q 565 714 565 646 q 527 815 565 779 q 415 850 489 850 q 324 835 368 850 q 247 803 279 821 q 214 785 214 786 l 211 844 z "},"И":{"ha":906,"x_min":131,"x_max":901,"o":"m 775 0 l 671 0 l 771 719 l 785 771 l 783 771 l 239 15 l 231 0 l 131 0 l 257 903 l 363 903 l 261 176 l 247 131 l 249 131 l 794 888 l 803 903 l 901 903 l 775 0 z "},"Й":{"ha":906,"x_min":131,"x_max":901,"o":"m 593 1042 q 671 1060 643 1042 q 708 1099 699 1079 q 718 1126 718 1119 l 719 1133 l 801 1125 q 782 1083 801 1117 q 714 1018 763 1049 q 585 988 665 988 q 439 1038 469 988 q 408 1125 408 1088 l 492 1133 l 490 1126 q 506 1072 490 1101 q 593 1042 522 1042 m 775 0 l 671 0 l 771 719 l 785 771 l 783 771 l 239 15 l 231 0 l 131 0 l 257 903 l 363 903 l 261 176 l 247 131 l 249 131 l 794 888 l 803 903 l 901 903 l 775 0 z "},"Ѝ":{"ha":906,"x_min":131,"x_max":901,"o":"m 539 1193 l 626 994 l 568 983 l 450 1171 l 539 1193 m 775 0 l 671 0 l 771 719 l 785 771 l 783 771 l 239 15 l 231 0 l 131 0 l 257 903 l 363 903 l 261 176 l 247 131 l 249 131 l 794 888 l 803 903 l 901 903 l 775 0 z "},"Ҋ":{"ha":926,"x_min":129,"x_max":901,"o":"m 679 -235 l 763 0 l 669 0 l 771 719 l 785 771 l 783 771 l 238 15 l 229 0 l 129 0 l 257 903 l 363 903 l 260 176 l 246 131 l 247 131 l 794 888 l 803 903 l 901 903 l 783 67 l 894 67 l 892 47 l 742 -235 l 679 -235 z "},"К":{"ha":806,"x_min":131,"x_max":861,"o":"m 257 903 l 363 903 l 293 411 l 417 508 l 776 903 l 861 903 l 489 500 l 778 0 l 646 0 l 400 419 l 282 333 l 236 0 l 131 0 l 257 903 z "},"Ќ":{"ha":833,"x_min":131,"x_max":861,"o":"m 692 1168 l 525 981 l 474 988 l 607 1189 l 692 1168 m 257 903 l 363 903 l 293 411 l 417 508 l 776 903 l 861 903 l 489 500 l 778 0 l 646 0 l 400 419 l 282 333 l 236 0 l 131 0 l 257 903 z "},"Л":{"ha":836,"x_min":29,"x_max":831,"o":"m 704 0 l 600 0 l 717 836 l 454 836 q 298 206 394 422 q 85 -10 201 -10 q 46 -6 60 -10 q 29 -1 32 -3 l 43 74 q 56 70 46 72 q 78 68 65 68 q 390 903 272 68 l 831 903 l 704 0 z "},"М":{"ha":1160,"x_min":131,"x_max":1151,"o":"m 1029 0 l 926 0 l 1031 774 l 608 0 l 524 0 l 318 774 l 207 0 l 131 0 l 261 903 l 392 903 l 601 129 l 603 129 l 1029 903 l 1151 903 l 1029 0 z "},"Н":{"ha":886,"x_min":131,"x_max":881,"o":"m 754 0 l 649 0 l 708 433 l 296 433 l 236 0 l 131 0 l 257 903 l 363 903 l 306 497 l 718 497 l 775 903 l 881 903 l 754 0 z "},"О":{"ha":908,"x_min":122,"x_max":913,"o":"m 913 549 q 851 250 913 378 q 685 54 789 122 q 458 -14 582 -14 q 211 86 300 -14 q 122 361 122 186 q 177 651 122 525 q 335 846 232 776 q 575 915 438 915 q 828 813 744 915 q 913 549 913 710 m 801 560 q 744 768 801 688 q 569 849 686 849 q 392 791 468 849 q 274 620 315 733 q 232 346 232 507 q 293 131 232 208 q 464 53 354 53 q 633 109 556 53 q 756 280 710 165 q 801 560 801 394 z "},"П":{"ha":865,"x_min":131,"x_max":860,"o":"m 733 0 l 628 0 l 746 836 l 353 836 l 236 0 l 131 0 l 257 903 l 860 903 l 733 0 z "},"Р":{"ha":689,"x_min":131,"x_max":732,"o":"m 474 903 q 665 844 597 903 q 732 668 732 785 q 683 466 732 544 q 556 352 633 388 q 394 317 479 317 l 281 317 l 236 0 l 131 0 l 257 903 l 474 903 m 289 375 l 388 375 q 555 445 489 375 q 621 669 621 515 q 578 799 621 756 q 454 842 535 842 l 353 842 l 289 375 z "},"С":{"ha":792,"x_min":121,"x_max":836,"o":"m 817 771 q 779 792 817 772 q 690 829 742 813 q 585 846 639 846 q 406 790 486 846 q 279 623 326 733 q 232 356 232 513 q 303 133 232 211 q 496 56 375 56 q 627 85 569 56 q 719 151 685 115 q 753 190 753 186 l 785 146 q 746 98 785 139 q 638 22 707 57 q 474 -14 568 -14 q 215 85 310 -14 q 121 358 121 185 q 180 647 121 521 q 344 844 239 774 q 583 915 450 915 q 703 898 647 915 q 798 860 760 881 q 836 836 836 839 l 817 771 z "},"Т":{"ha":640,"x_min":128,"x_max":758,"o":"m 749 836 l 490 836 l 372 0 l 267 0 l 385 836 l 128 836 l 138 903 l 758 903 l 749 836 z "},"У":{"ha":790,"x_min":113,"x_max":878,"o":"m 878 903 l 526 243 q 380 44 451 101 q 225 -12 308 -12 q 167 -6 192 -12 q 128 6 142 0 q 113 15 115 13 l 138 89 q 151 80 140 86 q 184 68 163 74 q 233 63 206 63 q 333 93 288 63 q 432 208 379 124 l 169 903 l 290 903 l 500 317 l 796 903 l 878 903 z "},"Ў":{"ha":790,"x_min":113,"x_max":878,"o":"m 571 1042 q 649 1060 621 1042 q 686 1099 676 1079 q 696 1126 696 1119 l 697 1133 l 779 1125 q 760 1083 779 1117 q 692 1018 740 1049 q 563 988 643 988 q 417 1038 449 988 q 386 1125 386 1088 l 469 1133 l 468 1126 q 484 1072 468 1101 q 571 1042 500 1042 m 878 903 l 526 243 q 380 44 451 101 q 225 -12 308 -12 q 167 -6 192 -12 q 128 6 142 0 q 113 15 115 13 l 138 89 q 151 80 140 86 q 184 68 163 74 q 233 63 206 63 q 333 93 288 63 q 432 208 379 124 l 169 903 l 290 903 l 500 317 l 796 903 l 878 903 z "},"Ф":{"ha":986,"x_min":107,"x_max":1007,"o":"m 656 792 q 915 719 824 789 q 1007 506 1007 649 q 888 210 1007 310 q 560 108 768 111 l 544 0 l 440 0 l 456 108 q 199 181 290 111 q 107 392 107 251 q 226 688 107 588 q 551 792 344 789 l 567 903 l 671 903 l 656 792 m 215 385 q 277 221 215 274 q 463 165 339 168 l 543 733 q 215 385 215 726 m 897 513 q 835 678 897 625 q 647 733 772 731 l 567 165 q 897 513 897 169 z "},"Х":{"ha":751,"x_min":25,"x_max":835,"o":"m 376 447 l 163 903 l 290 903 l 460 525 l 461 525 l 747 903 l 835 903 l 497 465 l 726 0 l 597 0 l 415 388 l 414 388 l 118 0 l 25 0 l 376 447 z "},"Ч":{"ha":785,"x_min":171,"x_max":779,"o":"m 549 0 l 601 381 q 516 342 576 364 q 364 319 456 319 q 171 506 171 319 q 175 568 171 535 l 222 903 l 328 903 l 283 583 q 278 521 278 536 q 310 422 278 453 q 413 392 343 392 q 533 410 481 392 q 611 444 586 429 l 675 903 l 779 903 l 653 0 l 549 0 z "},"Ц":{"ha":885,"x_min":131,"x_max":860,"o":"m 246 67 l 636 67 l 754 903 l 860 903 l 742 67 l 847 67 l 786 -235 l 718 -235 l 736 0 l 131 0 l 257 903 l 363 903 l 246 67 z "},"Ш":{"ha":1183,"x_min":131,"x_max":1178,"o":"m 653 67 l 956 67 l 1074 903 l 1178 903 l 1051 0 l 131 0 l 257 903 l 363 903 l 246 67 l 547 67 l 665 903 l 771 903 l 653 67 z "},"Щ":{"ha":1203,"x_min":131,"x_max":1178,"o":"m 1061 67 l 1158 67 l 1099 -235 l 1031 -235 l 1049 0 l 131 0 l 257 903 l 363 903 l 246 67 l 549 67 l 665 903 l 771 903 l 654 67 l 956 67 l 1074 903 l 1178 903 l 1061 67 z "},"Џ":{"ha":865,"x_min":131,"x_max":860,"o":"m 246 67 l 636 67 l 754 903 l 860 903 l 733 0 l 479 0 l 425 -293 l 358 -293 l 385 0 l 131 0 l 257 903 l 363 903 l 246 67 z "},"Ь":{"ha":740,"x_min":131,"x_max":717,"o":"m 363 903 l 311 539 l 418 539 q 640 484 563 539 q 717 319 717 429 q 623 86 717 172 q 349 0 529 0 l 131 0 l 257 903 l 363 903 m 243 61 l 354 61 q 545 128 479 61 q 611 321 611 196 q 410 481 611 481 l 303 481 l 243 61 z "},"Ъ":{"ha":861,"x_min":128,"x_max":838,"o":"m 128 836 l 138 903 l 483 903 l 432 539 l 539 539 q 760 484 683 539 q 838 319 838 429 q 744 86 838 172 q 469 0 650 0 l 251 0 l 368 836 l 128 836 m 364 61 l 475 61 q 666 128 600 61 q 732 321 732 196 q 531 481 732 481 l 424 481 l 364 61 z "},"Ы":{"ha":1051,"x_min":131,"x_max":1047,"o":"m 363 903 l 311 539 l 418 539 q 640 484 563 539 q 717 319 717 429 q 623 86 717 172 q 349 0 529 0 l 131 0 l 257 903 l 363 903 m 921 0 l 815 0 l 942 903 l 1047 903 l 921 0 m 243 61 l 354 61 q 545 128 479 61 q 611 321 611 196 q 410 481 611 481 l 303 481 l 243 61 z "},"Љ":{"ha":1210,"x_min":29,"x_max":1185,"o":"m 454 836 q 298 206 394 422 q 85 -10 201 -10 q 46 -6 60 -10 q 29 -1 32 -3 l 43 74 q 56 70 46 72 q 78 68 65 68 q 390 903 272 68 l 831 903 l 779 539 l 886 539 q 1108 484 1031 539 q 1185 319 1185 429 q 1091 86 1185 172 q 817 0 997 0 l 599 0 l 715 836 l 454 836 m 713 61 l 822 61 q 1013 128 947 61 q 1079 321 1079 196 q 878 481 1079 481 l 771 481 l 713 61 z "},"Њ":{"ha":1258,"x_min":131,"x_max":1235,"o":"m 296 433 l 236 0 l 131 0 l 257 903 l 363 903 l 306 497 l 718 497 l 775 903 l 881 903 l 829 539 l 936 539 q 1158 484 1081 539 q 1235 319 1235 429 q 1141 86 1235 172 q 867 0 1047 0 l 649 0 l 708 433 l 296 433 m 763 61 l 872 61 q 1063 128 997 61 q 1129 321 1129 196 q 928 481 1129 481 l 821 481 l 763 61 z "},"Ѕ":{"ha":681,"x_min":79,"x_max":697,"o":"m 676 776 q 651 799 676 779 q 586 835 626 818 q 493 851 546 851 q 353 806 406 851 q 301 679 301 760 q 323 605 301 636 q 376 552 344 574 q 463 503 407 531 q 563 443 525 469 q 628 374 601 417 q 654 271 654 332 q 613 123 654 188 q 500 22 572 58 q 336 -14 428 -14 q 190 14 247 -14 q 106 74 132 42 q 79 113 79 106 l 121 167 q 143 133 121 161 q 213 79 165 104 q 332 54 260 54 q 488 108 432 54 q 544 243 544 163 q 523 317 544 286 q 470 370 501 349 q 383 419 439 392 q 285 477 322 451 q 221 544 247 503 q 194 646 194 586 q 278 843 194 771 q 496 915 361 915 q 601 898 557 915 q 672 860 646 881 q 697 838 697 840 l 676 776 z "},"Є":{"ha":799,"x_min":121,"x_max":831,"o":"m 235 410 q 233 350 233 390 q 306 131 233 206 q 501 56 379 56 q 632 86 575 56 q 722 151 689 117 q 756 192 756 186 l 788 147 q 749 99 788 140 q 642 22 711 58 q 478 -14 574 -14 q 290 30 371 -14 q 165 158 210 74 q 121 357 121 242 q 179 644 121 517 q 343 843 238 771 q 583 915 449 915 q 702 899 647 915 q 794 862 757 882 q 831 839 831 842 l 811 772 q 775 793 811 774 q 688 829 739 813 q 583 846 638 846 q 355 747 443 846 q 242 475 267 649 l 701 475 l 692 410 l 235 410 z "},"Э":{"ha":779,"x_min":46,"x_max":786,"o":"m 89 196 q 117 154 89 190 q 198 87 146 118 q 322 56 250 56 q 545 149 454 56 q 664 422 636 242 l 213 422 l 222 486 l 669 486 q 674 568 674 526 q 608 777 674 707 q 421 847 542 847 q 313 832 363 847 q 230 798 263 817 q 197 778 197 779 l 189 840 q 228 862 189 842 q 323 899 267 882 q 442 915 379 915 q 696 819 606 915 q 786 550 786 722 q 728 256 786 383 q 568 57 671 128 q 333 -14 465 -14 q 175 20 239 -14 q 78 93 111 54 q 46 139 46 132 l 89 196 z "},"І":{"ha":368,"x_min":131,"x_max":363,"o":"m 236 0 l 131 0 l 257 903 l 363 903 l 236 0 z "},"Ї":{"ha":368,"x_min":131,"x_max":482,"o":"m 185 1124 q 222 1138 203 1138 q 257 1124 243 1138 q 268 1092 268 1113 q 246 1042 268 1064 q 208 1028 228 1028 q 174 1042 188 1028 q 163 1074 163 1056 q 185 1124 163 1101 m 399 1124 q 436 1138 417 1138 q 471 1124 457 1138 q 482 1092 482 1110 q 460 1042 482 1064 q 421 1028 442 1028 q 388 1042 401 1028 q 376 1074 376 1056 q 399 1124 376 1101 m 236 0 l 131 0 l 257 903 l 363 903 l 236 0 z "},"Ј":{"ha":519,"x_min":21,"x_max":510,"o":"m 43 99 q 56 85 43 97 q 94 63 69 74 q 153 53 118 53 q 254 98 211 53 q 315 265 297 143 l 404 903 l 510 903 l 419 265 q 333 48 397 110 q 175 -14 269 -14 q 89 -1 124 -14 q 38 28 54 13 q 21 46 21 43 l 43 99 z "},"Ћ":{"ha":931,"x_min":128,"x_max":861,"o":"m 476 839 l 421 451 q 513 517 449 479 q 671 556 578 556 q 817 515 772 556 q 861 390 861 475 q 857 328 861 361 l 811 0 l 706 0 l 749 307 q 753 367 753 340 q 723 457 753 432 q 621 482 693 482 q 499 451 554 482 q 413 390 444 421 l 358 0 l 253 0 l 371 839 l 128 839 l 138 903 l 728 903 l 718 839 l 476 839 z "},"Ю":{"ha":1249,"x_min":131,"x_max":1254,"o":"m 1254 538 q 1197 249 1254 374 q 1035 55 1140 124 q 792 -14 931 -14 q 547 85 633 -14 q 461 361 461 185 q 463 415 461 397 l 294 415 l 236 0 l 131 0 l 257 903 l 363 903 l 303 479 l 469 479 q 548 708 488 610 q 704 861 608 807 q 921 915 800 915 q 1167 815 1079 915 q 1254 538 1254 714 m 1142 551 q 1082 772 1142 693 q 913 851 1022 851 q 735 791 813 851 q 614 617 657 731 q 571 349 571 503 q 631 128 571 207 q 800 50 690 50 q 979 110 901 50 q 1099 283 1057 169 q 1142 551 1142 396 z "},"Я":{"ha":760,"x_min":68,"x_max":753,"o":"m 522 0 l 572 364 l 393 364 l 175 0 l 68 0 l 308 376 q 202 451 243 397 q 161 589 161 506 q 205 758 161 686 q 319 866 249 829 q 464 903 389 903 l 753 903 l 626 0 l 522 0 m 265 592 q 306 473 265 517 q 401 429 346 429 l 582 429 l 639 842 l 461 842 q 371 811 417 842 q 295 724 325 781 q 265 592 265 667 z "},"Ђ":{"ha":889,"x_min":132,"x_max":865,"o":"m 479 839 l 425 451 q 461 482 425 454 q 553 533 497 510 q 675 556 608 556 q 820 515 775 556 q 865 389 865 474 q 861 328 865 361 l 851 260 q 767 46 829 106 q 613 -14 704 -14 q 541 -2 569 -14 q 499 24 513 10 q 486 40 486 38 l 511 86 q 524 73 514 83 q 552 53 533 63 q 597 44 571 44 q 742 238 717 44 l 753 307 q 757 367 757 340 q 727 457 757 432 q 625 482 697 482 q 500 449 557 482 q 415 389 443 417 l 361 0 l 256 0 l 374 839 l 132 839 l 140 903 l 732 903 l 722 839 l 479 839 z "},"Ѣ":{"ha":815,"x_min":119,"x_max":793,"o":"m 421 782 l 388 539 l 506 539 q 793 322 793 539 q 705 86 793 172 q 436 0 617 0 l 206 0 l 315 782 l 119 782 l 129 850 l 325 850 l 340 956 l 446 956 l 431 850 l 706 850 l 696 782 l 421 782 m 319 61 l 442 61 q 628 128 568 61 q 688 324 688 194 q 640 442 688 404 q 497 479 593 479 l 379 479 l 319 61 z "},"Ѫ":{"ha":940,"x_min":22,"x_max":951,"o":"m 32 68 q 115 342 57 246 q 251 474 174 439 q 439 518 329 510 l 235 903 l 951 903 l 631 518 q 781 485 719 511 q 881 393 843 460 q 919 206 919 326 q 908 68 919 150 l 899 0 l 776 0 l 788 76 q 796 186 796 138 q 737 392 796 326 q 578 458 678 458 l 513 0 l 408 0 l 474 458 q 258 378 331 458 q 160 114 186 297 l 144 0 l 22 0 l 32 68 m 546 503 l 829 849 l 374 849 l 546 503 z "},"Ѳ":{"ha":908,"x_min":122,"x_max":913,"o":"m 575 915 q 828 813 744 915 q 913 549 913 710 q 851 250 913 378 q 685 54 789 122 q 458 -14 582 -14 q 211 86 300 -14 q 122 361 122 186 q 177 651 122 525 q 335 846 232 776 q 575 915 438 915 m 569 849 q 351 753 438 849 q 240 478 264 657 l 799 478 q 801 560 801 531 q 744 768 801 688 q 569 849 686 849 m 464 53 q 610 94 542 53 q 726 218 678 135 q 792 424 774 301 l 235 424 q 232 346 232 374 q 293 131 232 208 q 464 53 354 53 z "},"Ѵ":{"ha":793,"x_min":147,"x_max":938,"o":"m 918 831 q 882 838 903 838 q 790 785 831 838 q 711 640 750 732 l 438 0 l 315 0 l 147 903 l 257 903 l 404 78 l 642 656 q 749 851 697 788 q 878 915 801 915 q 938 906 908 915 l 918 831 z "},"Ғ":{"ha":568,"x_min":83,"x_max":681,"o":"m 675 836 l 351 836 l 301 478 l 464 478 l 456 424 l 294 424 l 236 0 l 131 0 l 190 424 l 83 424 l 92 478 l 199 478 l 258 903 l 681 903 l 675 836 z "},"Ҕ":{"ha":751,"x_min":128,"x_max":749,"o":"m 531 583 q 693 526 638 583 q 749 326 749 468 q 738 179 749 253 q 654 -103 713 4 q 525 -254 596 -210 q 386 -299 454 -299 q 319 -291 342 -299 q 279 -272 296 -283 l 304 -218 q 326 -226 304 -219 q 376 -232 347 -232 q 475 -204 428 -232 q 566 -85 522 -176 q 635 183 610 7 q 644 310 644 251 q 602 469 644 428 q 482 511 560 511 q 371 494 417 511 q 299 460 325 478 l 233 0 l 128 0 l 257 903 l 692 903 l 682 836 l 353 836 l 304 492 l 308 522 q 385 562 331 540 q 531 583 440 583 z "},"Җ":{"ha":1167,"x_min":58,"x_max":1224,"o":"m 900 510 l 1108 67 l 1178 67 l 1113 -235 l 1044 -235 l 1067 0 l 1015 0 l 813 454 l 696 454 l 632 0 l 528 0 l 592 454 l 474 454 l 181 0 l 58 0 l 397 492 l 210 903 l 297 903 l 465 519 l 600 519 l 654 903 l 758 903 l 704 521 l 835 521 l 1136 903 l 1224 903 l 900 510 z "},"Ҙ":{"ha":671,"x_min":46,"x_max":675,"o":"m 496 467 q 605 408 565 451 q 644 289 644 364 q 569 89 644 171 q 365 -10 494 7 l 317 -235 l 249 -235 l 269 -12 q 133 24 183 -7 q 65 88 83 56 q 46 128 46 119 l 90 176 q 111 139 90 169 q 178 81 132 108 q 301 54 225 54 q 468 119 407 54 q 529 292 529 185 q 375 432 529 432 l 246 426 l 256 493 l 390 488 q 467 516 426 489 q 537 594 508 543 q 565 714 565 646 q 527 815 565 779 q 415 850 489 850 q 324 835 368 850 q 247 803 279 821 q 214 785 214 786 l 211 844 q 247 865 211 846 q 333 899 282 883 q 440 915 385 915 q 615 864 554 915 q 675 724 675 813 q 622 567 675 632 q 496 467 569 501 z "},"Қ":{"ha":797,"x_min":131,"x_max":861,"o":"m 489 500 l 739 67 l 808 67 l 743 -235 l 675 -235 l 697 0 l 646 0 l 400 419 l 282 333 l 236 0 l 131 0 l 257 903 l 363 903 l 293 411 l 417 508 l 776 903 l 861 903 l 489 500 z "},"Ҝ":{"ha":806,"x_min":131,"x_max":861,"o":"m 861 903 l 489 500 l 778 0 l 646 0 l 400 419 l 389 411 l 367 272 l 319 272 l 336 372 l 282 332 l 236 0 l 131 0 l 257 903 l 363 903 l 293 411 l 349 454 l 375 617 l 422 617 l 403 497 l 417 508 l 776 903 l 861 903 z "},"Ҟ":{"ha":786,"x_min":72,"x_max":843,"o":"m 82 775 l 221 775 l 239 903 l 344 903 l 326 775 l 465 775 l 456 708 l 317 708 l 275 411 l 399 508 l 758 903 l 843 903 l 469 500 l 758 0 l 626 0 l 381 419 l 264 332 l 217 0 l 111 0 l 211 708 l 72 708 l 82 775 z "},"Ҡ":{"ha":944,"x_min":126,"x_max":1000,"o":"m 1000 903 l 628 500 l 917 0 l 785 0 l 539 419 l 421 333 l 375 0 l 269 0 l 386 836 l 126 836 l 138 903 l 501 903 l 432 411 l 556 508 l 915 903 l 1000 903 z "},"Ң":{"ha":906,"x_min":131,"x_max":881,"o":"m 881 903 l 764 67 l 868 67 l 803 -235 l 735 -235 l 757 0 l 649 0 l 708 433 l 296 433 l 236 0 l 131 0 l 257 903 l 363 903 l 306 497 l 718 497 l 775 903 l 881 903 z "},"Ҧ":{"ha":1249,"x_min":128,"x_max":1246,"o":"m 883 -299 q 816 -291 839 -299 q 776 -272 793 -283 l 801 -218 q 823 -226 801 -219 q 874 -232 844 -232 q 972 -204 925 -232 q 1063 -85 1019 -176 q 1132 183 1107 7 q 1142 310 1142 251 q 1099 469 1142 428 q 979 511 1057 511 q 796 460 876 511 l 731 0 l 625 0 l 744 836 l 353 836 l 233 0 l 128 0 l 257 903 l 860 903 l 806 522 q 883 562 828 540 q 1028 583 938 583 q 1190 526 1135 583 q 1246 326 1246 468 q 1235 179 1246 253 q 1151 -103 1210 4 q 1022 -254 1093 -210 q 883 -299 951 -299 z "},"Ԥ":{"ha":885,"x_min":131,"x_max":860,"o":"m 860 903 l 743 67 l 847 67 l 782 -235 l 714 -235 l 736 0 l 628 0 l 746 836 l 353 836 l 236 0 l 131 0 l 257 903 l 860 903 z "},"Ҩ":{"ha":963,"x_min":115,"x_max":940,"o":"m 896 47 q 715 -14 819 -14 q 594 13 647 -14 q 522 -8 565 -1 q 438 -14 478 -14 q 202 81 289 -14 q 115 338 115 175 q 122 429 115 376 q 283 797 157 681 q 589 915 408 914 l 579 850 q 347 742 431 850 q 235 429 264 635 q 228 333 228 374 q 285 127 228 201 q 443 53 343 53 q 535 61 499 53 q 447 174 483 93 q 411 346 411 254 q 415 404 411 375 q 486 603 433 525 q 603 717 539 682 q 725 751 668 751 q 882 695 824 751 q 940 517 940 639 q 933 432 940 483 q 876 268 921 344 q 777 138 832 192 q 675 58 722 85 q 746 44 711 44 q 875 92 810 44 l 896 47 m 524 407 q 518 336 518 360 q 543 190 518 257 q 613 88 568 124 q 742 219 681 126 q 821 431 803 311 q 828 522 828 486 q 714 685 828 685 q 593 610 644 685 q 524 407 542 535 z "},"Ҫ":{"ha":792,"x_min":121,"x_max":836,"o":"m 585 846 q 406 790 486 846 q 279 623 326 733 q 232 356 232 513 q 303 133 232 211 q 496 56 375 56 q 627 85 569 56 q 719 151 685 115 q 753 190 753 186 l 785 146 q 750 103 785 140 q 653 30 715 65 q 508 -12 592 -6 l 460 -235 l 392 -235 l 413 -10 q 198 105 275 8 q 121 358 121 201 q 180 647 121 521 q 344 844 239 774 q 583 915 450 915 q 703 898 647 915 q 798 860 760 881 q 836 836 836 839 l 817 771 q 779 792 817 772 q 690 829 742 813 q 585 846 639 846 z "},"Ҭ":{"ha":640,"x_min":128,"x_max":758,"o":"m 357 -235 l 375 0 l 267 0 l 385 836 l 128 836 l 138 903 l 758 903 l 749 836 l 490 836 l 382 67 l 486 67 l 425 -235 l 357 -235 z "},"Ү":{"ha":704,"x_min":129,"x_max":828,"o":"m 247 903 l 433 458 l 743 903 l 828 903 l 458 379 l 407 0 l 301 0 l 353 374 l 129 903 l 247 903 z "},"Ұ":{"ha":704,"x_min":129,"x_max":828,"o":"m 828 903 l 468 393 l 597 393 l 589 339 l 453 339 l 407 0 l 301 0 l 349 339 l 217 339 l 225 393 l 344 393 l 129 903 l 247 903 l 433 458 l 743 903 l 828 903 z "},"Ҳ":{"ha":811,"x_min":24,"x_max":835,"o":"m 668 -235 l 686 0 l 596 0 l 413 388 l 411 388 l 117 0 l 24 0 l 376 449 l 163 903 l 290 903 l 461 525 l 747 903 l 835 903 l 496 465 l 692 67 l 797 67 l 736 -235 l 668 -235 z "},"Ҷ":{"ha":806,"x_min":171,"x_max":779,"o":"m 663 67 l 768 67 l 703 -235 l 635 -235 l 657 0 l 549 0 l 601 381 q 516 342 576 364 q 364 319 456 319 q 171 506 171 319 q 175 568 171 535 l 222 903 l 328 903 l 283 583 q 278 521 278 536 q 310 422 278 453 q 413 392 343 392 q 533 410 481 392 q 611 444 586 429 l 675 903 l 779 903 l 663 67 z "},"Ҹ":{"ha":785,"x_min":171,"x_max":779,"o":"m 779 903 l 653 0 l 549 0 l 601 381 q 555 356 594 374 q 461 328 515 339 l 439 194 l 392 194 l 413 322 q 364 319 382 319 q 171 506 171 319 q 175 568 171 535 l 222 903 l 328 903 l 283 583 q 278 521 278 536 q 310 422 278 453 q 413 392 343 392 l 424 392 l 447 539 l 494 539 l 471 396 q 559 419 521 404 q 611 444 597 435 l 675 903 l 779 903 z "},"Һ":{"ha":757,"x_min":131,"x_max":739,"o":"m 361 903 l 308 522 q 394 561 333 539 q 546 583 454 583 q 739 397 739 583 q 735 335 739 368 l 688 0 l 582 0 l 626 319 q 632 382 632 367 q 599 481 632 450 q 497 511 567 511 q 376 492 429 511 q 299 458 324 474 l 235 0 l 131 0 l 257 903 l 361 903 z "},"Ԧ":{"ha":831,"x_min":129,"x_max":800,"o":"m 689 0 l 582 0 l 628 319 q 632 379 632 353 q 599 481 632 450 q 497 511 567 511 q 374 492 429 511 q 299 458 318 472 l 233 0 l 129 0 l 257 903 l 361 903 l 307 521 q 340 539 307 522 q 426 569 374 556 q 546 583 479 583 q 739 400 739 583 q 733 335 739 382 l 696 67 l 800 67 l 739 -235 l 671 -235 l 689 0 z "},"Ҽ":{"ha":957,"x_min":36,"x_max":961,"o":"m 342 410 q 338 335 338 371 q 403 124 338 193 q 589 56 468 56 q 723 86 663 56 q 821 152 783 117 q 858 192 858 188 l 890 147 q 847 100 890 142 q 732 22 804 58 q 565 -14 660 -14 q 313 78 403 -14 q 224 338 224 169 q 228 413 224 374 q 78 451 119 421 q 36 544 36 482 q 39 588 36 572 l 121 606 q 119 576 119 596 q 144 508 119 532 q 238 476 169 483 q 323 706 263 607 q 472 860 383 806 q 664 915 560 915 q 885 814 810 915 q 961 547 961 713 q 953 439 961 496 l 949 410 l 342 410 m 654 849 q 461 749 540 849 q 350 475 382 650 l 844 475 q 850 567 850 539 q 801 775 850 701 q 654 849 751 849 z "},"Ҿ":{"ha":1001,"x_min":36,"x_max":961,"o":"m 500 -8 q 296 98 368 8 q 224 338 224 188 q 228 413 224 374 q 78 451 121 421 q 36 546 36 482 q 39 588 36 572 l 121 606 q 119 579 119 596 q 144 508 119 532 q 238 476 168 483 q 323 706 263 607 q 472 860 383 806 q 664 915 560 915 q 885 815 810 915 q 961 550 961 714 q 953 439 961 496 l 949 410 l 342 410 q 338 335 338 371 q 403 124 338 193 q 589 56 468 56 q 723 86 663 56 q 822 152 783 117 q 860 192 860 188 l 890 147 q 851 103 890 142 q 747 28 813 64 q 593 -12 681 -7 l 542 -293 l 475 -293 l 500 -8 m 654 849 q 461 749 540 849 q 351 475 382 650 l 846 475 q 850 563 850 521 q 801 774 850 700 q 654 849 753 849 z "},"Ӏ":{"ha":368,"x_min":131,"x_max":363,"o":"m 236 0 l 131 0 l 257 903 l 363 903 l 236 0 z "},"Ӂ":{"ha":1197,"x_min":58,"x_max":1224,"o":"m 704 521 l 835 521 l 1136 903 l 1224 903 l 900 510 l 1139 0 l 1015 0 l 813 454 l 696 454 l 632 0 l 528 0 l 592 454 l 474 454 l 181 0 l 58 0 l 397 492 l 210 903 l 297 903 l 465 519 l 600 519 l 654 903 l 758 903 l 704 521 m 733 1063 q 811 1081 783 1063 q 849 1120 839 1100 q 858 1147 858 1140 l 860 1154 l 942 1146 q 922 1103 942 1138 q 854 1039 903 1069 q 725 1008 806 1008 q 579 1058 610 1008 q 549 1146 549 1108 l 632 1154 l 631 1147 q 647 1092 631 1122 q 733 1063 663 1063 z "},"Ӄ":{"ha":813,"x_min":128,"x_max":861,"o":"m 585 -268 q 651 -124 638 -229 q 654 -92 654 -104 q 595 127 654 -4 q 397 419 536 258 l 281 332 l 233 0 l 128 0 l 257 903 l 363 903 l 292 411 l 415 508 l 776 903 l 861 903 l 486 500 q 687 188 628 318 q 746 -43 746 57 q 742 -93 746 -68 q 706 -200 732 -153 q 619 -299 681 -247 l 585 -268 z "},"Ӆ":{"ha":857,"x_min":29,"x_max":832,"o":"m 693 0 l 600 0 l 718 836 l 454 836 q 299 206 394 422 q 85 -10 203 -10 q 46 -6 60 -10 q 29 -1 32 -3 l 43 74 q 56 70 46 72 q 78 68 65 68 q 392 903 274 68 l 832 903 l 714 67 l 825 67 l 822 47 l 672 -235 l 610 -235 l 693 0 z "},"Ӈ":{"ha":883,"x_min":128,"x_max":881,"o":"m 497 -299 q 406 -285 440 -299 q 356 -258 371 -272 q 342 -240 342 -243 l 378 -186 q 389 -200 378 -189 q 424 -222 400 -211 q 483 -232 447 -232 q 584 -187 542 -232 q 643 -19 626 -142 l 707 433 l 294 433 l 233 0 l 128 0 l 257 903 l 363 903 l 304 497 l 717 497 l 775 903 l 881 903 l 749 -19 q 661 -237 726 -175 q 497 -299 596 -299 z "},"Ӊ":{"ha":906,"x_min":129,"x_max":881,"o":"m 658 -235 l 742 0 l 647 0 l 708 433 l 296 433 l 235 0 l 129 0 l 257 903 l 363 903 l 306 497 l 718 497 l 775 903 l 881 903 l 763 67 l 874 67 l 871 47 l 721 -235 l 658 -235 z "},"Ӌ":{"ha":785,"x_min":171,"x_max":779,"o":"m 663 67 l 768 67 l 703 -235 l 635 -235 l 657 0 l 549 0 l 601 381 q 516 342 576 364 q 364 319 456 319 q 171 506 171 319 q 175 568 171 535 l 222 903 l 328 903 l 283 583 q 278 521 278 536 q 310 422 278 453 q 413 392 343 392 q 533 410 481 392 q 611 444 586 429 l 675 903 l 779 903 l 663 67 z "},"Ӎ":{"ha":1176,"x_min":125,"x_max":1147,"o":"m 929 -235 l 1013 0 l 921 0 l 1026 774 l 1025 774 l 603 0 l 518 0 l 314 774 l 201 0 l 125 0 l 257 903 l 260 899 l 258 903 l 388 903 l 596 129 l 597 129 l 1025 903 l 1147 903 l 1033 67 l 1144 67 l 1142 47 l 992 -235 l 929 -235 z "},"Ӑ":{"ha":789,"x_min":32,"x_max":758,"o":"m 586 903 l 758 0 l 649 0 l 593 278 l 239 278 l 106 0 l 32 0 l 463 903 l 586 903 m 265 335 l 582 335 l 494 822 l 265 335 m 550 1063 q 628 1081 600 1063 q 665 1120 656 1100 q 675 1147 675 1140 l 676 1154 l 758 1146 q 739 1103 758 1138 q 671 1039 719 1069 q 542 1008 622 1008 q 396 1058 426 1008 q 365 1146 365 1108 l 449 1154 l 447 1147 q 463 1092 447 1122 q 550 1063 479 1063 z "},"Ӓ":{"ha":789,"x_min":32,"x_max":758,"o":"m 586 903 l 758 0 l 649 0 l 593 278 l 239 278 l 106 0 l 32 0 l 463 903 l 586 903 m 265 335 l 582 335 l 494 822 l 265 335 m 419 1144 q 458 1158 438 1158 q 492 1144 478 1158 q 503 1113 503 1133 q 481 1063 503 1085 q 443 1049 463 1049 q 408 1063 422 1049 q 397 1094 397 1076 q 419 1144 397 1122 m 633 1144 q 671 1158 651 1158 q 706 1144 692 1158 q 717 1113 717 1131 q 694 1063 717 1085 q 656 1049 676 1049 q 622 1063 636 1049 q 611 1094 611 1076 q 633 1144 611 1122 z "},"Ӗ":{"ha":704,"x_min":131,"x_max":772,"o":"m 647 0 l 131 0 l 257 903 l 743 903 l 735 836 l 353 836 l 304 489 l 654 489 l 644 425 l 296 425 l 246 67 l 657 67 l 647 0 m 564 1063 q 642 1081 614 1063 q 679 1120 669 1100 q 689 1147 689 1140 l 690 1154 l 772 1146 q 753 1103 772 1138 q 685 1039 733 1069 q 556 1008 636 1008 q 410 1058 440 1008 q 379 1146 379 1108 l 463 1154 l 461 1147 q 477 1092 461 1122 q 564 1063 493 1063 z "},"Ә":{"ha":814,"x_min":108,"x_max":821,"o":"m 522 915 q 740 824 658 915 q 821 561 821 732 q 811 443 821 517 q 735 203 792 306 q 594 43 679 100 q 406 -14 510 -14 q 185 67 261 -14 q 108 297 108 147 q 115 394 108 351 q 127 451 121 429 q 136 478 133 472 l 704 478 q 713 583 713 535 q 656 781 713 713 q 499 849 600 849 q 360 818 422 849 q 235 724 299 788 l 189 767 q 342 878 265 840 q 522 915 418 915 m 221 401 q 217 389 219 399 q 214 368 215 379 q 207 286 207 319 q 260 113 207 172 q 404 53 313 53 q 589 138 518 53 q 692 401 660 224 l 221 401 z "},"Ӛ":{"ha":814,"x_min":108,"x_max":821,"o":"m 522 915 q 740 824 658 915 q 821 561 821 732 q 811 443 821 517 q 735 203 792 306 q 594 43 679 100 q 406 -14 510 -14 q 185 67 261 -14 q 108 297 108 147 q 115 394 108 351 q 127 451 121 429 q 136 478 133 472 l 704 478 q 713 583 713 535 q 656 781 713 713 q 499 849 600 849 q 360 818 422 849 q 235 724 299 788 l 189 767 q 342 878 265 840 q 522 915 418 915 m 221 401 q 217 389 219 399 q 214 368 215 379 q 207 286 207 319 q 260 113 207 172 q 404 53 313 53 q 589 138 518 53 q 692 401 660 224 l 221 401 m 414 1144 q 453 1158 432 1158 q 486 1144 472 1158 q 497 1113 497 1133 q 475 1063 497 1085 q 438 1049 457 1049 q 403 1063 417 1049 q 392 1094 392 1076 q 414 1144 392 1122 m 628 1144 q 665 1158 646 1158 q 700 1144 686 1158 q 711 1113 711 1131 q 689 1063 711 1085 q 650 1049 671 1049 q 617 1063 631 1049 q 606 1094 606 1076 q 628 1144 606 1122 z "},"Ӝ":{"ha":1197,"x_min":58,"x_max":1224,"o":"m 704 521 l 835 521 l 1136 903 l 1224 903 l 900 510 l 1139 0 l 1015 0 l 813 454 l 696 454 l 632 0 l 528 0 l 592 454 l 474 454 l 181 0 l 58 0 l 397 492 l 210 903 l 297 903 l 465 519 l 600 519 l 654 903 l 758 903 l 704 521 m 603 1144 q 642 1158 621 1158 q 675 1144 661 1158 q 686 1113 686 1133 q 664 1063 686 1085 q 626 1049 646 1049 q 592 1063 606 1049 q 581 1094 581 1076 q 603 1144 581 1122 m 817 1144 q 854 1158 835 1158 q 889 1144 875 1158 q 900 1113 900 1131 q 878 1063 900 1085 q 839 1049 860 1049 q 806 1063 819 1049 q 794 1094 794 1076 q 817 1144 794 1122 z "},"Ӟ":{"ha":671,"x_min":46,"x_max":675,"o":"m 211 844 q 247 865 211 846 q 333 899 282 883 q 440 915 385 915 q 615 864 554 915 q 675 724 675 813 q 622 567 675 632 q 496 467 569 501 q 605 408 565 451 q 644 289 644 364 q 603 133 644 201 q 484 25 561 64 q 304 -14 407 -14 q 147 17 204 -14 q 67 83 89 49 q 46 128 46 118 l 90 176 q 111 139 90 169 q 178 81 132 108 q 301 54 225 54 q 468 119 407 54 q 529 292 529 185 q 375 432 529 432 l 246 426 l 256 493 l 390 488 q 467 516 426 489 q 537 594 508 543 q 565 714 565 646 q 527 815 565 779 q 415 850 489 850 q 324 835 368 850 q 247 803 279 821 q 214 785 214 786 l 211 844 m 361 1144 q 400 1158 379 1158 q 433 1144 419 1158 q 444 1113 444 1133 q 422 1063 444 1085 q 385 1049 404 1049 q 350 1063 364 1049 q 339 1094 339 1076 q 361 1144 339 1122 m 575 1144 q 613 1158 593 1158 q 647 1144 633 1158 q 658 1113 658 1131 q 636 1063 658 1085 q 597 1049 618 1049 q 564 1063 578 1049 q 553 1094 553 1076 q 575 1144 553 1122 z "},"Ӡ":{"ha":686,"x_min":56,"x_max":732,"o":"m 453 519 q 600 453 544 506 q 656 311 656 401 q 653 268 656 283 q 595 126 642 190 q 475 24 549 61 q 310 -14 401 -14 q 153 17 210 -14 q 76 83 97 49 q 56 128 56 118 l 101 176 q 121 139 101 169 q 186 81 140 108 q 308 54 232 54 q 462 114 400 54 q 538 271 524 174 q 540 315 540 286 q 499 428 540 389 q 376 468 457 467 l 254 463 l 264 529 l 360 525 l 607 836 l 200 836 l 210 903 l 732 903 l 724 846 l 453 519 z "},"Ӣ":{"ha":906,"x_min":131,"x_max":901,"o":"m 775 0 l 671 0 l 771 719 l 785 771 l 783 771 l 239 15 l 231 0 l 131 0 l 257 903 l 363 903 l 261 176 l 247 131 l 249 131 l 794 888 l 803 903 l 901 903 l 775 0 m 701 1092 l 444 1092 l 451 1142 l 708 1142 l 701 1092 z "},"Ӥ":{"ha":906,"x_min":131,"x_max":901,"o":"m 775 0 l 671 0 l 771 719 l 785 771 l 783 771 l 239 15 l 231 0 l 131 0 l 257 903 l 363 903 l 261 176 l 247 131 l 249 131 l 794 888 l 803 903 l 901 903 l 775 0 m 436 1144 q 475 1158 454 1158 q 508 1144 494 1158 q 519 1113 519 1133 q 497 1063 519 1085 q 460 1049 479 1049 q 425 1063 439 1049 q 414 1094 414 1076 q 436 1144 414 1122 m 650 1144 q 688 1158 668 1158 q 722 1144 708 1158 q 733 1113 733 1131 q 711 1063 733 1085 q 672 1049 693 1049 q 639 1063 653 1049 q 628 1094 628 1076 q 650 1144 628 1122 z "},"Ӧ":{"ha":908,"x_min":122,"x_max":913,"o":"m 913 549 q 851 250 913 378 q 685 54 789 122 q 458 -14 582 -14 q 211 86 300 -14 q 122 361 122 186 q 177 651 122 525 q 335 846 232 776 q 575 915 438 915 q 828 813 744 915 q 913 549 913 710 m 801 560 q 744 768 801 688 q 569 849 686 849 q 392 791 468 849 q 274 620 315 733 q 232 346 232 507 q 293 131 232 208 q 464 53 354 53 q 633 109 556 53 q 756 280 710 165 q 801 560 801 394 m 465 1144 q 504 1158 483 1158 q 538 1144 524 1158 q 549 1113 549 1133 q 526 1063 549 1085 q 489 1049 508 1049 q 454 1063 468 1049 q 443 1094 443 1076 q 465 1144 443 1122 m 679 1144 q 717 1158 697 1158 q 751 1144 738 1158 q 763 1113 763 1131 q 740 1063 763 1085 q 701 1049 722 1049 q 668 1063 682 1049 q 657 1094 657 1076 q 679 1144 657 1122 z "},"Ө":{"ha":908,"x_min":122,"x_max":913,"o":"m 575 915 q 828 813 744 915 q 913 549 913 710 q 851 250 913 378 q 685 54 789 122 q 458 -14 582 -14 q 211 86 300 -14 q 122 361 122 186 q 177 651 122 525 q 335 846 232 776 q 575 915 438 915 m 569 849 q 351 753 438 849 q 240 478 264 657 l 799 478 q 801 560 801 531 q 744 768 801 688 q 569 849 686 849 m 464 53 q 610 94 542 53 q 726 218 678 135 q 792 424 774 301 l 235 424 q 232 346 232 374 q 293 131 232 208 q 464 53 354 53 z "},"Ӫ":{"ha":908,"x_min":122,"x_max":913,"o":"m 575 915 q 828 813 744 915 q 913 549 913 710 q 851 250 913 378 q 685 54 789 122 q 458 -14 582 -14 q 211 86 300 -14 q 122 361 122 186 q 177 651 122 525 q 335 846 232 776 q 575 915 438 915 m 569 849 q 351 753 438 849 q 240 478 264 657 l 799 478 q 801 560 801 531 q 744 768 801 688 q 569 849 686 849 m 464 53 q 610 94 542 53 q 726 218 678 135 q 792 424 774 301 l 235 424 q 232 346 232 374 q 293 131 232 208 q 464 53 354 53 m 465 1144 q 504 1158 483 1158 q 538 1144 524 1158 q 549 1113 549 1133 q 526 1063 549 1085 q 489 1049 508 1049 q 454 1063 468 1049 q 443 1094 443 1076 q 465 1144 443 1122 m 679 1144 q 717 1158 697 1158 q 751 1144 738 1158 q 763 1113 763 1131 q 740 1063 763 1085 q 701 1049 722 1049 q 668 1063 682 1049 q 657 1094 657 1076 q 679 1144 657 1122 z "},"Ӭ":{"ha":779,"x_min":46,"x_max":786,"o":"m 89 196 q 117 154 89 190 q 198 87 146 118 q 322 56 250 56 q 545 149 454 56 q 664 422 636 242 l 213 422 l 222 486 l 669 486 q 674 568 674 526 q 608 777 674 707 q 421 847 542 847 q 313 832 363 847 q 230 798 263 817 q 197 778 197 779 l 189 840 q 228 862 189 842 q 323 899 267 882 q 442 915 379 915 q 696 819 606 915 q 786 550 786 722 q 728 256 786 383 q 568 57 671 128 q 333 -14 465 -14 q 175 20 239 -14 q 78 93 111 54 q 46 139 46 132 l 89 196 m 376 1144 q 415 1158 394 1158 q 449 1144 435 1158 q 460 1113 460 1133 q 438 1063 460 1085 q 400 1049 419 1049 q 365 1063 379 1049 q 354 1094 354 1076 q 376 1144 354 1122 m 590 1144 q 628 1158 608 1158 q 663 1144 649 1158 q 674 1113 674 1131 q 651 1063 674 1085 q 613 1049 633 1049 q 579 1063 593 1049 q 568 1094 568 1076 q 590 1144 568 1122 z "},"Ӯ":{"ha":790,"x_min":113,"x_max":878,"o":"m 878 903 l 526 243 q 380 44 451 101 q 225 -12 308 -12 q 167 -6 192 -12 q 128 6 142 0 q 113 15 115 13 l 138 89 q 151 80 140 86 q 184 68 163 74 q 233 63 206 63 q 333 93 288 63 q 432 208 379 124 l 169 903 l 290 903 l 500 317 l 796 903 l 878 903 m 696 1092 l 439 1092 l 446 1142 l 703 1142 l 696 1092 z "},"Ӱ":{"ha":790,"x_min":113,"x_max":878,"o":"m 878 903 l 526 243 q 380 44 451 101 q 225 -12 308 -12 q 167 -6 192 -12 q 128 6 142 0 q 113 15 115 13 l 138 89 q 151 80 140 86 q 184 68 163 74 q 233 63 206 63 q 333 93 288 63 q 432 208 379 124 l 169 903 l 290 903 l 500 317 l 796 903 l 878 903 m 431 1144 q 469 1158 449 1158 q 503 1144 489 1158 q 514 1113 514 1133 q 492 1063 514 1085 q 454 1049 474 1049 q 419 1063 433 1049 q 408 1094 408 1076 q 431 1144 408 1122 m 644 1144 q 682 1158 663 1158 q 717 1144 703 1158 q 728 1113 728 1131 q 706 1063 728 1085 q 667 1049 688 1049 q 633 1063 647 1049 q 622 1094 622 1076 q 644 1144 622 1122 z "},"Ӳ":{"ha":790,"x_min":113,"x_max":878,"o":"m 878 903 l 526 243 q 380 44 451 101 q 225 -12 308 -12 q 167 -6 192 -12 q 128 6 142 0 q 113 15 115 13 l 138 89 q 151 80 140 86 q 184 68 163 74 q 233 63 206 63 q 333 93 288 63 q 432 208 379 124 l 169 903 l 290 903 l 500 317 l 796 903 l 878 903 m 517 1206 l 586 1188 l 472 1008 l 429 1028 l 517 1206 m 696 1206 l 765 1188 l 651 1008 l 608 1028 l 696 1206 z "},"Ӵ":{"ha":785,"x_min":171,"x_max":779,"o":"m 549 0 l 601 381 q 516 342 576 364 q 364 319 456 319 q 171 506 171 319 q 175 568 171 535 l 222 903 l 328 903 l 283 583 q 278 521 278 536 q 310 422 278 453 q 413 392 343 392 q 533 410 481 392 q 611 444 586 429 l 675 903 l 779 903 l 653 0 l 549 0 m 390 1144 q 429 1158 408 1158 q 463 1144 449 1158 q 474 1113 474 1133 q 451 1063 474 1085 q 414 1049 433 1049 q 379 1063 393 1049 q 368 1094 368 1076 q 390 1144 368 1122 m 604 1144 q 642 1158 622 1158 q 676 1144 663 1158 q 688 1113 688 1131 q 665 1063 688 1085 q 626 1049 647 1049 q 593 1063 607 1049 q 582 1094 582 1076 q 604 1144 582 1122 z "},"Ӷ":{"ha":568,"x_min":131,"x_max":681,"o":"m 258 903 l 681 903 l 675 836 l 351 836 l 246 67 l 350 67 l 285 -235 l 217 -235 l 239 0 l 131 0 l 258 903 z "},"Ӹ":{"ha":1051,"x_min":131,"x_max":1047,"o":"m 363 903 l 311 539 l 418 539 q 640 484 563 539 q 717 319 717 429 q 623 86 717 172 q 349 0 529 0 l 131 0 l 257 903 l 363 903 m 921 0 l 815 0 l 942 903 l 1047 903 l 921 0 m 243 61 l 354 61 q 545 128 479 61 q 611 321 611 196 q 410 481 611 481 l 303 481 l 243 61 m 551 1144 q 590 1158 569 1158 q 624 1144 610 1158 q 635 1113 635 1133 q 613 1063 635 1085 q 575 1049 594 1049 q 540 1063 554 1049 q 529 1094 529 1076 q 551 1144 529 1122 m 765 1144 q 803 1158 783 1158 q 838 1144 824 1158 q 849 1113 849 1131 q 826 1063 849 1085 q 788 1049 808 1049 q 754 1063 768 1049 q 743 1094 743 1076 q 765 1144 743 1122 z "},"Ӻ":{"ha":647,"x_min":68,"x_max":764,"o":"m 174 -244 q 113 -233 149 -244 l 122 -172 q 181 -181 142 -181 q 247 -147 217 -181 q 292 0 276 -112 l 139 0 l 200 426 l 68 426 l 78 490 l 210 490 l 268 903 l 764 903 l 754 836 l 364 836 l 315 490 l 561 490 l 551 426 l 306 426 l 254 67 l 397 67 l 389 4 q 310 -187 369 -129 q 174 -244 251 -244 z "},"Ӽ":{"ha":719,"x_min":22,"x_max":835,"o":"m 524 -268 q 590 -104 590 -204 q 550 88 590 -29 q 413 388 510 204 l 115 0 l 22 0 l 375 449 l 163 903 l 290 903 l 460 525 l 747 903 l 835 903 l 496 465 q 643 138 604 239 q 682 -49 682 36 q 678 -104 682 -78 q 645 -201 671 -156 q 558 -299 619 -247 l 524 -268 z "},"Ӿ":{"ha":750,"x_min":24,"x_max":835,"o":"m 358 488 l 163 903 l 290 903 l 461 525 l 747 903 l 835 903 l 514 488 l 688 488 l 678 424 l 517 424 l 725 0 l 596 0 l 413 388 l 411 388 l 117 0 l 24 0 l 356 424 l 185 424 l 194 488 l 358 488 z "},"Ԑ":{"ha":699,"x_min":125,"x_max":728,"o":"m 389 -14 q 194 41 263 -14 q 125 193 125 96 q 128 236 125 221 q 196 384 140 329 q 336 457 251 439 q 251 526 283 482 q 218 636 218 571 q 221 674 218 646 q 313 848 236 781 q 517 915 390 915 q 619 899 572 915 q 697 865 667 883 q 728 844 728 847 l 707 785 q 679 803 707 786 q 611 835 651 821 q 524 850 571 850 q 390 801 439 850 q 328 665 340 751 q 325 629 325 640 q 360 526 325 563 q 447 488 394 489 l 583 493 l 575 426 l 446 432 q 306 379 357 431 q 243 239 256 328 q 240 197 240 224 q 410 54 240 54 q 567 97 501 54 q 660 183 633 140 l 692 135 q 640 78 676 113 q 538 15 603 44 q 389 -14 472 -14 z "},"Ԓ":{"ha":836,"x_min":29,"x_max":833,"o":"m 451 -299 q 360 -285 394 -299 q 310 -258 325 -272 q 296 -240 296 -243 l 332 -186 q 343 -200 332 -189 q 378 -222 354 -211 q 438 -232 401 -232 q 538 -187 496 -232 q 597 -19 581 -142 l 719 836 l 456 836 q 299 206 394 421 q 85 -10 203 -10 q 46 -6 60 -10 q 29 -1 32 -3 l 44 74 q 56 70 47 72 q 78 68 65 68 q 393 903 272 68 l 833 903 l 701 -19 q 615 -237 679 -175 q 451 -299 550 -299 z "},"Ԛ":{"ha":908,"x_min":122,"x_max":913,"o":"m 913 549 q 861 273 913 393 q 722 81 810 153 q 524 -8 633 8 q 607 -119 560 -76 q 708 -161 654 -161 q 758 -151 733 -161 l 757 -207 q 681 -221 721 -221 q 526 -163 597 -221 q 419 -12 456 -106 q 200 98 278 0 q 122 361 122 196 q 177 651 122 525 q 335 846 232 776 q 575 915 438 915 q 828 813 744 915 q 913 549 913 710 m 801 560 q 744 768 801 688 q 569 849 686 849 q 392 791 468 849 q 274 620 315 733 q 232 346 232 507 q 293 131 232 208 q 464 53 354 53 q 633 109 556 53 q 756 280 710 165 q 801 560 801 394 z "},"Ԝ":{"ha":1178,"x_min":147,"x_max":1281,"o":"m 1281 903 l 911 0 l 814 0 l 697 772 l 367 0 l 269 0 l 147 903 l 258 903 l 354 121 l 685 903 l 778 903 l 893 125 l 1203 903 l 1281 903 z "},"Ҍ":{"ha":719,"x_min":72,"x_max":697,"o":"m 221 775 l 239 903 l 344 903 l 326 775 l 465 775 l 456 708 l 317 708 l 293 539 l 400 539 q 619 485 542 539 q 697 325 697 432 q 694 279 697 296 q 583 73 675 146 q 329 0 490 0 l 111 0 l 211 708 l 72 708 l 82 775 l 221 775 m 335 61 q 509 114 446 61 q 588 276 572 167 q 592 322 592 301 q 392 481 592 481 l 285 481 l 225 61 l 335 61 z "},"Ҏ":{"ha":685,"x_min":129,"x_max":731,"o":"m 257 903 l 474 903 q 663 846 596 903 q 731 678 731 789 q 726 617 731 649 q 571 363 701 440 l 635 244 l 578 208 l 508 335 q 393 317 454 317 l 279 317 l 235 0 l 129 0 l 257 903 m 535 428 q 615 613 596 489 q 619 672 619 644 q 454 842 619 842 l 354 842 l 288 375 l 386 375 q 478 392 436 375 l 415 510 l 472 544 l 535 428 z "},"а":{"ha":715,"x_min":92,"x_max":710,"o":"m 532 0 l 526 81 q 458 17 506 49 q 328 -14 410 -14 q 156 60 219 -14 q 92 265 92 133 q 133 490 92 389 q 254 649 175 590 q 443 708 333 708 q 557 682 519 708 q 606 635 594 656 l 629 694 l 710 694 l 613 0 l 532 0 m 361 54 q 469 86 426 54 q 531 147 511 118 l 592 568 q 575 593 589 576 q 531 626 561 610 q 456 642 501 642 q 263 538 329 642 q 197 258 197 435 q 240 106 197 157 q 361 54 283 54 z "},"б":{"ha":701,"x_min":103,"x_max":728,"o":"m 554 931 q 290 785 385 915 q 178 446 196 654 l 185 446 q 233 563 196 503 q 331 666 269 624 q 469 708 392 708 q 646 640 585 708 q 707 439 707 571 q 665 206 707 308 q 542 44 622 103 q 354 -14 463 -14 q 215 28 272 -14 q 131 139 158 69 q 103 292 103 208 q 150 648 103 489 q 295 907 197 807 q 540 1024 393 1007 l 728 1047 l 718 947 l 554 931 m 444 649 q 326 600 381 649 q 238 464 271 551 q 206 267 206 376 q 246 110 206 172 q 361 47 286 47 q 539 151 476 47 q 601 446 601 256 q 444 649 601 649 z "},"в":{"ha":646,"x_min":103,"x_max":642,"o":"m 310 -14 q 167 -8 232 -14 q 103 0 103 -1 l 200 694 q 278 703 218 697 q 386 708 338 708 q 576 667 510 708 q 642 551 642 625 q 598 426 642 472 q 492 358 554 381 q 586 310 549 346 q 624 221 624 275 q 549 50 624 114 q 310 -14 475 -14 m 404 376 q 442 387 404 372 q 511 438 481 401 q 542 542 542 475 q 498 624 542 594 q 376 653 454 653 q 294 647 350 653 l 256 376 l 404 376 m 210 46 q 313 42 258 42 q 472 94 421 42 q 522 228 522 146 q 490 306 522 278 q 392 333 457 333 l 250 333 l 210 46 z "},"г":{"ha":568,"x_min":83,"x_max":590,"o":"m 547 101 q 519 67 547 96 q 438 12 490 38 q 313 -14 386 -14 q 147 37 210 -14 q 83 167 83 88 q 117 291 83 247 q 201 352 151 335 q 324 382 250 369 q 443 424 397 393 q 489 536 489 456 q 449 617 489 586 q 340 647 408 647 q 251 631 290 647 q 187 597 211 615 q 163 576 163 579 l 150 633 q 177 656 150 636 q 252 692 204 675 q 365 708 300 708 q 530 661 469 708 q 590 535 590 614 q 553 418 590 460 q 464 360 515 376 q 336 333 413 344 q 226 288 267 322 q 185 167 185 254 q 226 83 185 117 q 329 49 267 49 q 426 68 385 49 q 489 110 467 88 q 511 135 511 132 l 547 101 z "},"ѓ":{"ha":533,"x_min":76,"x_max":583,"o":"m 575 981 l 408 793 l 357 800 l 490 1001 l 575 981 m 540 101 q 512 67 540 96 q 431 12 483 38 q 306 -14 379 -14 q 140 37 203 -14 q 76 167 76 88 q 110 291 76 247 q 194 352 144 335 q 317 382 243 369 q 436 424 390 393 q 482 536 482 456 q 442 617 482 586 q 333 647 401 647 q 244 631 283 647 q 180 597 204 615 q 156 576 156 579 l 143 633 q 170 656 143 636 q 245 692 197 675 q 358 708 293 708 q 523 661 463 708 q 583 535 583 614 q 546 418 583 460 q 457 360 508 376 q 329 333 406 344 q 219 288 260 322 q 178 167 178 254 q 219 83 178 117 q 322 49 260 49 q 419 68 378 49 q 482 110 460 88 q 504 135 504 132 l 540 101 z "},"ґ":{"ha":458,"x_min":-117,"x_max":576,"o":"m 476 694 l 517 878 l 576 878 l 546 629 l 317 629 l 221 -57 q -18 -361 178 -361 q -73 -354 -51 -361 q -105 -340 -94 -347 q -117 -331 -115 -333 l -87 -274 q -78 -281 -86 -275 q -56 -291 -71 -286 q -22 -296 -42 -296 q 67 -240 33 -296 q 119 -57 101 -185 l 225 694 l 476 694 z "},"д":{"ha":717,"x_min":50,"x_max":711,"o":"m 608 -31 q 495 -283 586 -204 q 276 -361 404 -361 q 154 -337 204 -361 q 77 -284 104 -312 q 50 -251 50 -256 l 90 -199 q 113 -228 90 -203 q 176 -275 136 -253 q 271 -297 217 -297 q 431 -235 374 -297 q 510 -17 488 -172 l 510 -11 q 511 -7 510 -8 l 511 -6 l 518 50 q 495 31 518 47 q 433 0 472 14 q 338 -14 393 -14 q 157 63 219 -14 q 94 276 94 140 q 139 503 94 406 q 259 655 183 601 q 429 708 335 708 q 551 677 511 708 q 603 615 590 646 l 632 694 l 711 694 l 608 -31 m 375 53 q 470 73 432 53 q 528 113 508 93 l 589 544 q 576 574 589 550 q 531 621 563 599 q 447 643 499 643 q 268 547 336 643 q 200 274 200 451 q 244 109 200 165 q 375 53 288 53 z "},"е":{"ha":629,"x_min":92,"x_max":649,"o":"m 600 96 q 572 63 600 92 q 491 10 543 35 q 364 -14 439 -14 q 167 58 242 -14 q 92 267 92 131 q 135 498 92 397 q 258 653 179 599 q 439 708 336 708 q 592 656 536 708 q 649 525 649 603 q 535 355 649 396 q 260 314 422 314 l 197 314 q 196 254 196 294 q 247 99 196 150 q 382 47 297 47 q 478 65 438 47 q 541 105 518 83 q 564 129 564 126 l 600 96 m 426 649 q 279 574 338 649 q 203 367 221 500 l 263 367 q 474 399 390 367 q 558 531 558 431 q 524 615 558 582 q 426 649 489 649 z "},"ѐ":{"ha":629,"x_min":92,"x_max":649,"o":"m 413 1006 l 500 807 l 442 796 l 324 983 l 413 1006 m 600 96 q 572 63 600 92 q 491 10 543 35 q 364 -14 439 -14 q 167 58 242 -14 q 92 267 92 131 q 135 498 92 397 q 258 653 179 599 q 439 708 336 708 q 592 656 536 708 q 649 525 649 603 q 535 355 649 396 q 260 314 422 314 l 197 314 q 196 254 196 294 q 247 99 196 150 q 382 47 297 47 q 478 65 438 47 q 541 105 518 83 q 564 129 564 126 l 600 96 m 426 649 q 279 574 338 649 q 203 367 221 500 l 263 367 q 474 399 390 367 q 558 531 558 431 q 524 615 558 582 q 426 649 489 649 z "}}}
